{
.appVersion = "3177";
DisplayStrings = (
"MBFHJPÞQVXbðfhijmpþqrvx\012\012ACDEGIKLNORSTUWYZ\012acLdeg/dotlessi kLlnostuw\012vyz",
"/dieresiscomb \012/dotaccentcomb \012/gravecomb \012/acutecomb \012/hungarumlautcomb \012/caroncomb.alt \012/circumflexcomb \012/caroncomb \012/brevecomb \012/ringcomb \012/tildecomb \012/commaturnedabovecomb \012/commaaccentcomb \012/ogonekcomb \012\012\012/cedillacomb \012/macroncomb",
"AÁ/Abreve/Acaron ÂÄÀ/Amacron/Aogonek ÅÃÆBDÐ/Dcaron/Dcroat EÉ/Ecaron ÊË/Edotaccent È/Emacron/Eogonek FC/Cacute/Ccaron Ç/Cdotaccent G/Gbreve/Gcommaaccent/Gdotaccent H/Hbar I/IJ ÍÎÏ/Idotaccent Ì/Imacron/Iogonek JK/Kcommaaccent L/Lacute/Lcaron/Lcommaaccent/Lslash MN/Nacute/Ncaron/Ncommaaccent Ñ/Eng/eng OÓÔÖÒ/Ohungarumlaut/Omacron ØÕ/OE PÞQR/Racute/Rcaron/Rcommaaccent S/Sacute/Scaron/Scedilla/Scommaaccent/Germandbls T/Tcaron/Tcommaaccent UÚ/Ubreve ÛÜÙ/Uhungarumlaut/Umacron/Uogonek/Uring VW/Wacute/Wcircumflex/Wdieresis/Wgrave XYÝ/Ycircumflex/Ydieresis/Ygrave Z/Zacute/Zcaron/Zdotaccent",
"aá/abreve/acaron âäà/amacron/aogonek åãæbc/cacute/ccaron ç/cdotaccent dð/dcaron/dcroat eé/ecaron êë/edotaccent è/emacron/eogonek fg/gbreve/gcommaaccent/gdotaccent h/hbar i/dotlessi íîï/idotaccent ì/ij/imacron/iogonek j/jdotless k/kcommaaccent l/lacute/lcaron/lcommaaccent/lslash mn/nacute/ncaron/ncommaaccent ñ/eng oóôöò/ohungarumlaut/omacron øõ/oe pþqr/racute/rcaron/rcommaaccent s/sacute/scaron/scedilla/scommaaccent ßt/tcaron/tcommaaccent \012uú/ubreve ûüù/uhungarumlaut/umacron/uogonek/uring vw/wacute/wcircumflex/wdieresis/wgrave xyý/ycircumflex/ydieresis/ygrave z/zacute/zcaron/zdotaccent",
A,
"222238²&®%\012\012PÞR/florin",
"JOO/OE/OE ææccddeekkppþþ/f_k.liga/f_k.liga/mu/mu 0023377788²/foursuperior/foursuperior/quoteleft/quoteleft &&®®®®%%/dottedCircle/dottedCircle/dottedCircle",

glyphs = (
{
color = 4;
glyphname = A;
lastChange = "2023-02-19 07:03:36 +0000";
layers = (
{
anchors = (
{
name = bottom;
position = "{410, 0}";
},
{
name = ogonek;
position = "{811, 10}";
},
{
name = top;
position = "{410, 708}";
}
);
layerId = "2660E96A-9963-4076-AFCB-E451BC6EE103";
paths = (
{
closed = 1;
nodes = (
"378 0 LINE",
"378 10 LINE",
"262 10 OFFCURVE",
"212 105 OFFCURVE",
"212 222 CURVE SMOOTH",
"212 300 OFFCURVE",
"235 407 OFFCURVE",
"281 521 CURVE SMOOTH",
"285 531 LINE",
"298 531 LINE",
"502 19 LINE",
"432 5 LINE",
"432 0 LINE",
"815 0 LINE",
"815 10 LINE",
"767 20 LINE",
"493 708 LINE",
"341 708 LINE",
"56 20 LINE",
"5 10 LINE",
"5 0 LINE"
);
},
{
closed = 1;
nodes = (
"402 285 LINE",
"402 315 LINE",
"172 295 LINE",
"172 285 LINE"
);
}
);
width = 820;
},
{
anchors = (
{
name = bottom;
position = "{626, 0}";
},
{
name = ogonek;
position = "{1242, 10}";
},
{
name = top;
position = "{626, 708}";
}
);
layerId = "DF54607F-DD82-41E6-B2E3-81CA6D0E5C47";
paths = (
{
closed = 1;
nodes = (
"574 0 LINE",
"574 10 LINE",
"423 10 OFFCURVE",
"301 83 OFFCURVE",
"301 235 CURVE SMOOTH",
"301 317 OFFCURVE",
"333 428 OFFCURVE",
"412 533 CURVE SMOOTH",
"418 541 LINE",
"439 541 LINE",
"773 19 LINE",
"703 5 LINE",
"703 0 LINE",
"1246 0 LINE",
"1246 10 LINE",
"1198 20 LINE",
"758 708 LINE",
"514 708 LINE",
"57 20 LINE",
"5 10 LINE",
"5 0 LINE"
);
},
{
closed = 1;
nodes = (
"612 285 LINE",
"612 315 LINE",
"243 295 LINE",
"243 285 LINE"
);
}
);
width = 1251;
},
{
anchors = (
{
name = bottom;
position = "{355, 0}";
},
{
name = ogonek;
position = "{685, 10}";
},
{
name = top;
position = "{355, 708}";
}
);
layerId = "A5088515-37FF-452F-BD44-18A7A5EF88F0";
paths = (
{
closed = 1;
nodes = (
"217 0 LINE",
"217 10 LINE",
"146 10 OFFCURVE",
"122 21 OFFCURVE",
"122 54 CURVE SMOOTH",
"122 66 OFFCURVE",
"126 84 OFFCURVE",
"134 103 CURVE",
"350 680 LINE",
"359 680 LINE",
"604 24 LINE",
"533 10 LINE",
"533 0 LINE",
"689 0 LINE",
"689 10 LINE",
"619 25 LINE",
"363 708 LINE",
"345 708 LINE",
"90 25 LINE",
"20 10 LINE",
"20 0 LINE"
);
},
{
closed = 1;
nodes = (
"511 290 LINE",
"511 305 LINE",
"195 300 LINE",
"195 290 LINE"
);
}
);
width = 709;
},
{
anchors = (
{
name = bottom;
position = "{542, 0}";
},
{
name = ogonek;
position = "{1035, 10}";
},
{
name = top;
position = "{542, 708}";
}
);
layerId = "35A90D60-3AD4-435C-9F8B-D1CA483F6F66";
paths = (
{
closed = 1;
nodes = (
"332 0 LINE",
"332 10 LINE",
"223 10 OFFCURVE",
"187 21 OFFCURVE",
"187 53 CURVE SMOOTH",
"187 65 OFFCURVE",
"193 83 OFFCURVE",
"205 103 CURVE",
"534 680 LINE",
"549 680 LINE",
"922 24 LINE",
"814 10 LINE",
"814 0 LINE",
"1044 0 LINE",
"1044 10 LINE",
"937 25 LINE",
"547 708 LINE",
"535 708 LINE",
"147 25 LINE",
"40 10 LINE",
"40 0 LINE"
);
},
{
closed = 1;
nodes = (
"773 290 LINE",
"773 305 LINE",
"307 300 LINE",
"307 290 LINE"
);
}
);
width = 1084;
}
);
leftKerningGroup = A;
rightKerningGroup = AA;
unicode = 0041;
},
{
color = 4;
glyphname = AE;
lastChange = "2023-02-19 07:03:36 +0000";
layers = (
{
layerId = "2660E96A-9963-4076-AFCB-E451BC6EE103";
paths = (
{
closed = 1;
nodes = (
"348 0 LINE",
"348 10 LINE",
"279 36 OFFCURVE",
"247 93 OFFCURVE",
"247 167 CURVE SMOOTH",
"247 282 OFFCURVE",
"302 447 OFFCURVE",
"414 667 CURVE",
"420 678 LINE",
"465 666 LINE",
"465 708 LINE",
"347 708 LINE",
"347 698 LINE",
"397 684 LINE",
"58 25 LINE",
"5 10 LINE",
"5 0 LINE"
);
},
{
closed = 1;
nodes = (
"455 315 LINE",
"455 345 LINE",
"261 325 LINE",
"261 315 LINE"
);
},
{
closed = 1;
nodes = (
"797 693 OFFCURVE",
"847 659 OFFCURVE",
"880 598 CURVE SMOOTH",
"975 424 LINE",
"985 424 LINE",
"1020 708 LINE",
"388 708 LINE",
"388 698 LINE",
"438 683 LINE",
"438 25 LINE",
"388 10 LINE",
"388 0 LINE",
"1020 0 LINE",
"985 284 LINE",
"975 284 LINE",
"906 138 LINE SMOOTH",
"870 62 OFFCURVE",
"810 15 OFFCURVE",
"765 15 CURVE SMOOTH",
"683 15 LINE",
"683 356 LINE",
"693 356 LINE",
"839 246 LINE",
"849 246 LINE",
"849 506 LINE",
"839 506 LINE",
"833 486 OFFCURVE",
"811 439 OFFCURVE",
"777 405 CURVE SMOOTH",
"757 384 OFFCURVE",
"731 366 OFFCURVE",
"703 366 CURVE",
"683 366 LINE",
"683 693 LINE",
"765 693 LINE SMOOTH"
);
}
);
width = 1070;
},
{
layerId = "DF54607F-DD82-41E6-B2E3-81CA6D0E5C47";
paths = (
{
closed = 1;
nodes = (
"578 0 LINE",
"578 10 LINE",
"471 10 OFFCURVE",
"365 56 OFFCURVE",
"365 164 CURVE SMOOTH",
"365 251 OFFCURVE",
"435 377 OFFCURVE",
"643 670 CURVE",
"649 678 LINE",
"675 673 LINE",
"675 708 LINE",
"543 708 LINE",
"543 698 LINE",
"616 684 LINE",
"61 20 LINE",
"5 10 LINE",
"5 0 LINE"
);
},
{
closed = 1;
nodes = (
"686 285 LINE",
"686 315 LINE",
"357 295 LINE",
"357 285 LINE"
);
},
{
closed = 1;
nodes = (
"1431 693 OFFCURVE",
"1533 657 OFFCURVE",
"1623 579 CURVE SMOOTH",
"1800 424 LINE",
"1810 424 LINE",
"1884 708 LINE",
"618 708 LINE",
"618 698 LINE",
"668 688 LINE",
"668 20 LINE",
"618 10 LINE",
"618 0 LINE",
"1884 0 LINE",
"1810 284 LINE",
"1800 284 LINE",
"1652 140 LINE SMOOTH",
"1565 55 OFFCURVE",
"1451 15 OFFCURVE",
"1343 15 CURVE SMOOTH",
"1188 15 LINE",
"1188 356 LINE",
"1200 356 LINE",
"1511 246 LINE",
"1521 246 LINE",
"1521 506 LINE",
"1511 506 LINE",
"1499 488 OFFCURVE",
"1454 449 OFFCURVE",
"1393 416 CURVE SMOOTH",
"1343 390 OFFCURVE",
"1282 366 OFFCURVE",
"1221 366 CURVE",
"1188 366 LINE",
"1188 693 LINE",
"1343 693 LINE SMOOTH"
);
}
);
width = 1934;
},
{
layerId = "A5088515-37FF-452F-BD44-18A7A5EF88F0";
paths = (
{
closed = 1;
nodes = (
"226 0 LINE",
"226 10 LINE",
"153 10 OFFCURVE",
"128 21 OFFCURVE",
"128 52 CURVE SMOOTH",
"128 65 OFFCURVE",
"133 83 OFFCURVE",
"143 103 CURVE",
"419 680 LINE",
"432 676 LINE",
"432 708 LINE",
"354 708 LINE",
"354 698 LINE",
"407 687 LINE",
"90 25 LINE",
"20 10 LINE",
"20 0 LINE"
);
},
{
closed = 1;
nodes = (
"430 290 LINE",
"430 305 LINE",
"227 300 LINE",
"227 290 LINE"
);
},
{
closed = 1;
nodes = (
"822 693 OFFCURVE",
"838 679 OFFCURVE",
"833 635 CURVE",
"817 484 LINE",
"832 484 LINE",
"866 708 LINE",
"354 708 LINE",
"354 698 LINE",
"424 683 LINE",
"424 25 LINE",
"354 10 LINE",
"354 0 LINE",
"866 0 LINE",
"832 243 LINE",
"817 243 LINE",
"839 83 LINE",
"846 32 OFFCURVE",
"834 15 OFFCURVE",
"789 15 CURVE SMOOTH",
"439 15 LINE",
"439 353 LINE",
"659 353 LINE",
"665 256 LINE",
"675 256 LINE",
"675 498 LINE",
"665 498 LINE",
"665 436 OFFCURVE",
"662 399 OFFCURVE",
"656 385 CURVE SMOOTH",
"651 374 OFFCURVE",
"641 368 OFFCURVE",
"628 368 CURVE",
"439 368 LINE",
"439 693 LINE",
"772 693 LINE SMOOTH"
);
}
);
width = 941;
},
{
layerId = "35A90D60-3AD4-435C-9F8B-D1CA483F6F66";
paths = (
{
closed = 1;
nodes = (
"328 0 LINE",
"328 10 LINE",
"224 10 OFFCURVE",
"188 20 OFFCURVE",
"188 51 CURVE SMOOTH",
"188 64 OFFCURVE",
"195 81 OFFCURVE",
"210 103 CURVE",
"603 680 LINE",
"622 676 LINE",
"622 708 LINE",
"516 708 LINE",
"516 698 LINE",
"591 687 LINE",
"140 25 LINE",
"40 10 LINE",
"40 0 LINE"
);
},
{
closed = 1;
nodes = (
"619 290 LINE",
"619 305 LINE",
"337 300 LINE",
"337 290 LINE"
);
},
{
closed = 1;
nodes = (
"1300 693 OFFCURVE",
"1316 676 OFFCURVE",
"1310 625 CURVE SMOOTH",
"1293 484 LINE",
"1308 484 LINE",
"1342 708 LINE",
"506 708 LINE",
"506 698 LINE",
"610 683 LINE",
"610 25 LINE",
"501 10 LINE",
"501 0 LINE",
"1342 0 LINE",
"1308 243 LINE",
"1293 243 LINE",
"1314 91 LINE",
"1322 34 OFFCURVE",
"1310 15 OFFCURVE",
"1265 15 CURVE SMOOTH",
"625 15 LINE",
"625 353 LINE",
"995 353 LINE",
"1001 256 LINE",
"1011 256 LINE",
"1011 498 LINE",
"1001 498 LINE",
"1001 434 OFFCURVE",
"997 392 OFFCURVE",
"990 381 CURVE SMOOTH",
"985 372 OFFCURVE",
"976 368 OFFCURVE",
"964 368 CURVE SMOOTH",
"625 368 LINE",
"625 693 LINE",
"1248 693 LINE SMOOTH"
);
}
);
width = 1457;
}
);
leftKerningGroup = A;
leftMetricsKey = A;
rightKerningGroup = E;
rightMetricsKey = E;
unicode = 00C6;
},
{
color = 4;
glyphname = B;
lastChange = "2023-02-19 07:22:04 +0000";
layers = (
{
layerId = "2660E96A-9963-4076-AFCB-E451BC6EE103";
paths = (
{
closed = 1;
nodes = (
"20 708 LINE",
"20 698 LINE",
"70 683 LINE",
"70 25 LINE",
"20 10 LINE",
"20 0 LINE",
"441 0 LINE SMOOTH",
"638 0 OFFCURVE",
"746 58 OFFCURVE",
"746 192 CURVE SMOOTH",
"746 326 OFFCURVE",
"584 370 OFFCURVE",
"438 370 CURVE",
"438 380 LINE",
"553 380 OFFCURVE",
"720 423 OFFCURVE",
"720 554 CURVE SMOOTH",
"720 655 OFFCURVE",
"625 708 OFFCURVE",
"463 708 CURVE SMOOTH"
);
},
{
closed = 1;
nodes = (
"465 692 OFFCURVE",
"505 638 OFFCURVE",
"505 554 CURVE SMOOTH",
"505 427 OFFCURVE",
"449 384 OFFCURVE",
"379 382 CURVE SMOOTH",
"309 380 LINE",
"309 369 LINE",
"379 367 LINE",
"467 367 OFFCURVE",
"515 324 OFFCURVE",
"515 208 CURVE SMOOTH",
"515 59 OFFCURVE",
"452 14 OFFCURVE",
"394 14 CURVE SMOOTH",
"352 14 OFFCURVE",
"326 16 OFFCURVE",
"315 20 CURVE",
"315 688 LINE",
"328 691 OFFCURVE",
"358 692 OFFCURVE",
"405 692 CURVE SMOOTH"
);
}
);
width = 776;
},
{
layerId = "DF54607F-DD82-41E6-B2E3-81CA6D0E5C47";
paths = (
{
closed = 1;
nodes = (
"20 708 LINE",
"20 698 LINE",
"70 683 LINE",
"70 25 LINE",
"20 10 LINE",
"20 0 LINE",
"716 0 LINE SMOOTH",
"1073 0 OFFCURVE",
"1335 80 OFFCURVE",
"1335 192 CURVE SMOOTH",
"1335 296 OFFCURVE",
"1092 370 OFFCURVE",
"783 370 CURVE",
"783 380 LINE",
"1100 380 OFFCURVE",
"1309 445 OFFCURVE",
"1309 554 CURVE SMOOTH",
"1309 651 OFFCURVE",
"1091 708 OFFCURVE",
"738 708 CURVE SMOOTH"
);
},
{
closed = 1;
nodes = (
"740 692 OFFCURVE",
"780 638 OFFCURVE",
"780 554 CURVE SMOOTH",
"780 427 OFFCURVE",
"724 384 OFFCURVE",
"654 382 CURVE SMOOTH",
"584 380 LINE",
"584 368 LINE",
"654 367 LINE",
"742 367 OFFCURVE",
"790 324 OFFCURVE",
"790 208 CURVE SMOOTH",
"790 59 OFFCURVE",
"727 14 OFFCURVE",
"669 14 CURVE SMOOTH",
"638 14 OFFCURVE",
"610 16 OFFCURVE",
"590 20 CURVE",
"590 686 LINE",
"615 690 OFFCURVE",
"645 692 OFFCURVE",
"680 692 CURVE SMOOTH"
);
}
);
width = 1365;
},
{
layerId = "A5088515-37FF-452F-BD44-18A7A5EF88F0";
paths = (
{
closed = 1;
nodes = (
"80 708 LINE",
"80 698 LINE",
"150 683 LINE",
"150 25 LINE",
"80 10 LINE",
"80 0 LINE",
"361 0 LINE",
"528 0 OFFCURVE",
"609 63 OFFCURVE",
"609 187 CURVE SMOOTH",
"609 314 OFFCURVE",
"525 361 OFFCURVE",
"424 369 CURVE",
"424 374 LINE",
"501 385 OFFCURVE",
"564 437 OFFCURVE",
"564 537 CURVE SMOOTH",
"564 652 OFFCURVE",
"495 708 OFFCURVE",
"345 708 CURVE SMOOTH"
);
},
{
closed = 1;
nodes = (
"485 692 OFFCURVE",
"549 641 OFFCURVE",
"549 537 CURVE SMOOTH",
"549 458 OFFCURVE",
"503 379 OFFCURVE",
"360 377 CURVE SMOOTH",
"157 374 LINE",
"157 364 LINE",
"360 361 LINE SMOOTH",
"530 358 OFFCURVE",
"594 298 OFFCURVE",
"594 187 CURVE SMOOTH",
"594 72 OFFCURVE",
"517 15 OFFCURVE",
"361 15 CURVE SMOOTH",
"265 15 OFFCURVE",
"200 18 OFFCURVE",
"165 24 CURVE",
"165 683 LINE",
"206 689 OFFCURVE",
"266 692 OFFCURVE",
"345 692 CURVE SMOOTH"
);
}
);
width = 669;
},
{
layerId = "35A90D60-3AD4-435C-9F8B-D1CA483F6F66";
paths = (
{
closed = 1;
nodes = (
"100 708 LINE",
"100 698 LINE",
"209 683 LINE",
"209 25 LINE",
"100 10 LINE",
"100 0 LINE",
"546 0 LINE",
"819 0 OFFCURVE",
"953 63 OFFCURVE",
"953 187 CURVE SMOOTH",
"953 314 OFFCURVE",
"823 361 OFFCURVE",
"649 369 CURVE",
"649 374 LINE",
"775 384 OFFCURVE",
"879 437 OFFCURVE",
"879 537 CURVE SMOOTH",
"879 652 OFFCURVE",
"766 708 OFFCURVE",
"536 708 CURVE SMOOTH"
);
},
{
closed = 1;
nodes = (
"750 692 OFFCURVE",
"864 641 OFFCURVE",
"864 537 CURVE SMOOTH",
"864 458 OFFCURVE",
"780 377 OFFCURVE",
"544 377 CURVE",
"210 374 LINE",
"210 364 LINE",
"544 361 LINE",
"823 361 OFFCURVE",
"938 298 OFFCURVE",
"938 187 CURVE SMOOTH",
"938 72 OFFCURVE",
"803 15 OFFCURVE",
"546 15 CURVE SMOOTH",
"417 15 OFFCURVE",
"311 18 OFFCURVE",
"224 24 CURVE",
"224 683 LINE",
"308 689 OFFCURVE",
"412 692 OFFCURVE",
"536 692 CURVE SMOOTH"
);
}
);
width = 1023;
}
);
leftKerningGroup = HH;
leftMetricsKey = H;
rightKerningGroup = B;
unicode = 0042;
},
{
color = 4;
glyphname = C;
lastChange = "2023-02-19 07:03:36 +0000";
layers = (
{
anchors = (
{
name = bottom;
position = "{386, 0}";
},
{
name = top;
position = "{394, 708}";
}
);
layerId = "2660E96A-9963-4076-AFCB-E451BC6EE103";
paths = (
{
closed = 1;
nodes = (
"690 134 LINE",
"649 105 OFFCURVE",
"601 93 OFFCURVE",
"552 93 CURVE SMOOTH",
"348 93 OFFCURVE",
"272 263 OFFCURVE",
"272 428 CURVE SMOOTH",
"272 574 OFFCURVE",
"309 711 OFFCURVE",
"374 711 CURVE SMOOTH",
"441 711 OFFCURVE",
"502 645 OFFCURVE",
"558 513 CURVE SMOOTH",
"621 364 LINE",
"641 364 LINE",
"701 660 LINE",
"644 685 OFFCURVE",
"535 723 OFFCURVE",
"425 723 CURVE SMOOTH",
"178 723 OFFCURVE",
"30 584 OFFCURVE",
"30 352 CURVE SMOOTH",
"30 120 OFFCURVE",
"198 -15 OFFCURVE",
"403 -15 CURVE SMOOTH",
"509 -15 OFFCURVE",
"618 21 OFFCURVE",
"700 127 CURVE"
);
}
);
width = 731;
},
{
anchors = (
{
name = bottom;
position = "{601, 0}";
},
{
name = top;
position = "{681, 708}";
}
);
layerId = "DF54607F-DD82-41E6-B2E3-81CA6D0E5C47";
paths = (
{
closed = 1;
nodes = (
"1211 134 LINE",
"1138 105 OFFCURVE",
"1052 93 OFFCURVE",
"964 93 CURVE SMOOTH",
"712 93 OFFCURVE",
"532 232 OFFCURVE",
"532 448 CURVE SMOOTH",
"532 618 OFFCURVE",
"594 711 OFFCURVE",
"726 711 CURVE SMOOTH",
"819 711 OFFCURVE",
"906 647 OFFCURVE",
"989 518 CURVE SMOOTH",
"1088 364 LINE",
"1124 364 LINE",
"1231 660 LINE",
"1129 685 OFFCURVE",
"944 723 OFFCURVE",
"747 723 CURVE SMOOTH",
"296 723 OFFCURVE",
"30 585 OFFCURVE",
"30 352 CURVE SMOOTH",
"30 135 OFFCURVE",
"307 -15 OFFCURVE",
"698 -15 CURVE SMOOTH",
"887 -15 OFFCURVE",
"1082 21 OFFCURVE",
"1229 127 CURVE"
);
}
);
width = 1261;
},
{
anchors = (
{
name = bottom;
position = "{379, 0}";
},
{
name = top;
position = "{387, 708}";
}
);
layerId = "A5088515-37FF-452F-BD44-18A7A5EF88F0";
paths = (
{
closed = 1;
nodes = (
"633 144 LINE",
"578 53 OFFCURVE",
"484 0 OFFCURVE",
"379 0 CURVE SMOOTH",
"201 0 OFFCURVE",
"95 130 OFFCURVE",
"95 350 CURVE SMOOTH",
"95 560 OFFCURVE",
"215 708 OFFCURVE",
"387 708 CURVE SMOOTH",
"558 708 OFFCURVE",
"624 652 OFFCURVE",
"604 525 CURVE SMOOTH",
"582 384 LINE",
"598 384 LINE",
"645 616 LINE",
"590 688 OFFCURVE",
"505 723 OFFCURVE",
"387 723 CURVE SMOOTH",
"207 723 OFFCURVE",
"80 568 OFFCURVE",
"80 350 CURVE SMOOTH",
"80 121 OFFCURVE",
"191 -15 OFFCURVE",
"379 -15 CURVE SMOOTH",
"496 -15 OFFCURVE",
"594 41 OFFCURVE",
"643 137 CURVE"
);
}
);
width = 725;
},
{
anchors = (
{
name = bottom;
position = "{573, 0}";
},
{
name = top;
position = "{588, 708}";
}
);
layerId = "35A90D60-3AD4-435C-9F8B-D1CA483F6F66";
paths = (
{
closed = 1;
nodes = (
"986 144 LINE",
"897 53 OFFCURVE",
"744 0 OFFCURVE",
"574 0 CURVE SMOOTH",
"287 0 OFFCURVE",
"105 130 OFFCURVE",
"105 350 CURVE SMOOTH",
"105 560 OFFCURVE",
"309 708 OFFCURVE",
"587 708 CURVE SMOOTH",
"846 708 OFFCURVE",
"987 634 OFFCURVE",
"953 517 CURVE SMOOTH",
"914 384 LINE",
"929 384 LINE",
"1005 616 LINE",
"916 688 OFFCURVE",
"778 723 OFFCURVE",
"587 723 CURVE SMOOTH",
"296 723 OFFCURVE",
"90 568 OFFCURVE",
"90 350 CURVE SMOOTH",
"90 121 OFFCURVE",
"270 -15 OFFCURVE",
"574 -15 CURVE SMOOTH",
"764 -15 OFFCURVE",
"923 41 OFFCURVE",
"1002 137 CURVE"
);
}
);
width = 1095;
}
);
leftKerningGroup = OO;
leftMetricsKey = O;
rightKerningGroup = C;
rightMetricsKey = O;
unicode = 0043;
},
{
color = 5;
glyphname = Ccedilla;
lastChange = "2023-02-19 07:03:36 +0000";
layers = (
{
anchors = (
{
name = bottom;
position = "{386, 0}";
},
{
name = top;
position = "{374, 708}";
}
);
background = {
paths = (
{
closed = 1;
nodes = (
"690 134 LINE",
"649 105 OFFCURVE",
"601 93 OFFCURVE",
"552 93 CURVE SMOOTH",
"348 93 OFFCURVE",
"272 263 OFFCURVE",
"272 428 CURVE SMOOTH",
"271 574 OFFCURVE",
"309 711 OFFCURVE",
"374 711 CURVE SMOOTH",
"441 711 OFFCURVE",
"502 645 OFFCURVE",
"558 513 CURVE SMOOTH",
"621 364 LINE",
"641 364 LINE",
"701 660 LINE",
"644 685 OFFCURVE",
"535 723 OFFCURVE",
"425 723 CURVE SMOOTH",
"178 723 OFFCURVE",
"30 584 OFFCURVE",
"30 352 CURVE SMOOTH",
"30 120 OFFCURVE",
"198 -17 OFFCURVE",
"403 -15 CURVE SMOOTH",
"509 -14 OFFCURVE",
"618 21 OFFCURVE",
"700 127 CURVE"
);
},
{
closed = 1;
nodes = (
"460 -215 OFFCURVE",
"497 -173 OFFCURVE",
"497 -130 CURVE SMOOTH",
"497 -87 OFFCURVE",
"459 -44 OFFCURVE",
"373 -44 CURVE",
"365 -33 LINE",
"377 0 LINE",
"367 0 LINE",
"346 -54 LINE",
"393 -54 OFFCURVE",
"414 -84 OFFCURVE",
"414 -113 CURVE SMOOTH",
"414 -142 OFFCURVE",
"393 -171 OFFCURVE",
"356 -171 CURVE SMOOTH",
"337 -171 OFFCURVE",
"318 -161 OFFCURVE",
"306 -140 CURVE",
"296 -150 LINE",
"311 -195 OFFCURVE",
"348 -215 OFFCURVE",
"398 -215 CURVE SMOOTH"
);
}
);
};
components = (
{
name = C;
},
{
name = cedillacomb;
transform = "{1, 0, 0, 1, 386, 0}";
}
);
layerId = "2660E96A-9963-4076-AFCB-E451BC6EE103";
width = 731;
},
{
anchors = (
{
name = bottom;
position = "{581, 0}";
},
{
name = top;
position = "{631, 708}";
}
);
background = {
paths = (
{
closed = 1;
nodes = (
"1211 134 LINE",
"1138 105 OFFCURVE",
"1052 93 OFFCURVE",
"964 93 CURVE SMOOTH",
"712 93 OFFCURVE",
"533 232 OFFCURVE",
"532 448 CURVE SMOOTH",
"531 618 OFFCURVE",
"594 711 OFFCURVE",
"726 711 CURVE SMOOTH",
"819 711 OFFCURVE",
"906 647 OFFCURVE",
"989 518 CURVE SMOOTH",
"1088 364 LINE",
"1124 364 LINE",
"1231 660 LINE",
"1129 685 OFFCURVE",
"944 723 OFFCURVE",
"747 723 CURVE SMOOTH",
"296 723 OFFCURVE",
"30 585 OFFCURVE",
"30 352 CURVE SMOOTH",
"30 135 OFFCURVE",
"307 -17 OFFCURVE",
"698 -15 CURVE SMOOTH",
"887 -14 OFFCURVE",
"1082 21 OFFCURVE",
"1229 127 CURVE"
);
},
{
closed = 1;
nodes = (
"930 -215 OFFCURVE",
"1077 -173 OFFCURVE",
"1077 -130 CURVE SMOOTH",
"1077 -87 OFFCURVE",
"915 -39 OFFCURVE",
"534 -39 CURVE",
"526 -33 LINE",
"575 0 LINE",
"560 0 LINE",
"475 -54 LINE",
"670 -54 OFFCURVE",
"686 -84 OFFCURVE",
"686 -113 CURVE SMOOTH",
"686 -159 OFFCURVE",
"585 -173 OFFCURVE",
"484 -173 CURVE SMOOTH",
"407 -173 OFFCURVE",
"330 -161 OFFCURVE",
"294 -146 CURVE",
"281 -155 LINE",
"341 -200 OFFCURVE",
"483 -215 OFFCURVE",
"682 -215 CURVE SMOOTH"
);
}
);
};
components = (
{
name = C;
},
{
name = cedillacomb;
transform = "{1, 0, 0, 1, 601, 0}";
}
);
layerId = "DF54607F-DD82-41E6-B2E3-81CA6D0E5C47";
width = 1261;
},
{
anchors = (
{
name = bottom;
position = "{379, 0}";
},
{
name = top;
position = "{387, 708}";
}
);
background = {
paths = (
{
closed = 1;
nodes = (
"633 144 LINE",
"578 53 OFFCURVE",
"484 0 OFFCURVE",
"379 0 CURVE SMOOTH",
"201 0 OFFCURVE",
"96 130 OFFCURVE",
"95 350 CURVE SMOOTH",
"94 560 OFFCURVE",
"215 708 OFFCURVE",
"387 708 CURVE SMOOTH",
"558 708 OFFCURVE",
"624 652 OFFCURVE",
"604 525 CURVE SMOOTH",
"582 384 LINE",
"598 384 LINE",
"645 616 LINE",
"590 688 OFFCURVE",
"505 723 OFFCURVE",
"387 723 CURVE SMOOTH",
"207 723 OFFCURVE",
"80 568 OFFCURVE",
"80 350 CURVE SMOOTH",
"80 121 OFFCURVE",
"191 -15 OFFCURVE",
"379 -15 CURVE SMOOTH",
"496 -15 OFFCURVE",
"594 41 OFFCURVE",
"643 137 CURVE"
);
},
{
closed = 1;
nodes = (
"461 -215 OFFCURVE",
"495 -180 OFFCURVE",
"495 -131 CURVE SMOOTH",
"495 -79 OFFCURVE",
"461 -55 OFFCURVE",
"399 -42 CURVE",
"391 -31 LINE",
"402 0 LINE",
"387 0 LINE",
"366 -54 LINE",
"439 -60 OFFCURVE",
"480 -84 OFFCURVE",
"480 -131 CURVE SMOOTH",
"480 -172 OFFCURVE",
"453 -201 OFFCURVE",
"414 -200 CURVE SMOOTH",
"373 -200 OFFCURVE",
"340 -178 OFFCURVE",
"326 -140 CURVE",
"316 -150 LINE",
"331 -191 OFFCURVE",
"367 -215 OFFCURVE",
"414 -215 CURVE SMOOTH"
);
}
);
};
components = (
{
name = C;
},
{
name = cedillacomb;
transform = "{1, 0, 0, 1, 379, 0}";
}
);
layerId = "A5088515-37FF-452F-BD44-18A7A5EF88F0";
width = 725;
},
{
anchors = (
{
name = bottom;
position = "{573, 0}";
},
{
name = top;
position = "{548, 708}";
}
);
background = {
paths = (
{
closed = 1;
nodes = (
"986 144 LINE",
"897 53 OFFCURVE",
"744 0 OFFCURVE",
"574 0 CURVE SMOOTH",
"287 0 OFFCURVE",
"107 130 OFFCURVE",
"105 350 CURVE SMOOTH",
"104 560 OFFCURVE",
"309 708 OFFCURVE",
"587 708 CURVE SMOOTH",
"846 708 OFFCURVE",
"987 634 OFFCURVE",
"953 517 CURVE SMOOTH",
"914 384 LINE",
"929 384 LINE",
"1005 616 LINE",
"916 688 OFFCURVE",
"778 723 OFFCURVE",
"587 723 CURVE SMOOTH",
"296 723 OFFCURVE",
"90 568 OFFCURVE",
"90 350 CURVE SMOOTH",
"90 121 OFFCURVE",
"270 -15 OFFCURVE",
"574 -15 CURVE SMOOTH",
"764 -15 OFFCURVE",
"923 41 OFFCURVE",
"1002 137 CURVE"
);
},
{
closed = 1;
nodes = (
"664 -215 OFFCURVE",
"723 -180 OFFCURVE",
"723 -131 CURVE SMOOTH",
"723 -79 OFFCURVE",
"664 -55 OFFCURVE",
"557 -42 CURVE",
"543 -31 LINE",
"563 1 LINE",
"549 1 LINE",
"512 -54 LINE",
"626 -60 OFFCURVE",
"708 -84 OFFCURVE",
"708 -131 CURVE SMOOTH",
"708 -172 OFFCURVE",
"650 -201 OFFCURVE",
"583 -200 CURVE SMOOTH",
"512 -200 OFFCURVE",
"455 -181 OFFCURVE",
"426 -143 CURVE",
"414 -150 LINE",
"440 -191 OFFCURVE",
"502 -215 OFFCURVE",
"583 -215 CURVE SMOOTH"
);
}
);
};
components = (
{
name = C;
},
{
name = cedillacomb;
transform = "{1, 0, 0, 1, 573, 0}";
}
);
layerId = "35A90D60-3AD4-435C-9F8B-D1CA483F6F66";
width = 1095;
}
);
leftKerningGroup = OO;
leftMetricsKey = C;
rightKerningGroup = C;
rightMetricsKey = C;
unicode = 00C7;
},
{
color = 4;
glyphname = D;
lastChange = "2023-02-19 07:03:36 +0000";
layers = (
{
anchors = (
{
name = bottom;
position = "{377, 0}";
},
{
name = center;
position = "{408, 354}";
},
{
name = top;
position = "{387, 708}";
}
);
layerId = "2660E96A-9963-4076-AFCB-E451BC6EE103";
paths = (
{
closed = 1;
nodes = (
"20 708 LINE",
"20 698 LINE",
"70 693 LINE",
"70 20 LINE",
"20 10 LINE",
"20 0 LINE",
"437 0 LINE SMOOTH",
"637 0 OFFCURVE",
"785 133 OFFCURVE",
"785 361 CURVE SMOOTH",
"785 584 OFFCURVE",
"630 708 OFFCURVE",
"437 708 CURVE SMOOTH"
);
},
{
closed = 1;
nodes = (
"483 692 OFFCURVE",
"535 566 OFFCURVE",
"535 377 CURVE SMOOTH",
"535 146 OFFCURVE",
"483 15 OFFCURVE",
"377 15 CURVE",
"335 15 LINE",
"315 35 LINE",
"315 688 LINE",
"328 691 OFFCURVE",
"349 692 OFFCURVE",
"377 692 CURVE SMOOTH"
);
}
);
width = 815;
},
{
anchors = (
{
name = bottom;
position = "{622, 0}";
},
{
name = center;
position = "{658, 354}";
},
{
name = top;
position = "{622, 708}";
}
);
layerId = "DF54607F-DD82-41E6-B2E3-81CA6D0E5C47";
paths = (
{
closed = 1;
nodes = (
"20 708 LINE",
"20 698 LINE",
"70 683 LINE",
"70 20 LINE",
"20 10 LINE",
"20 0 LINE",
"712 0 LINE SMOOTH",
"1110 0 OFFCURVE",
"1345 134 OFFCURVE",
"1345 361 CURVE SMOOTH",
"1345 579 OFFCURVE",
"1110 708 OFFCURVE",
"712 708 CURVE SMOOTH"
);
},
{
closed = 1;
nodes = (
"758 692 OFFCURVE",
"810 566 OFFCURVE",
"810 377 CURVE SMOOTH",
"810 146 OFFCURVE",
"758 15 OFFCURVE",
"652 15 CURVE",
"610 15 LINE",
"590 35 LINE",
"590 687 LINE",
"604 690 OFFCURVE",
"626 692 OFFCURVE",
"652 692 CURVE SMOOTH"
);
}
);
width = 1375;
},
{
anchors = (
{
name = bottom;
position = "{351, 0}";
},
{
name = center;
position = "{351, 354}";
},
{
name = top;
position = "{346, 708}";
}
);
layerId = "A5088515-37FF-452F-BD44-18A7A5EF88F0";
paths = (
{
closed = 1;
nodes = (
"80 708 LINE",
"80 698 LINE",
"150 683 LINE",
"150 25 LINE",
"80 10 LINE",
"80 0 LINE",
"351 0 LINE",
"556 0 OFFCURVE",
"656 117 OFFCURVE",
"656 357 CURVE SMOOTH",
"656 593 OFFCURVE",
"554 708 OFFCURVE",
"346 708 CURVE"
);
},
{
closed = 1;
nodes = (
"544 692 OFFCURVE",
"641 582 OFFCURVE",
"641 357 CURVE SMOOTH",
"641 127 OFFCURVE",
"546 15 OFFCURVE",
"351 15 CURVE",
"185 15 LINE",
"165 35 LINE",
"165 683 LINE",
"212 688 OFFCURVE",
"286 692 OFFCURVE",
"346 692 CURVE"
);
}
);
width = 736;
},
{
anchors = (
{
name = bottom;
position = "{535, 0}";
},
{
name = center;
position = "{564, 354}";
},
{
name = top;
position = "{564, 708}";
}
);
layerId = "35A90D60-3AD4-435C-9F8B-D1CA483F6F66";
paths = (
{
closed = 1;
nodes = (
"100 708 LINE",
"100 698 LINE",
"209 683 LINE",
"209 25 LINE",
"100 10 LINE",
"100 0 LINE",
"535 0 LINE",
"879 0 OFFCURVE",
"1037 117 OFFCURVE",
"1037 357 CURVE SMOOTH",
"1037 593 OFFCURVE",
"876 708 OFFCURVE",
"527 708 CURVE"
);
},
{
closed = 1;
nodes = (
"859 692 OFFCURVE",
"1022 582 OFFCURVE",
"1022 357 CURVE SMOOTH",
"1022 127 OFFCURVE",
"862 15 OFFCURVE",
"535 15 CURVE",
"257 15 LINE",
"224 35 LINE",
"224 683 LINE",
"266 689 OFFCURVE",
"383 692 OFFCURVE",
"527 692 CURVE"
);
}
);
width = 1127;
}
);
leftKerningGroup = HH;
leftMetricsKey = H;
rightKerningGroup = O;
rightMetricsKey = O;
unicode = 0044;
},
{
color = 5;
glyphname = Eth;
lastChange = "2023-02-19 07:03:36 +0000";
layers = (
{
components = (
{
name = D;
}
);
hints = (
{
horizontal = 1;
place = "{34535, 100}";
type = Stem;
},
{
horizontal = 1;
place = "{366.355, 0}";
type = Stem;
}
);
layerId = "2660E96A-9963-4076-AFCB-E451BC6EE103";
paths = (
{
closed = 1;
nodes = (
"24 350 LINE",
"387 350 LINE",
"387 365 LINE",
"24 365 LINE"
);
}
);
width = 815;
},
{
components = (
{
name = D;
}
);
hints = (
{
horizontal = 1;
place = "{34535, 100}";
type = Stem;
},
{
horizontal = 1;
place = "{366.355, 0}";
type = Stem;
}
);
layerId = "DF54607F-DD82-41E6-B2E3-81CA6D0E5C47";
paths = (
{
closed = 1;
nodes = (
"24 350 LINE",
"666 350 LINE",
"666 365 LINE",
"24 365 LINE"
);
}
);
width = 1375;
},
{
components = (
{
name = D;
}
);
hints = (
{
horizontal = 1;
place = "{34535, 100}";
type = Stem;
},
{
horizontal = 1;
place = "{366.355, 0}";
type = Stem;
}
);
layerId = "A5088515-37FF-452F-BD44-18A7A5EF88F0";
paths = (
{
closed = 1;
nodes = (
"100 350 LINE",
"357 350 LINE",
"357 365 LINE",
"100 365 LINE"
);
}
);
width = 736;
},
{
components = (
{
name = D;
}
);
hints = (
{
horizontal = 1;
place = "{34535, 100}";
type = Stem;
},
{
horizontal = 1;
place = "{366.355, 0}";
type = Stem;
}
);
layerId = "35A90D60-3AD4-435C-9F8B-D1CA483F6F66";
paths = (
{
closed = 1;
nodes = (
"100 350 LINE",
"530 350 LINE",
"530 365 LINE",
"100 365 LINE"
);
}
);
width = 1127;
}
);
leftKerningGroup = HH;
leftMetricsKey = D;
rightKerningGroup = O;
rightMetricsKey = D;
unicode = 00D0;
},
{
color = 4;
glyphname = E;
lastChange = "2023-02-19 07:03:36 +0000";
layers = (
{
anchors = (
{
name = bottom;
position = "{351, 0}";
},
{
name = ogonek;
position = "{646, 10}";
},
{
name = top;
position = "{351, 708}";
},
{
name = topleft;
position = "{20, 708}";
}
);
layerId = "2660E96A-9963-4076-AFCB-E451BC6EE103";
paths = (
{
closed = 1;
nodes = (
"652 0 LINE",
"617 284 LINE",
"607 284 LINE",
"538 138 LINE SMOOTH",
"502 62 OFFCURVE",
"442 15 OFFCURVE",
"397 15 CURVE",
"315 15 LINE",
"315 356 LINE",
"325 356 LINE",
"471 246 LINE",
"481 246 LINE",
"481 506 LINE",
"471 506 LINE",
"465 485 OFFCURVE",
"442 438 OFFCURVE",
"408 404 CURVE SMOOTH",
"387 383 OFFCURVE",
"363 366 OFFCURVE",
"335 366 CURVE",
"315 366 LINE",
"315 693 LINE",
"397 693 LINE",
"429 693 OFFCURVE",
"479 659 OFFCURVE",
"512 598 CURVE SMOOTH",
"607 424 LINE",
"617 424 LINE",
"652 708 LINE",
"20 708 LINE",
"20 698 LINE",
"70 683 LINE",
"70 25 LINE",
"20 10 LINE",
"20 0 LINE"
);
}
);
width = 702;
},
{
anchors = (
{
name = bottom;
position = "{658, 0}";
},
{
name = ogonek;
position = "{1280, 10}";
},
{
name = top;
position = "{658, 708}";
},
{
name = topleft;
position = "{20, 708}";
}
);
layerId = "DF54607F-DD82-41E6-B2E3-81CA6D0E5C47";
paths = (
{
closed = 1;
nodes = (
"1286 0 LINE",
"1212 284 LINE",
"1202 284 LINE",
"1054 140 LINE SMOOTH",
"967 55 OFFCURVE",
"853 15 OFFCURVE",
"745 15 CURVE",
"590 15 LINE",
"590 356 LINE",
"602 356 LINE",
"913 246 LINE",
"923 246 LINE",
"923 506 LINE",
"913 506 LINE",
"901 488 OFFCURVE",
"856 449 OFFCURVE",
"795 416 CURVE SMOOTH",
"745 390 OFFCURVE",
"685 366 OFFCURVE",
"623 366 CURVE",
"590 366 LINE",
"590 693 LINE",
"745 693 LINE",
"833 693 OFFCURVE",
"935 657 OFFCURVE",
"1025 579 CURVE SMOOTH",
"1202 424 LINE",
"1212 424 LINE",
"1286 708 LINE",
"20 708 LINE",
"20 698 LINE",
"70 688 LINE",
"70 20 LINE",
"20 10 LINE",
"20 0 LINE"
);
}
);
width = 1336;
},
{
anchors = (
{
name = bottom;
position = "{354, 0}";
},
{
name = ogonek;
position = "{587, 10}";
},
{
name = top;
position = "{354, 708}";
},
{
name = topleft;
position = "{20, 708}";
}
);
layerId = "A5088515-37FF-452F-BD44-18A7A5EF88F0";
paths = (
{
closed = 1;
nodes = (
"592 0 LINE",
"558 243 LINE",
"543 243 LINE",
"565 83 LINE",
"572 32 OFFCURVE",
"560 15 OFFCURVE",
"515 15 CURVE",
"165 15 LINE",
"165 353 LINE",
"385 353 LINE",
"391 256 LINE",
"401 256 LINE",
"401 498 LINE",
"391 498 LINE",
"391 433 OFFCURVE",
"388 395 OFFCURVE",
"382 385 CURVE SMOOTH",
"376 374 OFFCURVE",
"366 368 OFFCURVE",
"354 368 CURVE",
"165 368 LINE",
"165 693 LINE",
"498 693 LINE",
"548 693 OFFCURVE",
"564 679 OFFCURVE",
"559 635 CURVE",
"543 484 LINE",
"558 484 LINE",
"592 708 LINE",
"80 708 LINE",
"80 698 LINE",
"150 683 LINE",
"150 25 LINE",
"80 10 LINE",
"80 0 LINE"
);
}
);
width = 667;
},
{
anchors = (
{
name = bottom;
position = "{548, 0}";
},
{
name = ogonek;
position = "{930, 10}";
},
{
name = top;
position = "{548, 708}";
},
{
name = topleft;
position = "{20, 708}";
}
);
layerId = "35A90D60-3AD4-435C-9F8B-D1CA483F6F66";
paths = (
{
closed = 1;
nodes = (
"941 0 LINE",
"907 243 LINE",
"892 243 LINE",
"913 91 LINE",
"921 34 OFFCURVE",
"909 15 OFFCURVE",
"864 15 CURVE SMOOTH",
"224 15 LINE",
"224 353 LINE",
"594 353 LINE",
"600 256 LINE",
"610 256 LINE",
"610 498 LINE",
"600 498 LINE",
"600 434 OFFCURVE",
"596 392 OFFCURVE",
"589 381 CURVE SMOOTH",
"585 373 OFFCURVE",
"575 368 OFFCURVE",
"563 368 CURVE SMOOTH",
"224 368 LINE",
"224 693 LINE",
"847 693 LINE SMOOTH",
"899 693 OFFCURVE",
"915 676 OFFCURVE",
"909 625 CURVE",
"892 484 LINE",
"907 484 LINE",
"941 708 LINE",
"100 708 LINE",
"100 698 LINE",
"209 683 LINE",
"209 25 LINE",
"100 10 LINE",
"100 0 LINE"
);
}
);
width = 1056;
}
);
leftKerningGroup = HH;
leftMetricsKey = H;
rightKerningGroup = E;
unicode = 0045;
},
{
color = 4;
glyphname = F;
lastChange = "2023-02-19 07:03:36 +0000";
layers = (
{
layerId = "2660E96A-9963-4076-AFCB-E451BC6EE103";
paths = (
{
closed = 1;
nodes = (
"365 0 LINE",
"365 10 LINE",
"315 20 LINE",
"315 356 LINE",
"325 356 LINE",
"481 246 LINE",
"491 246 LINE",
"491 506 LINE",
"481 506 LINE",
"475 485 OFFCURVE",
"442 438 OFFCURVE",
"408 404 CURVE SMOOTH",
"387 383 OFFCURVE",
"363 366 OFFCURVE",
"335 366 CURVE SMOOTH",
"315 366 LINE",
"315 693 LINE",
"397 693 LINE SMOOTH",
"429 693 OFFCURVE",
"479 659 OFFCURVE",
"512 598 CURVE SMOOTH",
"607 424 LINE",
"617 424 LINE",
"652 708 LINE",
"20 708 LINE",
"20 698 LINE",
"70 683 LINE",
"70 25 LINE",
"20 10 LINE",
"20 0 LINE"
);
}
);
width = 652;
},
{
layerId = "DF54607F-DD82-41E6-B2E3-81CA6D0E5C47";
paths = (
{
closed = 1;
nodes = (
"630 0 LINE",
"630 10 LINE",
"590 20 LINE",
"590 356 LINE",
"602 356 LINE",
"933 246 LINE",
"943 246 LINE",
"943 506 LINE",
"933 506 LINE",
"923 492 OFFCURVE",
"864 450 OFFCURVE",
"792 415 CURVE SMOOTH",
"737 388 OFFCURVE",
"674 366 OFFCURVE",
"623 366 CURVE SMOOTH",
"590 366 LINE",
"590 693 LINE",
"745 693 LINE SMOOTH",
"833 693 OFFCURVE",
"935 657 OFFCURVE",
"1025 579 CURVE SMOOTH",
"1202 424 LINE",
"1212 424 LINE",
"1286 708 LINE",
"20 708 LINE",
"20 698 LINE",
"70 688 LINE",
"70 20 LINE",
"20 10 LINE",
"20 0 LINE"
);
}
);
width = 1276;
},
{
layerId = "A5088515-37FF-452F-BD44-18A7A5EF88F0";
paths = (
{
closed = 1;
nodes = (
"235 0 LINE",
"235 10 LINE",
"165 25 LINE",
"165 353 LINE",
"405 353 LINE",
"411 256 LINE",
"421 256 LINE",
"421 498 LINE",
"411 498 LINE",
"411 433 OFFCURVE",
"408 395 OFFCURVE",
"402 385 CURVE SMOOTH",
"396 374 OFFCURVE",
"386 368 OFFCURVE",
"374 368 CURVE SMOOTH",
"165 368 LINE",
"165 693 LINE",
"498 693 LINE SMOOTH",
"548 693 OFFCURVE",
"564 679 OFFCURVE",
"559 635 CURVE SMOOTH",
"543 484 LINE",
"558 484 LINE",
"592 708 LINE",
"80 708 LINE",
"80 698 LINE",
"150 683 LINE",
"150 25 LINE",
"80 10 LINE",
"80 0 LINE"
);
}
);
width = 598;
},
{
layerId = "35A90D60-3AD4-435C-9F8B-D1CA483F6F66";
paths = (
{
closed = 1;
nodes = (
"342 0 LINE",
"342 10 LINE",
"224 25 LINE",
"224 353 LINE",
"614 353 LINE",
"620 256 LINE",
"630 256 LINE",
"630 498 LINE",
"620 498 LINE",
"620 434 OFFCURVE",
"616 392 OFFCURVE",
"609 381 CURVE SMOOTH",
"605 373 OFFCURVE",
"595 368 OFFCURVE",
"583 368 CURVE SMOOTH",
"224 368 LINE",
"224 693 LINE",
"847 693 LINE SMOOTH",
"899 693 OFFCURVE",
"915 676 OFFCURVE",
"909 625 CURVE SMOOTH",
"892 484 LINE",
"907 484 LINE",
"941 708 LINE",
"100 708 LINE",
"100 698 LINE",
"209 683 LINE",
"209 25 LINE",
"100 10 LINE",
"100 0 LINE"
);
}
);
width = 996;
}
);
leftKerningGroup = HH;
leftMetricsKey = H;
rightKerningGroup = F;
unicode = 0046;
},
{
color = 4;
glyphname = G;
lastChange = "2023-02-19 07:03:36 +0000";
layers = (
{
anchors = (
{
name = bottom;
position = "{416, 0}";
},
{
name = top;
position = "{395, 708}";
}
);
layerId = "2660E96A-9963-4076-AFCB-E451BC6EE103";
paths = (
{
closed = 1;
nodes = (
"485 271 LINE",
"485 0 LINE",
"483 0 OFFCURVE",
"481 0 OFFCURVE",
"478 0 CURVE SMOOTH",
"320 0 OFFCURVE",
"272 294 OFFCURVE",
"272 428 CURVE",
"272 574 OFFCURVE",
"309 711 OFFCURVE",
"374 711 CURVE SMOOTH",
"441 711 OFFCURVE",
"486 666 OFFCURVE",
"561 509 CURVE SMOOTH",
"621 384 LINE",
"641 384 LINE",
"701 660 LINE",
"644 685 OFFCURVE",
"535 723 OFFCURVE",
"425 723 CURVE SMOOTH",
"178 723 OFFCURVE",
"30 584 OFFCURVE",
"30 352 CURVE SMOOTH",
"30 120 OFFCURVE",
"198 -15 OFFCURVE",
"403 -15 CURVE SMOOTH",
"509 -15 OFFCURVE",
"648 21 OFFCURVE",
"730 127 CURVE",
"730 306 LINE",
"365 306 LINE",
"365 296 LINE"
);
}
);
width = 760;
},
{
anchors = (
{
name = bottom;
position = "{831, 0}";
},
{
name = top;
position = "{771, 708}";
}
);
layerId = "DF54607F-DD82-41E6-B2E3-81CA6D0E5C47";
paths = (
{
closed = 1;
nodes = (
"972 271 LINE",
"972 0 LINE",
"965 0 OFFCURVE",
"958 0 OFFCURVE",
"951 0 CURVE SMOOTH",
"630 0 OFFCURVE",
"562 275 OFFCURVE",
"562 408 CURVE",
"562 554 OFFCURVE",
"608 711 OFFCURVE",
"743 711 CURVE SMOOTH",
"881 711 OFFCURVE",
"970 668 OFFCURVE",
"1120 518 CURVE SMOOTH",
"1254 384 LINE",
"1296 384 LINE",
"1460 660 LINE",
"1342 685 OFFCURVE",
"1076 723 OFFCURVE",
"848 723 CURVE SMOOTH",
"337 723 OFFCURVE",
"30 584 OFFCURVE",
"30 352 CURVE SMOOTH",
"30 120 OFFCURVE",
"378 -15 OFFCURVE",
"803 -15 CURVE SMOOTH",
"1022 -15 OFFCURVE",
"1322 21 OFFCURVE",
"1492 127 CURVE",
"1492 306 LINE",
"724 306 LINE",
"724 296 LINE"
);
}
);
width = 1522;
},
{
anchors = (
{
name = bottom;
position = "{394, 0}";
},
{
name = top;
position = "{378, 708}";
}
);
layerId = "A5088515-37FF-452F-BD44-18A7A5EF88F0";
paths = (
{
closed = 1;
nodes = (
"608 281 LINE",
"608 48 LINE",
"529 15 OFFCURVE",
"457 0 OFFCURVE",
"394 0 CURVE SMOOTH",
"209 0 OFFCURVE",
"95 135 OFFCURVE",
"95 370 CURVE SMOOTH",
"95 567 OFFCURVE",
"211 708 OFFCURVE",
"378 708 CURVE SMOOTH",
"531 708 OFFCURVE",
"635 646 OFFCURVE",
"612 505 CURVE SMOOTH",
"592 384 LINE",
"608 384 LINE",
"655 616 LINE",
"580 687 OFFCURVE",
"498 723 OFFCURVE",
"378 723 CURVE SMOOTH",
"203 723 OFFCURVE",
"80 577 OFFCURVE",
"80 370 CURVE SMOOTH",
"80 128 OFFCURVE",
"195 -15 OFFCURVE",
"389 -15 CURVE SMOOTH",
"467 -15 OFFCURVE",
"557 9 OFFCURVE",
"623 47 CURVE",
"623 306 LINE",
"498 306 LINE",
"498 296 LINE"
);
}
);
width = 735;
},
{
anchors = (
{
name = bottom;
position = "{558, 0}";
},
{
name = top;
position = "{558, 708}";
}
);
layerId = "35A90D60-3AD4-435C-9F8B-D1CA483F6F66";
paths = (
{
closed = 1;
nodes = (
"939 281 LINE",
"939 48 LINE",
"814 15 OFFCURVE",
"699 0 OFFCURVE",
"597 0 CURVE SMOOTH",
"297 0 OFFCURVE",
"105 134 OFFCURVE",
"105 370 CURVE SMOOTH",
"105 568 OFFCURVE",
"298 708 OFFCURVE",
"564 708 CURVE SMOOTH",
"794 708 OFFCURVE",
"978 636 OFFCURVE",
"954 542 CURVE SMOOTH",
"914 384 LINE",
"930 384 LINE",
"1005 616 LINE",
"886 687 OFFCURVE",
"755 723 OFFCURVE",
"564 723 CURVE SMOOTH",
"286 723 OFFCURVE",
"90 577 OFFCURVE",
"90 370 CURVE SMOOTH",
"90 128 OFFCURVE",
"273 -15 OFFCURVE",
"582 -15 CURVE SMOOTH",
"719 -15 OFFCURVE",
"842 6 OFFCURVE",
"954 47 CURVE",
"954 306 LINE",
"755 306 LINE",
"755 296 LINE"
);
}
);
width = 1095;
}
);
leftKerningGroup = OO;
leftMetricsKey = O;
rightKerningGroup = G;
rightMetricsKey = O;
unicode = 0047;
},
{
color = 4;
glyphname = H;
lastChange = "2023-02-19 07:03:36 +0000";
layers = (
{
layerId = "2660E96A-9963-4076-AFCB-E451BC6EE103";
paths = (
{
closed = 1;
nodes = (
"495 708 LINE",
"495 698 LINE",
"535 688 LINE",
"535 20 LINE",
"495 10 LINE",
"495 0 LINE",
"830 0 LINE",
"830 10 LINE",
"780 20 LINE",
"780 688 LINE",
"830 698 LINE",
"830 708 LINE"
);
},
{
closed = 1;
nodes = (
"20 708 LINE",
"20 698 LINE",
"70 688 LINE",
"70 20 LINE",
"20 10 LINE",
"20 0 LINE",
"355 0 LINE",
"355 10 LINE",
"315 20 LINE",
"315 688 LINE",
"355 698 LINE",
"355 708 LINE"
);
},
{
closed = 1;
nodes = (
"303 340 LINE",
"303 330 LINE",
"545 330 LINE",
"545 360 LINE"
);
}
);
width = 850;
},
{
layerId = "DF54607F-DD82-41E6-B2E3-81CA6D0E5C47";
paths = (
{
closed = 1;
nodes = (
"770 708 LINE",
"770 698 LINE",
"810 688 LINE",
"810 20 LINE",
"770 10 LINE",
"770 0 LINE",
"1380 0 LINE",
"1380 10 LINE",
"1330 20 LINE",
"1330 688 LINE",
"1380 698 LINE",
"1380 708 LINE"
);
},
{
closed = 1;
nodes = (
"20 708 LINE",
"20 698 LINE",
"70 688 LINE",
"70 20 LINE",
"20 10 LINE",
"20 0 LINE",
"630 0 LINE",
"630 10 LINE",
"590 20 LINE",
"590 688 LINE",
"630 698 LINE",
"630 708 LINE"
);
},
{
closed = 1;
nodes = (
"578 340 LINE",
"578 330 LINE",
"820 330 LINE",
"820 360 LINE"
);
}
);
width = 1400;
},
{
layerId = "A5088515-37FF-452F-BD44-18A7A5EF88F0";
paths = (
{
closed = 1;
nodes = (
"545 708 LINE",
"545 698 LINE",
"615 683 LINE",
"615 25 LINE",
"545 10 LINE",
"545 0 LINE",
"700 0 LINE",
"700 10 LINE",
"630 25 LINE",
"630 683 LINE",
"700 698 LINE",
"700 708 LINE"
);
},
{
closed = 1;
nodes = (
"80 708 LINE",
"80 698 LINE",
"150 683 LINE",
"150 25 LINE",
"80 10 LINE",
"80 0 LINE",
"235 0 LINE",
"235 10 LINE",
"165 25 LINE",
"165 683 LINE",
"235 698 LINE",
"235 708 LINE"
);
},
{
closed = 1;
nodes = (
"159 342 LINE",
"159 332 LINE",
"620 332 LINE",
"620 348 LINE"
);
}
);
width = 780;
},
{
layerId = "35A90D60-3AD4-435C-9F8B-D1CA483F6F66";
paths = (
{
closed = 1;
nodes = (
"836 708 LINE",
"836 693 LINE",
"945 683 LINE",
"945 25 LINE",
"836 10 LINE",
"836 0 LINE",
"1070 0 LINE",
"1070 10 LINE",
"960 25 LINE",
"960 683 LINE",
"1070 698 LINE",
"1070 708 LINE"
);
},
{
closed = 1;
nodes = (
"100 708 LINE",
"100 698 LINE",
"210 683 LINE",
"210 25 LINE",
"100 10 LINE",
"100 0 LINE",
"334 0 LINE",
"334 10 LINE",
"225 25 LINE",
"225 683 LINE",
"334 693 LINE",
"334 708 LINE"
);
},
{
closed = 1;
nodes = (
"217 342 LINE",
"217 332 LINE",
"948 332 LINE",
"948 348 LINE"
);
}
);
width = 1170;
}
);
leftKerningGroup = HH;
rightKerningGroup = H;
unicode = 0048;
},
{
color = 5;
glyphname = Hbar;
lastChange = "2023-02-19 07:03:36 +0000";
layers = (
{
components = (
{
name = H;
}
);
layerId = "DF54607F-DD82-41E6-B2E3-81CA6D0E5C47";
paths = (
{
closed = 1;
nodes = (
"9 523 LINE",
"1390 523 LINE",
"1390 538 LINE",
"9 538 LINE"
);
}
);
width = 1400;
},
{
components = (
{
name = H;
}
);
layerId = "A5088515-37FF-452F-BD44-18A7A5EF88F0";
paths = (
{
closed = 1;
nodes = (
"60 523 LINE",
"720 523 LINE",
"720 538 LINE",
"60 538 LINE"
);
}
);
width = 780;
},
{
components = (
{
name = H;
}
);
layerId = "2660E96A-9963-4076-AFCB-E451BC6EE103";
paths = (
{
closed = 1;
nodes = (
"9 523 LINE",
"840 523 LINE",
"840 538 LINE",
"9 538 LINE"
);
}
);
width = 850;
},
{
components = (
{
name = H;
}
);
layerId = "35A90D60-3AD4-435C-9F8B-D1CA483F6F66";
paths = (
{
closed = 1;
nodes = (
"60 523 LINE",
"1110 523 LINE",
"1110 538 LINE",
"60 538 LINE"
);
}
);
width = 1170;
}
);
leftKerningGroup = HH;
rightKerningGroup = H;
unicode = 0126;
},
{
color = 4;
glyphname = I;
lastChange = "2023-02-19 07:03:36 +0000";
layers = (
{
anchors = (
{
name = bottom;
position = "{193, 0}";
},
{
name = ogonek;
position = "{360, 10}";
},
{
name = top;
position = "{193, 708}";
},
{
name = topleft;
position = "{20, 708}";
}
);
layerId = "2660E96A-9963-4076-AFCB-E451BC6EE103";
paths = (
{
closed = 1;
nodes = (
"20 708 LINE",
"20 698 LINE",
"70 688 LINE",
"70 20 LINE",
"20 10 LINE",
"20 0 LINE",
"365 0 LINE",
"365 10 LINE",
"315 20 LINE",
"315 688 LINE",
"365 698 LINE",
"365 708 LINE"
);
}
);
width = 385;
},
{
anchors = (
{
name = bottom;
position = "{330, 0}";
},
{
name = ogonek;
position = "{635, 10}";
},
{
name = top;
position = "{330, 708}";
},
{
name = topleft;
position = "{20, 708}";
}
);
layerId = "DF54607F-DD82-41E6-B2E3-81CA6D0E5C47";
paths = (
{
closed = 1;
nodes = (
"20 708 LINE",
"20 698 LINE",
"70 688 LINE",
"70 20 LINE",
"20 10 LINE",
"20 0 LINE",
"640 0 LINE",
"640 10 LINE",
"590 20 LINE",
"590 688 LINE",
"640 698 LINE",
"640 708 LINE"
);
}
);
width = 660;
},
{
anchors = (
{
name = bottom;
position = "{158, 0}";
},
{
name = ogonek;
position = "{230, 10}";
},
{
name = top;
position = "{158, 708}";
},
{
name = topleft;
position = "{20, 708}";
}
);
layerId = "A5088515-37FF-452F-BD44-18A7A5EF88F0";
paths = (
{
closed = 1;
nodes = (
"80 708 LINE",
"80 698 LINE",
"150 683 LINE",
"150 25 LINE",
"80 10 LINE",
"80 0 LINE",
"235 0 LINE",
"235 10 LINE",
"165 25 LINE",
"165 683 LINE",
"235 698 LINE",
"235 708 LINE"
);
}
);
width = 315;
},
{
anchors = (
{
name = bottom;
position = "{217, 0}";
},
{
name = ogonek;
position = "{324, 10}";
},
{
name = top;
position = "{217, 708}";
},
{
name = topleft;
position = "{20, 708}";
}
);
layerId = "35A90D60-3AD4-435C-9F8B-D1CA483F6F66";
paths = (
{
closed = 1;
nodes = (
"100 708 LINE",
"100 698 LINE",
"209 683 LINE",
"209 25 LINE",
"100 10 LINE",
"100 0 LINE",
"334 0 LINE",
"334 10 LINE",
"224 25 LINE",
"224 683 LINE",
"334 698 LINE",
"334 708 LINE"
);
}
);
width = 434;
}
);
leftKerningGroup = HH;
leftMetricsKey = H;
rightKerningGroup = H;
rightMetricsKey = H;
unicode = 0049;
},
{
color = 4;
glyphname = J;
lastChange = "2023-02-19 07:20:40 +0000";
layers = (
{
layerId = "2660E96A-9963-4076-AFCB-E451BC6EE103";
paths = (
{
closed = 1;
nodes = (
"449 -15 OFFCURVE",
"537 27 OFFCURVE",
"537 225 CURVE",
"537 708 LINE",
"202 708 LINE",
"202 698 LINE",
"292 688 LINE",
"292 262 LINE",
"316 28 OFFCURVE",
"253 0 OFFCURVE",
"191 0 CURVE SMOOTH {name = \"❌\";}",
"152 0 OFFCURVE",
"116 16 OFFCURVE",
"116 28 CURVE SMOOTH",
"116 66 OFFCURVE",
"248 60 OFFCURVE",
"248 154 CURVE SMOOTH",
"248 195 OFFCURVE",
"202 223 OFFCURVE",
"144 223 CURVE SMOOTH",
"76 223 OFFCURVE",
"1 196 OFFCURVE",
"1 121 CURVE SMOOTH",
"1 36 OFFCURVE",
"102 -15 OFFCURVE",
"272 -15 CURVE"
);
}
);
width = 597;
},
{
layerId = "DF54607F-DD82-41E6-B2E3-81CA6D0E5C47";
paths = (
{
closed = 1;
nodes = (
"901 -15 OFFCURVE",
"1088 34 OFFCURVE",
"1088 225 CURVE",
"1088 708 LINE",
"478 708 LINE",
"478 698 LINE",
"568 688 LINE",
"568 262 LINE",
"599 28 OFFCURVE",
"536 0 OFFCURVE",
"404 0 CURVE SMOOTH",
"321 0 OFFCURVE",
"245 16 OFFCURVE",
"245 28 CURVE SMOOTH",
"245 64 OFFCURVE",
"525 63 OFFCURVE",
"525 154 CURVE SMOOTH",
"525 195 OFFCURVE",
"427 223 OFFCURVE",
"304 223 CURVE SMOOTH",
"160 223 OFFCURVE",
"1 196 OFFCURVE",
"1 121 CURVE SMOOTH",
"1 36 OFFCURVE",
"215 -15 OFFCURVE",
"526 -15 CURVE"
);
}
);
width = 1148;
},
{
layerId = "A5088515-37FF-452F-BD44-18A7A5EF88F0";
paths = (
{
closed = 1;
nodes = (
"278 -15 OFFCURVE",
"325 63 OFFCURVE",
"315 222 CURVE",
"315 708 LINE",
"200 708 LINE",
"200 698 LINE",
"300 683 LINE",
"300 222 LINE",
"310 73 OFFCURVE",
"268 0 OFFCURVE",
"179 0 CURVE SMOOTH",
"97 0 OFFCURVE",
"62 61 OFFCURVE",
"62 70 CURVE SMOOTH",
"62 132 OFFCURVE",
"167 72 OFFCURVE",
"167 154 CURVE SMOOTH",
"167 183 OFFCURVE",
"137 195 OFFCURVE",
"110 195 CURVE SMOOTH",
"63 195 OFFCURVE",
"45 160 OFFCURVE",
"45 119 CURVE SMOOTH",
"45 66 OFFCURVE",
"89 -15 OFFCURVE",
"179 -15 CURVE SMOOTH"
);
}
);
width = 396;
},
{
layerId = "35A90D60-3AD4-435C-9F8B-D1CA483F6F66";
paths = (
{
closed = 1;
nodes = (
"563 -15 OFFCURVE",
"638 63 OFFCURVE",
"626 222 CURVE",
"626 708 LINE",
"393 708 LINE",
"393 698 LINE",
"611 683 LINE",
"611 222 LINE",
"622 73 OFFCURVE",
"542 0 OFFCURVE",
"347 0 CURVE SMOOTH",
"177 0 OFFCURVE",
"102 61 OFFCURVE",
"102 70 CURVE SMOOTH",
"102 133 OFFCURVE",
"311 68 OFFCURVE",
"311 154 CURVE SMOOTH",
"311 183 OFFCURVE",
"255 195 OFFCURVE",
"197 195 CURVE SMOOTH",
"94 195 OFFCURVE",
"65 160 OFFCURVE",
"65 119 CURVE SMOOTH",
"65 66 OFFCURVE",
"161 -15 OFFCURVE",
"347 -15 CURVE SMOOTH"
);
}
);
width = 757;
}
);
leftKerningGroup = J;
rightKerningGroup = JJ;
unicode = 004A;
},
{
color = 4;
glyphname = K;
lastChange = "2023-02-19 07:03:36 +0000";
layers = (
{
anchors = (
{
name = bottom;
position = "{412, 0}";
},
{
name = top;
position = "{382, 708}";
}
);
layerId = "2660E96A-9963-4076-AFCB-E451BC6EE103";
paths = (
{
closed = 1;
nodes = (
"644 -15 OFFCURVE",
"698 -14 OFFCURVE",
"745 22 CURVE",
"745 32 LINE",
"739 32 OFFCURVE",
"733 34 OFFCURVE",
"727 38 CURVE SMOOTH",
"692 61 OFFCURVE",
"667 99 OFFCURVE",
"629 189 CURVE SMOOTH",
"578 307 OFFCURVE",
"509 346 OFFCURVE",
"351 346 CURVE",
"351 351 LINE",
"397 351 OFFCURVE",
"505 395 OFFCURVE",
"588 471 CURVE SMOOTH",
"650 527 OFFCURVE",
"699 601 OFFCURVE",
"699 688 CURVE",
"749 698 LINE",
"749 708 LINE",
"395 708 LINE",
"395 698 LINE",
"452 698 OFFCURVE",
"477 661 OFFCURVE",
"477 611 CURVE SMOOTH",
"477 571 OFFCURVE",
"464 522 OFFCURVE",
"442 478 CURVE SMOOTH",
"416 424 OFFCURVE",
"379 378 OFFCURVE",
"339 364 CURVE SMOOTH",
"331 361 OFFCURVE",
"323 360 OFFCURVE",
"315 360 CURVE",
"315 708 LINE",
"20 708 LINE",
"20 698 LINE",
"70 688 LINE",
"70 20 LINE",
"20 10 LINE",
"20 0 LINE",
"365 0 LINE",
"365 10 LINE",
"315 20 LINE",
"315 346 LINE",
"332 346 LINE",
"369 218 OFFCURVE",
"405 130 OFFCURVE",
"439 78 CURVE SMOOTH",
"486 8 OFFCURVE",
"527 -15 OFFCURVE",
"603 -15 CURVE SMOOTH"
);
}
);
width = 764;
},
{
anchors = (
{
name = bottom;
position = "{765, 0}";
},
{
name = top;
position = "{695, 708}";
}
);
layerId = "DF54607F-DD82-41E6-B2E3-81CA6D0E5C47";
paths = (
{
closed = 1;
nodes = (
"1260 -15 OFFCURVE",
"1375 -14 OFFCURVE",
"1475 22 CURVE",
"1475 32 LINE",
"1466 32 OFFCURVE",
"1456 34 OFFCURVE",
"1446 37 CURVE SMOOTH",
"1399 52 OFFCURVE",
"1341 94 OFFCURVE",
"1237 189 CURVE SMOOTH",
"1109 307 OFFCURVE",
"979 346 OFFCURVE",
"719 346 CURVE",
"719 351 LINE",
"859 351 OFFCURVE",
"1015 384 OFFCURVE",
"1154 444 CURVE SMOOTH",
"1297 506 OFFCURVE",
"1377 594 OFFCURVE",
"1377 688 CURVE",
"1428 698 LINE",
"1428 708 LINE",
"761 708 LINE",
"761 698 LINE",
"827 698 OFFCURVE",
"862 665 OFFCURVE",
"862 619 CURVE SMOOTH",
"862 576 OFFCURVE",
"840 520 OFFCURVE",
"805 473 CURVE SMOOTH",
"759 413 OFFCURVE",
"690 371 OFFCURVE",
"624 362 CURVE SMOOTH",
"613 361 OFFCURVE",
"602 360 OFFCURVE",
"591 360 CURVE",
"591 708 LINE",
"20 708 LINE",
"20 698 LINE",
"71 688 LINE",
"71 20 LINE",
"20 10 LINE",
"20 0 LINE",
"641 0 LINE",
"641 10 LINE",
"591 20 LINE",
"591 346 LINE",
"608 346 LINE",
"686 220 OFFCURVE",
"756 134 OFFCURVE",
"835 78 CURVE SMOOTH",
"926 13 OFFCURVE",
"1029 -15 OFFCURVE",
"1173 -15 CURVE SMOOTH"
);
}
);
width = 1490;
},
{
anchors = (
{
name = bottom;
position = "{383, 0}";
},
{
name = top;
position = "{323, 708}";
}
);
layerId = "A5088515-37FF-452F-BD44-18A7A5EF88F0";
paths = (
{
closed = 1;
nodes = (
"637 -15 OFFCURVE",
"648 -13 OFFCURVE",
"660 -4 CURVE",
"660 6 LINE",
"652 2 OFFCURVE",
"644 0 OFFCURVE",
"637 0 CURVE SMOOTH",
"605 0 OFFCURVE",
"573 45 OFFCURVE",
"510 180 CURVE SMOOTH",
"457 294 OFFCURVE",
"400 341 OFFCURVE",
"305 351 CURVE",
"305 356 LINE",
"366 371 OFFCURVE",
"420 418 OFFCURVE",
"461 474 CURVE SMOOTH",
"514 546 OFFCURVE",
"541 633 OFFCURVE",
"541 683 CURVE",
"608 698 LINE",
"608 708 LINE",
"455 708 LINE",
"455 698 LINE",
"498 698 OFFCURVE",
"522 684 OFFCURVE",
"522 658 CURVE SMOOTH",
"522 618 OFFCURVE",
"495 547 OFFCURVE",
"450 484 CURVE SMOOTH",
"401 417 OFFCURVE",
"332 360 OFFCURVE",
"255 358 CURVE SMOOTH",
"225 357 OFFCURVE",
"195 356 OFFCURVE",
"165 356 CURVE",
"165 708 LINE",
"80 708 LINE",
"80 698 LINE",
"150 683 LINE",
"150 25 LINE",
"80 10 LINE",
"80 0 LINE",
"235 0 LINE",
"235 10 LINE",
"165 25 LINE",
"165 343 LINE",
"241 343 LINE SMOOTH",
"372 343 OFFCURVE",
"436 300 OFFCURVE",
"495 171 CURVE SMOOTH",
"561 32 OFFCURVE",
"594 -15 OFFCURVE",
"627 -15 CURVE SMOOTH"
);
}
);
width = 665;
},
{
anchors = (
{
name = bottom;
position = "{554, 0}";
},
{
name = top;
position = "{474, 708}";
}
);
layerId = "35A90D60-3AD4-435C-9F8B-D1CA483F6F66";
paths = (
{
closed = 1;
nodes = (
"981 -15 OFFCURVE",
"999 -13 OFFCURVE",
"1018 -4 CURVE",
"1018 6 LINE",
"1005 2 OFFCURVE",
"992 0 OFFCURVE",
"981 0 CURVE SMOOTH",
"924 0 OFFCURVE",
"871 45 OFFCURVE",
"768 180 CURVE SMOOTH",
"712 255 OFFCURVE",
"649 338 OFFCURVE",
"449 351 CURVE",
"449 356 LINE",
"540 373 OFFCURVE",
"629 416 OFFCURVE",
"697 475 CURVE SMOOTH",
"773 540 OFFCURVE",
"827 626 OFFCURVE",
"827 683 CURVE",
"935 698 LINE",
"935 708 LINE",
"689 708 LINE",
"689 698 LINE",
"762 698 OFFCURVE",
"803 683 OFFCURVE",
"803 657 CURVE SMOOTH",
"803 612 OFFCURVE",
"747 532 OFFCURVE",
"675 475 CURVE SMOOTH",
"595 411 OFFCURVE",
"461 360 OFFCURVE",
"369 358 CURVE SMOOTH",
"320 357 OFFCURVE",
"260 356 OFFCURVE",
"224 356 CURVE",
"224 708 LINE",
"100 708 LINE",
"100 698 LINE",
"209 683 LINE",
"209 25 LINE",
"100 10 LINE",
"100 0 LINE",
"337 0 LINE",
"337 10 LINE",
"224 25 LINE",
"224 343 LINE",
"346 343 LINE SMOOTH",
"615 343 OFFCURVE",
"689 258 OFFCURVE",
"753 171 CURVE SMOOTH",
"858 32 OFFCURVE",
"911 -15 OFFCURVE",
"965 -15 CURVE SMOOTH"
);
}
);
width = 1088;
}
);
leftKerningGroup = HH;
leftMetricsKey = H;
rightKerningGroup = K;
unicode = 004B;
},
{
color = 4;
glyphname = L;
lastChange = "2023-02-19 07:03:36 +0000";
layers = (
{
anchors = (
{
name = bottom;
position = "{344, 0}";
},
{
name = center;
position = "{194, 354}";
},
{
name = top;
position = "{194, 708}";
},
{
name = topright;
position = "{537, 723}";
}
);
layerId = "2660E96A-9963-4076-AFCB-E451BC6EE103";
paths = (
{
closed = 1;
nodes = (
"632 0 LINE",
"597 304 LINE",
"577 304 LINE",
"525 180 LINE SMOOTH",
"475 61 OFFCURVE",
"434 15 OFFCURVE",
"377 15 CURVE",
"315 15 LINE",
"315 688 LINE",
"366 698 LINE",
"366 708 LINE",
"20 708 LINE",
"20 698 LINE",
"70 688 LINE",
"70 20 LINE",
"20 10 LINE",
"20 0 LINE"
);
}
);
width = 647;
},
{
anchors = (
{
name = bottom;
position = "{574, 0}";
},
{
name = center;
position = "{334, 354}";
},
{
name = top;
position = "{334, 708}";
},
{
name = topright;
position = "{928, 723}";
}
);
layerId = "DF54607F-DD82-41E6-B2E3-81CA6D0E5C47";
paths = (
{
closed = 1;
nodes = (
"1153 0 LINE",
"1118 404 LINE",
"1098 404 LINE",
"988 248 LINE SMOOTH",
"869 80 OFFCURVE",
"762 15 OFFCURVE",
"602 15 CURVE",
"590 15 LINE",
"590 688 LINE",
"641 698 LINE",
"641 708 LINE",
"20 708 LINE",
"20 698 LINE",
"70 688 LINE",
"70 20 LINE",
"20 10 LINE",
"20 0 LINE"
);
}
);
width = 1168;
},
{
anchors = (
{
name = bottom;
position = "{341, 0}";
},
{
name = center;
position = "{161, 354}";
},
{
name = top;
position = "{161, 708}";
},
{
name = topright;
position = "{502, 723}";
}
);
layerId = "A5088515-37FF-452F-BD44-18A7A5EF88F0";
paths = (
{
closed = 1;
nodes = (
"552 0 LINE",
"528 243 LINE",
"513 243 LINE",
"520 115 LINE SMOOTH",
"524 42 OFFCURVE",
"503 15 OFFCURVE",
"467 15 CURVE",
"165 15 LINE",
"165 688 LINE",
"235 698 LINE",
"235 708 LINE",
"80 708 LINE",
"80 698 LINE",
"150 688 LINE",
"150 20 LINE",
"80 10 LINE",
"80 0 LINE"
);
}
);
width = 602;
},
{
anchors = (
{
name = bottom;
position = "{506, 0}";
},
{
name = center;
position = "{216, 354}";
},
{
name = top;
position = "{216, 708}";
},
{
name = topright;
position = "{782, 723}";
}
);
layerId = "35A90D60-3AD4-435C-9F8B-D1CA483F6F66";
paths = (
{
closed = 1;
nodes = (
"855 0 LINE",
"831 243 LINE",
"816 243 LINE",
"823 130 LINE SMOOTH",
"828 46 OFFCURVE",
"808 15 OFFCURVE",
"770 15 CURVE SMOOTH",
"224 15 LINE",
"224 688 LINE",
"334 698 LINE",
"334 708 LINE",
"100 708 LINE",
"100 698 LINE",
"209 688 LINE",
"209 20 LINE",
"100 10 LINE",
"100 0 LINE"
);
}
);
width = 952;
}
);
leftKerningGroup = HH;
leftMetricsKey = H;
rightKerningGroup = L;
unicode = 004C;
},
{
color = 5;
glyphname = Lslash;
lastChange = "2023-02-19 07:03:36 +0000";
layers = (
{
components = (
{
name = L;
}
);
layerId = "DF54607F-DD82-41E6-B2E3-81CA6D0E5C47";
paths = (
{
closed = 1;
nodes = (
"761 561 LINE",
"754 572 LINE",
"-2 264 LINE",
"4 254 LINE"
);
}
);
width = 1168;
},
{
components = (
{
name = L;
}
);
layerId = "A5088515-37FF-452F-BD44-18A7A5EF88F0";
paths = (
{
closed = 1;
nodes = (
"299 456 LINE",
"292 467 LINE",
"51 333 LINE",
"57 323 LINE"
);
}
);
width = 602;
},
{
components = (
{
name = L;
}
);
layerId = "2660E96A-9963-4076-AFCB-E451BC6EE103";
paths = (
{
closed = 1;
nodes = (
"412 518 LINE",
"405 529 LINE",
"14 312 LINE",
"20 302 LINE"
);
}
);
width = 647;
},
{
components = (
{
name = L;
}
);
layerId = "35A90D60-3AD4-435C-9F8B-D1CA483F6F66";
paths = (
{
closed = 1;
nodes = (
"429 500 LINE",
"422 511 LINE",
"101 333 LINE",
"107 323 LINE"
);
}
);
width = 952;
}
);
leftKerningGroup = HH;
rightKerningGroup = L;
unicode = 0141;
},
{
color = 4;
glyphname = M;
lastChange = "2023-02-19 07:03:36 +0000";
layers = (
{
layerId = "2660E96A-9963-4076-AFCB-E451BC6EE103";
paths = (
{
closed = 1;
nodes = (
"294 0 LINE",
"294 10 LINE",
"154 60 OFFCURVE",
"100 408 OFFCURVE",
"100 561 CURVE SMOOTH",
"100 566 LINE",
"115 566 LINE",
"370 0 LINE",
"506 0 LINE",
"663 592 LINE",
"678 592 LINE",
"678 20 LINE",
"617 10 LINE",
"617 0 LINE",
"973 0 LINE",
"973 10 LINE",
"923 20 LINE",
"923 688 LINE",
"973 698 LINE",
"973 708 LINE",
"648 708 LINE",
"549 216 LINE",
"561 238 LINE",
"524 238 LINE",
"543 215 LINE",
"334 708 LINE",
"14 708 LINE",
"14 698 LINE",
"85 686 LINE",
"85 20 LINE",
"5 10 LINE",
"5 0 LINE"
);
}
);
width = 978;
},
{
layerId = "DF54607F-DD82-41E6-B2E3-81CA6D0E5C47";
paths = (
{
closed = 1;
nodes = (
"393 0 LINE",
"393 10 LINE",
"200 53 OFFCURVE",
"95 359 OFFCURVE",
"95 561 CURVE SMOOTH",
"95 566 LINE",
"118 566 LINE",
"509 0 LINE",
"789 0 LINE",
"981 592 LINE",
"1004 592 LINE",
"1004 20 LINE",
"943 10 LINE",
"943 0 LINE",
"1575 0 LINE",
"1575 10 LINE",
"1524 20 LINE",
"1524 688 LINE",
"1601 698 LINE",
"1601 708 LINE",
"988 708 LINE",
"845 219 LINE",
"858 238 LINE",
"830 238 LINE",
"853 218 LINE",
"534 708 LINE",
"19 708 LINE",
"19 698 LINE",
"85 686 LINE",
"85 20 LINE",
"5 10 LINE",
"5 0 LINE"
);
}
);
width = 1606;
},
{
layerId = "A5088515-37FF-452F-BD44-18A7A5EF88F0";
paths = (
{
closed = 1;
nodes = (
"305 0 LINE",
"305 10 LINE",
"187 10 OFFCURVE",
"165 22 OFFCURVE",
"165 122 CURVE",
"165 610 LINE",
"182 610 LINE",
"471 0 LINE",
"497 0 LINE",
"760 610 LINE",
"776 610 LINE",
"776 25 LINE",
"706 10 LINE",
"706 0 LINE",
"861 0 LINE",
"861 10 LINE",
"791 25 LINE",
"791 683 LINE",
"861 698 LINE",
"861 708 LINE",
"787 708 LINE",
"486 12 LINE",
"495 21 LINE",
"472 21 LINE",
"481 12 LINE",
"151 708 LINE",
"80 708 LINE",
"80 698 LINE",
"150 683 LINE",
"150 25 LINE",
"80 10 LINE",
"80 0 LINE"
);
}
);
width = 911;
},
{
layerId = "35A90D60-3AD4-435C-9F8B-D1CA483F6F66";
paths = (
{
closed = 1;
nodes = (
"407 0 LINE",
"407 10 LINE",
"236 10 OFFCURVE",
"204 22 OFFCURVE",
"204 122 CURVE",
"204 622 LINE",
"228 622 LINE",
"645 0 LINE",
"664 0 LINE",
"1037 622 LINE",
"1056 622 LINE",
"1056 25 LINE",
"947 10 LINE",
"947 0 LINE",
"1181 0 LINE",
"1181 10 LINE",
"1071 25 LINE",
"1071 683 LINE",
"1181 698 LINE",
"1181 708 LINE",
"1071 708 LINE",
"653 12 LINE",
"664 21 LINE",
"644 21 LINE",
"655 12 LINE",
"189 708 LINE",
"80 708 LINE",
"80 698 LINE",
"189 683 LINE",
"189 25 LINE",
"80 10 LINE",
"80 0 LINE"
);
}
);
width = 1261;
}
);
leftKerningGroup = HH;
leftMetricsKey = N;
rightKerningGroup = H;
rightMetricsKey = N;
unicode = 004D;
},
{
color = 4;
glyphname = N;
lastChange = "2023-02-19 07:03:36 +0000";
layers = (
{
anchors = (
{
name = bottom;
position = "{388, 0}";
},
{
name = top;
position = "{378, 708}";
}
);
layerId = "2660E96A-9963-4076-AFCB-E451BC6EE103";
paths = (
{
closed = 1;
nodes = (
"354 0 LINE",
"354 10 LINE",
"163 126 OFFCURVE",
"90 330 OFFCURVE",
"90 569 CURVE SMOOTH",
"90 574 LINE",
"105 574 LINE",
"536 0 LINE",
"667 0 LINE",
"667 688 LINE",
"751 698 LINE",
"751 708 LINE",
"432 708 LINE",
"432 698 LINE",
"576 623 OFFCURVE",
"652 441 OFFCURVE",
"652 267 CURVE SMOOTH",
"652 262 LINE",
"635 262 LINE",
"307 708 LINE",
"5 708 LINE",
"5 698 LINE",
"50 672 OFFCURVE",
"75 639 OFFCURVE",
"75 605 CURVE",
"75 20 LINE",
"5 10 LINE",
"5 0 LINE"
);
}
);
width = 756;
},
{
anchors = (
{
name = bottom;
position = "{667, 0}";
},
{
name = top;
position = "{657, 708}";
}
);
layerId = "DF54607F-DD82-41E6-B2E3-81CA6D0E5C47";
paths = (
{
closed = 1;
nodes = (
"636 0 LINE",
"636 10 LINE",
"360 132 OFFCURVE",
"92 260 OFFCURVE",
"92 569 CURVE SMOOTH",
"92 574 LINE",
"104 574 LINE",
"906 0 LINE",
"1224 0 LINE",
"1224 688 LINE",
"1308 698 LINE",
"1308 708 LINE",
"754 708 LINE",
"754 698 LINE",
"947 628 OFFCURVE",
"1207 472 OFFCURVE",
"1207 267 CURVE SMOOTH",
"1207 262 LINE",
"1195 262 LINE",
"568 708 LINE",
"5 708 LINE",
"5 698 LINE",
"52 671 OFFCURVE",
"75 640 OFFCURVE",
"75 605 CURVE",
"75 20 LINE",
"5 10 LINE",
"5 0 LINE"
);
}
);
width = 1313;
},
{
anchors = (
{
name = bottom;
position = "{436, 0}";
},
{
name = top;
position = "{416, 708}";
}
);
layerId = "A5088515-37FF-452F-BD44-18A7A5EF88F0";
paths = (
{
closed = 1;
nodes = (
"295 0 LINE",
"295 10 LINE",
"198 10 OFFCURVE",
"165 30 OFFCURVE",
"165 89 CURVE",
"165 620 LINE",
"175 620 LINE",
"682 0 LINE",
"692 0 LINE",
"692 683 LINE",
"762 698 LINE",
"762 708 LINE",
"547 708 LINE",
"547 698 LINE",
"645 698 OFFCURVE",
"677 672 OFFCURVE",
"677 600 CURVE",
"677 40 LINE",
"666 40 LINE",
"123 708 LINE",
"80 708 LINE",
"80 698 LINE",
"119 686 OFFCURVE",
"150 654 OFFCURVE",
"150 626 CURVE",
"150 25 LINE",
"80 10 LINE",
"80 0 LINE"
);
}
);
width = 812;
},
{
anchors = (
{
name = bottom;
position = "{609, 0}";
},
{
name = top;
position = "{579, 708}";
}
);
layerId = "35A90D60-3AD4-435C-9F8B-D1CA483F6F66";
paths = (
{
closed = 1;
nodes = (
"399 0 LINE",
"399 10 LINE",
"253 10 OFFCURVE",
"204 30 OFFCURVE",
"204 89 CURVE",
"204 620 LINE",
"219 620 LINE",
"979 0 LINE",
"987 0 LINE",
"987 683 LINE",
"1097 698 LINE",
"1097 708 LINE",
"777 708 LINE",
"777 698 LINE",
"923 698 OFFCURVE",
"972 672 OFFCURVE",
"972 600 CURVE",
"972 33 LINE",
"961 33 LINE",
"134 708 LINE",
"80 708 LINE",
"80 698 LINE",
"141 685 OFFCURVE",
"189 653 OFFCURVE",
"189 626 CURVE",
"189 25 LINE",
"80 10 LINE",
"80 0 LINE"
);
}
);
width = 1177;
}
);
leftKerningGroup = HH;
rightKerningGroup = N;
unicode = 004E;
},
{
color = 6;
glyphname = Eng;
lastChange = "2023-02-19 07:03:36 +0000";
layers = (
{
components = (
{
name = N;
}
);
layerId = "DF54607F-DD82-41E6-B2E3-81CA6D0E5C47";
paths = (
{
closed = 1;
nodes = (
"744 218 LINE",
"744 -83 LINE SMOOTH",
"744 -161 OFFCURVE",
"734 -204 OFFCURVE",
"697 -204 CURVE SMOOTH",
"668 -204 OFFCURVE",
"654 -174 OFFCURVE",
"654 -114 CURVE SMOOTH",
"654 -62 OFFCURVE",
"602 -38 OFFCURVE",
"509 -38 CURVE SMOOTH",
"414 -38 OFFCURVE",
"361 -64 OFFCURVE",
"361 -110 CURVE SMOOTH",
"361 -181 OFFCURVE",
"505 -215 OFFCURVE",
"695 -215 CURVE SMOOTH",
"1122 -215 OFFCURVE",
"1224 -172 OFFCURVE",
"1224 -43 CURVE SMOOTH",
"1224 218 LINE"
);
}
);
width = 1313;
},
{
components = (
{
name = N;
}
);
layerId = "A5088515-37FF-452F-BD44-18A7A5EF88F0";
paths = (
{
closed = 1;
nodes = (
"678 338 LINE",
"678 -114 LINE",
"678 -168 OFFCURVE",
"653 -200 OFFCURVE",
"606 -200 CURVE SMOOTH",
"559 -200 OFFCURVE",
"536 -174 OFFCURVE",
"536 -122 CURVE SMOOTH",
"536 -93 OFFCURVE",
"522 -77 OFFCURVE",
"498 -77 CURVE SMOOTH",
"478 -77 OFFCURVE",
"464 -91 OFFCURVE",
"464 -113 CURVE SMOOTH",
"464 -170 OFFCURVE",
"526 -215 OFFCURVE",
"606 -215 CURVE SMOOTH",
"661 -215 OFFCURVE",
"692 -177 OFFCURVE",
"692 -114 CURVE SMOOTH",
"692 338 LINE"
);
}
);
width = 812;
},
{
components = (
{
name = N;
}
);
layerId = "2660E96A-9963-4076-AFCB-E451BC6EE103";
paths = (
{
closed = 1;
nodes = (
"452 198 LINE",
"452 -83 LINE SMOOTH",
"452 -161 OFFCURVE",
"450 -204 OFFCURVE",
"425 -204 CURVE SMOOTH",
"398 -204 OFFCURVE",
"385 -171 OFFCURVE",
"385 -104 CURVE SMOOTH",
"385 -60 OFFCURVE",
"351 -38 OFFCURVE",
"281 -38 CURVE SMOOTH",
"223 -38 OFFCURVE",
"191 -64 OFFCURVE",
"191 -110 CURVE SMOOTH",
"191 -182 OFFCURVE",
"299 -215 OFFCURVE",
"425 -215 CURVE SMOOTH",
"555 -215 OFFCURVE",
"667 -161 OFFCURVE",
"667 -83 CURVE SMOOTH",
"667 198 LINE"
);
}
);
width = 756;
},
{
components = (
{
name = N;
}
);
layerId = "35A90D60-3AD4-435C-9F8B-D1CA483F6F66";
paths = (
{
closed = 1;
nodes = (
"973 338 LINE",
"973 -114 LINE SMOOTH",
"973 -167 OFFCURVE",
"926 -200 OFFCURVE",
"852 -200 CURVE SMOOTH",
"788 -200 OFFCURVE",
"756 -175 OFFCURVE",
"756 -125 CURVE SMOOTH",
"756 -91 OFFCURVE",
"724 -77 OFFCURVE",
"699 -77 CURVE SMOOTH",
"673 -77 OFFCURVE",
"650 -93 OFFCURVE",
"650 -118 CURVE SMOOTH",
"650 -175 OFFCURVE",
"733 -215 OFFCURVE",
"851 -215 CURVE SMOOTH",
"935 -215 OFFCURVE",
"987 -176 OFFCURVE",
"987 -114 CURVE SMOOTH",
"987 338 LINE"
);
}
);
width = 1177;
}
);
leftKerningGroup = HH;
rightKerningGroup = N;
unicode = 014A;
},
{
color = 4;
glyphname = O;
lastChange = "2023-02-19 07:03:36 +0000";
layers = (
{
anchors = (
{
name = bottom;
position = "{402, 0}";
},
{
name = center;
position = "{402, 354}";
},
{
name = ogonek;
position = "{533, 10}";
},
{
name = top;
position = "{402, 708}";
},
{
name = topleft;
position = "{20, 708}";
},
{
name = topright;
position = "{780, 708}";
}
);
layerId = "2660E96A-9963-4076-AFCB-E451BC6EE103";
paths = (
{
closed = 1;
nodes = (
"182 723 OFFCURVE",
"30 576 OFFCURVE",
"30 352 CURVE SMOOTH",
"30 107 OFFCURVE",
"190 -15 OFFCURVE",
"402 -15 CURVE SMOOTH",
"612 -15 OFFCURVE",
"770 103 OFFCURVE",
"770 351 CURVE SMOOTH",
"770 614 OFFCURVE",
"605 723 OFFCURVE",
"402 723 CURVE SMOOTH"
);
},
{
closed = 1;
nodes = (
"488 713 OFFCURVE",
"520 616 OFFCURVE",
"520 357 CURVE SMOOTH",
"520 96 OFFCURVE",
"488 -3 OFFCURVE",
"402 -3 CURVE SMOOTH",
"316 -3 OFFCURVE",
"280 104 OFFCURVE",
"280 356 CURVE SMOOTH",
"280 611 OFFCURVE",
"316 713 OFFCURVE",
"402 713 CURVE SMOOTH"
);
}
);
width = 800;
},
{
anchors = (
{
name = bottom;
position = "{686, 0}";
},
{
name = center;
position = "{686, 354}";
},
{
name = ogonek;
position = "{899, 10}";
},
{
name = top;
position = "{686, 708}";
},
{
name = topleft;
position = "{20, 708}";
},
{
name = topright;
position = "{1348, 708}";
}
);
layerId = "DF54607F-DD82-41E6-B2E3-81CA6D0E5C47";
paths = (
{
closed = 1;
nodes = (
"308 723 OFFCURVE",
"30 570 OFFCURVE",
"30 354 CURVE SMOOTH",
"30 138 OFFCURVE",
"308 -15 OFFCURVE",
"686 -15 CURVE SMOOTH",
"1062 -15 OFFCURVE",
"1338 138 OFFCURVE",
"1338 354 CURVE SMOOTH",
"1338 570 OFFCURVE",
"1062 723 OFFCURVE",
"686 723 CURVE SMOOTH"
);
},
{
closed = 1;
nodes = (
"772 713 OFFCURVE",
"804 616 OFFCURVE",
"804 354 CURVE SMOOTH",
"804 96 OFFCURVE",
"772 -3 OFFCURVE",
"686 -3 CURVE SMOOTH",
"600 -3 OFFCURVE",
"564 104 OFFCURVE",
"564 354 CURVE SMOOTH",
"564 611 OFFCURVE",
"600 713 OFFCURVE",
"686 713 CURVE SMOOTH"
);
}
);
width = 1368;
},
{
anchors = (
{
name = bottom;
position = "{371, 0}";
},
{
name = center;
position = "{371, 354}";
},
{
name = ogonek;
position = "{473, 10}";
},
{
name = top;
position = "{371, 708}";
},
{
name = topleft;
position = "{20, 708}";
},
{
name = topright;
position = "{720, 708}";
}
);
layerId = "A5088515-37FF-452F-BD44-18A7A5EF88F0";
paths = (
{
closed = 1;
nodes = (
"188 723 OFFCURVE",
"80 588 OFFCURVE",
"80 360 CURVE SMOOTH",
"80 124 OFFCURVE",
"188 -15 OFFCURVE",
"371 -15 CURVE SMOOTH",
"553 -15 OFFCURVE",
"660 124 OFFCURVE",
"660 360 CURVE SMOOTH",
"660 588 OFFCURVE",
"553 723 OFFCURVE",
"371 723 CURVE SMOOTH"
);
},
{
closed = 1;
nodes = (
"543 708 OFFCURVE",
"644 578 OFFCURVE",
"644 360 CURVE SMOOTH",
"644 134 OFFCURVE",
"543 0 OFFCURVE",
"371 0 CURVE SMOOTH {name = \"❌\";}",
"198 0 OFFCURVE",
"96 134 OFFCURVE",
"96 360 CURVE SMOOTH",
"96 578 OFFCURVE",
"198 708 OFFCURVE",
"371 708 CURVE SMOOTH {name = \"❌\";}"
);
}
);
width = 740;
},
{
anchors = (
{
name = bottom;
position = "{576, 0}";
},
{
name = center;
position = "{576, 354}";
},
{
name = ogonek;
position = "{729, 10}";
},
{
name = top;
position = "{576, 708}";
},
{
name = topleft;
position = "{20, 708}";
},
{
name = topright;
position = "{1127, 708}";
}
);
layerId = "35A90D60-3AD4-435C-9F8B-D1CA483F6F66";
paths = (
{
closed = 1;
nodes = (
"291 723 OFFCURVE",
"90 573 OFFCURVE",
"90 360 CURVE SMOOTH",
"90 140 OFFCURVE",
"291 -15 OFFCURVE",
"576 -15 CURVE SMOOTH",
"858 -15 OFFCURVE",
"1057 140 OFFCURVE",
"1057 360 CURVE SMOOTH",
"1057 573 OFFCURVE",
"858 723 OFFCURVE",
"576 723 CURVE SMOOTH"
);
},
{
closed = 1;
nodes = (
"849 708 OFFCURVE",
"1042 563 OFFCURVE",
"1042 360 CURVE SMOOTH",
"1042 150 OFFCURVE",
"849 0 OFFCURVE",
"576 0 CURVE SMOOTH {name = \"❌\";}",
"300 0 OFFCURVE",
"105 150 OFFCURVE",
"105 360 CURVE SMOOTH",
"105 563 OFFCURVE",
"300 708 OFFCURVE",
"576 708 CURVE SMOOTH {name = \"❌\";}"
);
}
);
width = 1147;
}
);
leftKerningGroup = OO;
rightKerningGroup = O;
unicode = 004F;
},
{
color = 5;
glyphname = Oslash;
lastChange = "2023-02-19 07:03:36 +0000";
layers = (
{
components = (
{
name = O;
}
);
layerId = "2660E96A-9963-4076-AFCB-E451BC6EE103";
paths = (
{
closed = 1;
nodes = (
"234 -92 LINE",
"250 -92 LINE",
"574 800 LINE",
"558 800 LINE"
);
}
);
width = 800;
},
{
components = (
{
name = O;
}
);
layerId = "DF54607F-DD82-41E6-B2E3-81CA6D0E5C47";
paths = (
{
closed = 1;
nodes = (
"508 -92 LINE",
"524 -92 LINE",
"848 800 LINE",
"832 800 LINE"
);
}
);
width = 1368;
},
{
components = (
{
name = O;
}
);
layerId = "A5088515-37FF-452F-BD44-18A7A5EF88F0";
paths = (
{
closed = 1;
nodes = (
"223 -92 LINE",
"239 -92 LINE",
"563 800 LINE",
"547 800 LINE"
);
}
);
width = 740;
},
{
components = (
{
alignment = -1;
name = O;
}
);
layerId = "35A90D60-3AD4-435C-9F8B-D1CA483F6F66";
paths = (
{
closed = 1;
nodes = (
"382 -92 LINE",
"398 -92 LINE",
"722 800 LINE",
"706 800 LINE"
);
}
);
width = 1147;
}
);
leftKerningGroup = OO;
leftMetricsKey = O;
rightKerningGroup = O;
rightMetricsKey = O;
unicode = 00D8;
},
{
color = 4;
glyphname = OE;
lastChange = "2023-02-19 07:03:36 +0000";
layers = (
{
layerId = "2660E96A-9963-4076-AFCB-E451BC6EE103";
paths = (
{
closed = 1;
nodes = (
"306 12 OFFCURVE",
"280 124 OFFCURVE",
"280 366 CURVE SMOOTH",
"280 591 OFFCURVE",
"306 698 OFFCURVE",
"392 698 CURVE SMOOTH",
"393 698 OFFCURVE",
"394 698 OFFCURVE",
"395 698 CURVE SMOOTH",
"449 698 OFFCURVE",
"470 606 OFFCURVE",
"470 367 CURVE SMOOTH",
"470 101 OFFCURVE",
"451 12 OFFCURVE",
"395 12 CURVE SMOOTH",
"394 12 OFFCURVE",
"393 12 OFFCURVE",
"392 12 CURVE SMOOTH"
);
},
{
closed = 1;
nodes = (
"829 693 OFFCURVE",
"879 659 OFFCURVE",
"912 598 CURVE SMOOTH",
"1007 424 LINE",
"1017 424 LINE",
"1052 708 LINE",
"494 708 LINE",
"460 708 OFFCURVE",
"426 708 OFFCURVE",
"392 708 CURVE SMOOTH",
"172 708 OFFCURVE",
"30 556 OFFCURVE",
"30 362 CURVE SMOOTH",
"30 127 OFFCURVE",
"180 0 OFFCURVE",
"392 0 CURVE SMOOTH",
"426 0 OFFCURVE",
"460 0 OFFCURVE",
"494 0 CURVE",
"1052 0 LINE",
"1017 284 LINE",
"1007 284 LINE",
"938 138 LINE SMOOTH",
"902 62 OFFCURVE",
"842 15 OFFCURVE",
"797 15 CURVE SMOOTH",
"715 15 LINE",
"715 356 LINE",
"725 356 LINE",
"871 246 LINE",
"881 246 LINE",
"881 506 LINE",
"871 506 LINE",
"865 486 OFFCURVE",
"842 438 OFFCURVE",
"809 404 CURVE SMOOTH",
"788 384 OFFCURVE",
"763 366 OFFCURVE",
"735 366 CURVE",
"715 366 LINE",
"715 693 LINE",
"797 693 LINE SMOOTH"
);
}
);
width = 1102;
},
{
layerId = "DF54607F-DD82-41E6-B2E3-81CA6D0E5C47";
paths = (
{
closed = 1;
nodes = (
"600 12 OFFCURVE",
"564 104 OFFCURVE",
"564 354 CURVE SMOOTH",
"564 611 OFFCURVE",
"600 698 OFFCURVE",
"686 698 CURVE SMOOTH",
"688 698 OFFCURVE",
"690 698 OFFCURVE",
"692 698 CURVE SMOOTH",
"773 698 OFFCURVE",
"804 603 OFFCURVE",
"804 354 CURVE SMOOTH",
"804 107 OFFCURVE",
"772 12 OFFCURVE",
"689 12 CURVE SMOOTH",
"688 12 OFFCURVE",
"687 12 OFFCURVE",
"686 12 CURVE SMOOTH"
);
},
{
closed = 1;
nodes = (
"1581 693 OFFCURVE",
"1683 657 OFFCURVE",
"1773 579 CURVE SMOOTH",
"1950 424 LINE",
"1960 424 LINE",
"2034 708 LINE",
"882 708 LINE",
"817 708 OFFCURVE",
"751 708 OFFCURVE",
"686 708 CURVE",
"308 708 OFFCURVE",
"30 570 OFFCURVE",
"30 354 CURVE SMOOTH",
"30 138 OFFCURVE",
"308 0 OFFCURVE",
"686 0 CURVE",
"751 0 OFFCURVE",
"817 0 OFFCURVE",
"882 0 CURVE",
"2034 0 LINE",
"1960 284 LINE",
"1950 284 LINE",
"1802 140 LINE SMOOTH",
"1715 55 OFFCURVE",
"1601 15 OFFCURVE",
"1493 15 CURVE SMOOTH",
"1338 15 LINE",
"1338 356 LINE",
"1350 356 LINE",
"1661 246 LINE",
"1671 246 LINE",
"1671 506 LINE",
"1661 506 LINE",
"1650 488 OFFCURVE",
"1606 448 OFFCURVE",
"1546 416 CURVE SMOOTH",
"1495 388 OFFCURVE",
"1434 366 OFFCURVE",
"1371 366 CURVE SMOOTH",
"1338 366 LINE",
"1338 693 LINE",
"1493 693 LINE SMOOTH"
);
}
);
width = 2084;
},
{
layerId = "A5088515-37FF-452F-BD44-18A7A5EF88F0";
paths = (
{
closed = 1;
nodes = (
"198 0 OFFCURVE",
"96 134 OFFCURVE",
"96 360 CURVE SMOOTH",
"96 578 OFFCURVE",
"198 708 OFFCURVE",
"371 708 CURVE SMOOTH {name = \"❌\";}",
"420 708 OFFCURVE",
"474 693 OFFCURVE",
"513 669 CURVE",
"513 566 OFFCURVE",
"513 463 OFFCURVE",
"513 360 CURVE",
"513 253 OFFCURVE",
"513 147 OFFCURVE",
"513 40 CURVE",
"473 14 OFFCURVE",
"421 0 OFFCURVE",
"371 0 CURVE SMOOTH {name = \"❌\";}"
);
},
{
closed = 1;
nodes = (
"911 693 OFFCURVE",
"927 679 OFFCURVE",
"922 635 CURVE",
"906 484 LINE",
"921 484 LINE",
"955 708 LINE",
"468 708 LINE",
"439 718 OFFCURVE",
"407 723 OFFCURVE",
"371 723 CURVE SMOOTH",
"188 723 OFFCURVE",
"80 588 OFFCURVE",
"80 360 CURVE SMOOTH",
"80 124 OFFCURVE",
"188 -15 OFFCURVE",
"371 -15 CURVE SMOOTH",
"405 -15 OFFCURVE",
"437 -10 OFFCURVE",
"466 0 CURVE",
"955 0 LINE",
"921 243 LINE",
"906 243 LINE",
"928 83 LINE",
"935 32 OFFCURVE",
"923 15 OFFCURVE",
"878 15 CURVE SMOOTH",
"528 15 LINE",
"528 353 LINE",
"748 353 LINE",
"754 256 LINE",
"764 256 LINE",
"764 498 LINE",
"754 498 LINE",
"754 429 OFFCURVE",
"752 401 OFFCURVE",
"745 385 CURVE SMOOTH",
"740 374 OFFCURVE",
"730 368 OFFCURVE",
"717 368 CURVE SMOOTH",
"528 368 LINE",
"528 693 LINE",
"861 693 LINE SMOOTH"
);
}
);
width = 1030;
},
{
layerId = "35A90D60-3AD4-435C-9F8B-D1CA483F6F66";
paths = (
{
closed = 1;
nodes = (
"300 0 OFFCURVE",
"105 150 OFFCURVE",
"105 360 CURVE SMOOTH",
"105 563 OFFCURVE",
"300 708 OFFCURVE",
"576 708 CURVE SMOOTH {name = \"❌\";}",
"649 708 OFFCURVE",
"734 694 OFFCURVE",
"798 670 CURVE",
"798 567 OFFCURVE",
"798 463 OFFCURVE",
"798 360 CURVE",
"798 253 OFFCURVE",
"798 147 OFFCURVE",
"798 40 CURVE",
"734 15 OFFCURVE",
"659 0 OFFCURVE",
"576 0 CURVE SMOOTH {name = \"❌\";}"
);
},
{
closed = 1;
nodes = (
"1488 693 OFFCURVE",
"1504 676 OFFCURVE",
"1498 625 CURVE",
"1481 484 LINE",
"1496 484 LINE",
"1530 708 LINE",
"723 708 LINE",
"678 718 OFFCURVE",
"628 723 OFFCURVE",
"576 723 CURVE SMOOTH",
"291 723 OFFCURVE",
"90 573 OFFCURVE",
"90 360 CURVE SMOOTH",
"90 140 OFFCURVE",
"291 -15 OFFCURVE",
"576 -15 CURVE SMOOTH",
"628 -15 OFFCURVE",
"677 -10 OFFCURVE",
"723 0 CURVE",
"1530 0 LINE",
"1496 243 LINE",
"1481 243 LINE",
"1502 91 LINE",
"1510 34 OFFCURVE",
"1498 15 OFFCURVE",
"1453 15 CURVE SMOOTH",
"813 15 LINE",
"813 353 LINE",
"1183 353 LINE",
"1189 256 LINE",
"1199 256 LINE",
"1199 498 LINE",
"1189 498 LINE",
"1189 433 OFFCURVE",
"1185 391 OFFCURVE",
"1179 381 CURVE SMOOTH",
"1174 372 OFFCURVE",
"1165 368 OFFCURVE",
"1152 368 CURVE SMOOTH",
"813 368 LINE",
"813 693 LINE",
"1436 693 LINE SMOOTH"
);
}
);
width = 1645;
}
);
leftKerningGroup = OO;
leftMetricsKey = O;
rightKerningGroup = E;
rightMetricsKey = E;
unicode = 0152;
},
{
color = 4;
glyphname = P;
lastChange = "2023-02-19 07:03:36 +0000";
layers = (
{
layerId = "2660E96A-9963-4076-AFCB-E451BC6EE103";
paths = (
{
closed = 1;
nodes = (
"20 708 LINE",
"20 698 LINE",
"70 688 LINE",
"70 20 LINE",
"20 10 LINE",
"20 0 LINE",
"365 0 LINE",
"365 10 LINE",
"315 20 LINE",
"315 688 LINE",
"322 691 OFFCURVE",
"360 692 OFFCURVE",
"369 692 CURVE SMOOTH",
"453 692 OFFCURVE",
"495 633 OFFCURVE",
"495 514 CURVE SMOOTH",
"495 394 OFFCURVE",
"439 327 OFFCURVE",
"339 327 CURVE SMOOTH",
"324 327 OFFCURVE",
"316 328 OFFCURVE",
"309 331 CURVE",
"309 314 LINE",
"322 312 OFFCURVE",
"346 311 OFFCURVE",
"381 311 CURVE",
"614 311 OFFCURVE",
"745 387 OFFCURVE",
"745 524 CURVE SMOOTH",
"745 647 OFFCURVE",
"649 708 OFFCURVE",
"454 708 CURVE SMOOTH"
);
}
);
width = 775;
},
{
layerId = "DF54607F-DD82-41E6-B2E3-81CA6D0E5C47";
paths = (
{
closed = 1;
nodes = (
"20 708 LINE",
"20 698 LINE",
"70 688 LINE",
"70 20 LINE",
"20 10 LINE",
"20 0 LINE",
"640 0 LINE",
"640 10 LINE",
"590 20 LINE",
"590 686 LINE",
"597 689 OFFCURVE",
"635 692 OFFCURVE",
"644 692 CURVE SMOOTH",
"729 692 OFFCURVE",
"770 634 OFFCURVE",
"770 514 CURVE SMOOTH",
"770 399 OFFCURVE",
"710 327 OFFCURVE",
"614 327 CURVE SMOOTH",
"599 327 OFFCURVE",
"591 328 OFFCURVE",
"584 331 CURVE",
"584 314 LINE",
"599 312 OFFCURVE",
"625 311 OFFCURVE",
"656 311 CURVE",
"1095 311 OFFCURVE",
"1310 381 OFFCURVE",
"1310 524 CURVE SMOOTH",
"1310 648 OFFCURVE",
"1119 708 OFFCURVE",
"729 708 CURVE SMOOTH"
);
}
);
width = 1340;
},
{
layerId = "A5088515-37FF-452F-BD44-18A7A5EF88F0";
paths = (
{
closed = 1;
nodes = (
"80 708 LINE",
"80 698 LINE",
"150 683 LINE",
"150 25 LINE",
"80 10 LINE",
"80 0 LINE",
"235 0 LINE",
"235 10 LINE",
"165 25 LINE",
"165 683 LINE",
"198 689 OFFCURVE",
"263 692 OFFCURVE",
"345 692 CURVE SMOOTH",
"480 692 OFFCURVE",
"559 627 OFFCURVE",
"559 517 CURVE SMOOTH",
"559 400 OFFCURVE",
"479 331 OFFCURVE",
"343 331 CURVE SMOOTH",
"266 331 OFFCURVE",
"205 339 OFFCURVE",
"159 356 CURVE",
"159 329 LINE",
"222 320 OFFCURVE",
"288 315 OFFCURVE",
"343 315 CURVE SMOOTH",
"488 315 OFFCURVE",
"574 390 OFFCURVE",
"574 517 CURVE SMOOTH",
"574 637 OFFCURVE",
"489 708 OFFCURVE",
"345 708 CURVE"
);
}
);
width = 614;
},
{
layerId = "35A90D60-3AD4-435C-9F8B-D1CA483F6F66";
paths = (
{
closed = 1;
nodes = (
"100 708 LINE",
"100 698 LINE",
"209 683 LINE",
"209 25 LINE",
"100 10 LINE",
"100 0 LINE",
"334 0 LINE",
"334 10 LINE",
"224 25 LINE",
"224 683 LINE",
"264 689 OFFCURVE",
"376 692 OFFCURVE",
"535 692 CURVE SMOOTH",
"769 692 OFFCURVE",
"916 625 OFFCURVE",
"916 517 CURVE SMOOTH",
"916 398 OFFCURVE",
"778 331 OFFCURVE",
"531 331 CURVE SMOOTH",
"401 331 OFFCURVE",
"296 339 OFFCURVE",
"214 356 CURVE",
"214 329 LINE",
"276 320 OFFCURVE",
"390 315 OFFCURVE",
"531 315 CURVE",
"788 315 OFFCURVE",
"931 387 OFFCURVE",
"931 517 CURVE SMOOTH",
"931 634 OFFCURVE",
"778 708 OFFCURVE",
"535 708 CURVE"
);
}
);
width = 1001;
}
);
leftKerningGroup = HH;
leftMetricsKey = H;
rightKerningGroup = P;
unicode = 0050;
},
{
color = 4;
glyphname = Thorn;
lastChange = "2023-02-19 07:03:36 +0000";
layers = (
{
layerId = "2660E96A-9963-4076-AFCB-E451BC6EE103";
paths = (
{
closed = 1;
nodes = (
"365 0 LINE",
"365 10 LINE",
"315 25 LINE",
"315 683 LINE",
"365 698 LINE",
"365 708 LINE",
"20 708 LINE",
"20 698 LINE",
"70 683 LINE",
"70 25 LINE",
"20 10 LINE",
"20 0 LINE"
);
},
{
closed = 1;
nodes = (
"450 566 OFFCURVE",
"495 507 OFFCURVE",
"495 388 CURVE SMOOTH",
"495 268 OFFCURVE",
"439 201 OFFCURVE",
"339 201 CURVE SMOOTH",
"324 201 OFFCURVE",
"316 202 OFFCURVE",
"309 205 CURVE",
"309 188 LINE",
"322 186 OFFCURVE",
"346 185 OFFCURVE",
"381 185 CURVE",
"614 185 OFFCURVE",
"745 261 OFFCURVE",
"745 398 CURVE SMOOTH",
"745 526 OFFCURVE",
"634 582 OFFCURVE",
"381 582 CURVE SMOOTH",
"346 582 OFFCURVE",
"322 581 OFFCURVE",
"309 579 CURVE",
"309 562 LINE",
"319 565 OFFCURVE",
"337 566 OFFCURVE",
"359 566 CURVE SMOOTH"
);
}
);
width = 775;
},
{
layerId = "DF54607F-DD82-41E6-B2E3-81CA6D0E5C47";
paths = (
{
closed = 1;
nodes = (
"640 0 LINE",
"640 10 LINE",
"590 20 LINE",
"590 688 LINE",
"640 698 LINE",
"640 708 LINE",
"20 708 LINE",
"20 698 LINE",
"70 688 LINE",
"70 20 LINE",
"20 10 LINE",
"20 0 LINE"
);
},
{
closed = 1;
nodes = (
"729 566 OFFCURVE",
"770 508 OFFCURVE",
"770 388 CURVE SMOOTH",
"770 273 OFFCURVE",
"710 201 OFFCURVE",
"614 201 CURVE SMOOTH",
"599 201 OFFCURVE",
"591 202 OFFCURVE",
"584 205 CURVE",
"584 188 LINE",
"599 186 OFFCURVE",
"625 185 OFFCURVE",
"656 185 CURVE",
"1095 185 OFFCURVE",
"1310 255 OFFCURVE",
"1310 398 CURVE SMOOTH",
"1310 520 OFFCURVE",
"1098 582 OFFCURVE",
"656 582 CURVE SMOOTH",
"624 582 OFFCURVE",
"598 581 OFFCURVE",
"584 579 CURVE",
"584 562 LINE",
"593 565 OFFCURVE",
"608 566 OFFCURVE",
"624 566 CURVE SMOOTH"
);
}
);
width = 1340;
},
{
layerId = "A5088515-37FF-452F-BD44-18A7A5EF88F0";
paths = (
{
closed = 1;
nodes = (
"235 0 LINE",
"235 10 LINE",
"165 20 LINE",
"165 688 LINE",
"235 698 LINE",
"235 708 LINE",
"80 708 LINE",
"80 698 LINE",
"150 688 LINE",
"150 20 LINE",
"80 10 LINE",
"80 0 LINE"
);
},
{
closed = 1;
nodes = (
"475 562 OFFCURVE",
"559 499 OFFCURVE",
"559 387 CURVE SMOOTH",
"559 270 OFFCURVE",
"479 201 OFFCURVE",
"343 201 CURVE SMOOTH",
"266 201 OFFCURVE",
"205 209 OFFCURVE",
"159 226 CURVE",
"159 199 LINE",
"222 190 OFFCURVE",
"288 185 OFFCURVE",
"343 185 CURVE SMOOTH",
"488 185 OFFCURVE",
"574 260 OFFCURVE",
"574 387 CURVE SMOOTH",
"574 510 OFFCURVE",
"485 578 OFFCURVE",
"325 578 CURVE SMOOTH",
"265 578 OFFCURVE",
"211 574 OFFCURVE",
"161 566 CURVE",
"161 543 LINE",
"206 556 OFFCURVE",
"261 562 OFFCURVE",
"325 562 CURVE SMOOTH"
);
}
);
width = 614;
},
{
layerId = "35A90D60-3AD4-435C-9F8B-D1CA483F6F66";
paths = (
{
closed = 1;
nodes = (
"334 0 LINE",
"334 10 LINE",
"224 25 LINE",
"224 683 LINE",
"334 698 LINE",
"334 708 LINE",
"100 708 LINE",
"100 698 LINE",
"209 683 LINE",
"209 25 LINE",
"100 10 LINE",
"100 0 LINE"
);
},
{
closed = 1;
nodes = (
"766 557 OFFCURVE",
"913 490 OFFCURVE",
"913 382 CURVE SMOOTH",
"913 268 OFFCURVE",
"765 196 OFFCURVE",
"528 196 CURVE SMOOTH",
"398 196 OFFCURVE",
"293 204 OFFCURVE",
"217 221 CURVE",
"217 194 LINE",
"273 185 OFFCURVE",
"387 180 OFFCURVE",
"528 180 CURVE",
"774 180 OFFCURVE",
"928 258 OFFCURVE",
"928 382 CURVE SMOOTH",
"928 499 OFFCURVE",
"775 573 OFFCURVE",
"532 573 CURVE SMOOTH",
"391 573 OFFCURVE",
"277 568 OFFCURVE",
"218 559 CURVE",
"218 532 LINE",
"297 549 OFFCURVE",
"402 557 OFFCURVE",
"532 557 CURVE SMOOTH"
);
}
);
width = 998;
}
);
leftKerningGroup = HH;
leftMetricsKey = P;
rightKerningGroup = thorn;
rightMetricsKey = P;
unicode = 00DE;
},
{
color = 4;
glyphname = Q;
lastChange = "2023-02-19 07:03:36 +0000";
layers = (
{
components = (
{
name = O;
}
);
layerId = "2660E96A-9963-4076-AFCB-E451BC6EE103";
paths = (
{
closed = 1;
nodes = (
"389 -129 OFFCURVE",
"443 -215 OFFCURVE",
"529 -215 CURVE SMOOTH",
"593 -215 OFFCURVE",
"645 -166 OFFCURVE",
"645 -67 CURVE",
"639 -65 LINE",
"635 -84 OFFCURVE",
"604 -120 OFFCURVE",
"532 -120 CURVE SMOOTH",
"468 -120 OFFCURVE",
"402 -91 OFFCURVE",
"384 -5 CURVE",
"369 -5 LINE"
);
}
);
width = 800;
},
{
components = (
{
name = O;
}
);
layerId = "DF54607F-DD82-41E6-B2E3-81CA6D0E5C47";
paths = (
{
closed = 1;
nodes = (
"675 -129 OFFCURVE",
"767 -215 OFFCURVE",
"913 -215 CURVE SMOOTH",
"1018 -215 OFFCURVE",
"1111 -166 OFFCURVE",
"1111 -67 CURVE",
"1104 -65 LINE",
"1093 -84 OFFCURVE",
"1041 -120 OFFCURVE",
"918 -120 CURVE SMOOTH",
"809 -120 OFFCURVE",
"697 -91 OFFCURVE",
"666 -5 CURVE",
"640 -5 LINE"
);
}
);
width = 1368;
},
{
components = (
{
name = O;
}
);
layerId = "A5088515-37FF-452F-BD44-18A7A5EF88F0";
paths = (
{
closed = 1;
nodes = (
"413 -112 OFFCURVE",
"470 -165 OFFCURVE",
"554 -165 CURVE SMOOTH",
"616 -165 OFFCURVE",
"645 -132 OFFCURVE",
"655 -110 CURVE",
"650 -105 LINE",
"627 -136 OFFCURVE",
"595 -151 OFFCURVE",
"554 -151 CURVE",
"477 -151 OFFCURVE",
"424 -103 OFFCURVE",
"394 -5 CURVE",
"380 -5 LINE"
);
}
);
width = 740;
},
{
components = (
{
name = O;
}
);
layerId = "35A90D60-3AD4-435C-9F8B-D1CA483F6F66";
paths = (
{
closed = 1;
nodes = (
"586 -112 OFFCURVE",
"666 -165 OFFCURVE",
"784 -165 CURVE SMOOTH",
"870 -165 OFFCURVE",
"911 -132 OFFCURVE",
"925 -110 CURVE",
"918 -105 LINE",
"889 -137 OFFCURVE",
"848 -151 OFFCURVE",
"784 -151 CURVE",
"676 -151 OFFCURVE",
"596 -103 OFFCURVE",
"554 -5 CURVE",
"540 -5 LINE"
);
}
);
width = 1147;
}
);
leftKerningGroup = OO;
leftMetricsKey = O;
rightKerningGroup = O;
rightMetricsKey = O;
unicode = 0051;
},
{
color = 4;
glyphname = R;
lastChange = "2023-02-19 07:22:26 +0000";
layers = (
{
anchors = (
{
name = bottom;
position = "{410, 0}";
},
{
name = top;
position = "{380, 708}";
}
);
layerId = "2660E96A-9963-4076-AFCB-E451BC6EE103";
paths = (
{
closed = 1;
nodes = (
"656 -15 OFFCURVE",
"709 -8 OFFCURVE",
"745 22 CURVE",
"745 32 LINE",
"738 32 OFFCURVE",
"731 35 OFFCURVE",
"724 41 CURVE SMOOTH",
"707 55 OFFCURVE",
"674 123 OFFCURVE",
"631 232 CURVE SMOOTH",
"599 314 OFFCURVE",
"511 354 OFFCURVE",
"363 354 CURVE",
"363 364 LINE",
"595 364 OFFCURVE",
"725 429 OFFCURVE",
"725 544 CURVE SMOOTH",
"725 654 OFFCURVE",
"639 708 OFFCURVE",
"465 708 CURVE SMOOTH",
"20 708 LINE",
"20 698 LINE",
"70 689 LINE",
"70 20 LINE",
"20 10 LINE",
"20 0 LINE",
"365 0 LINE",
"365 10 LINE",
"315 20 LINE",
"315 353 LINE",
"340 353 LINE",
"378 236 OFFCURVE",
"413 145 OFFCURVE",
"437 98 CURVE SMOOTH",
"471 31 OFFCURVE",
"537 -15 OFFCURVE",
"625 -15 CURVE SMOOTH"
);
},
{
closed = 1;
nodes = (
"331 378 OFFCURVE",
"323 379 OFFCURVE",
"315 383 CURVE",
"315 688 LINE",
"333 692 OFFCURVE",
"348 692 OFFCURVE",
"370 692 CURVE SMOOTH",
"446 692 OFFCURVE",
"489 637 OFFCURVE",
"489 538 CURVE SMOOTH",
"489 435 OFFCURVE",
"435 378 OFFCURVE",
"339 378 CURVE SMOOTH"
);
}
);
width = 750;
},
{
anchors = (
{
name = bottom;
position = "{728, 0}";
},
{
name = top;
position = "{678, 708}";
}
);
layerId = "DF54607F-DD82-41E6-B2E3-81CA6D0E5C47";
paths = (
{
closed = 1;
nodes = (
"1244 -15 OFFCURVE",
"1357 -8 OFFCURVE",
"1433 22 CURVE",
"1433 32 LINE",
"1422 32 OFFCURVE",
"1411 34 OFFCURVE",
"1400 37 CURVE SMOOTH",
"1353 51 OFFCURVE",
"1289 111 OFFCURVE",
"1191 232 CURVE SMOOTH",
"1117 324 OFFCURVE",
"984 354 OFFCURVE",
"662 354 CURVE",
"662 364 LINE",
"1130 364 OFFCURVE",
"1391 429 OFFCURVE",
"1391 544 CURVE SMOOTH",
"1391 654 OFFCURVE",
"1208 708 OFFCURVE",
"839 708 CURVE SMOOTH",
"20 708 LINE",
"20 698 LINE",
"70 689 LINE",
"70 20 LINE",
"20 10 LINE",
"20 0 LINE",
"641 0 LINE",
"641 10 LINE",
"590 20 LINE",
"590 353 LINE",
"613 353 LINE",
"673 229 OFFCURVE",
"728 145 OFFCURVE",
"779 98 CURVE SMOOTH",
"860 22 OFFCURVE",
"992 -15 OFFCURVE",
"1178 -15 CURVE SMOOTH"
);
},
{
closed = 1;
nodes = (
"606 378 OFFCURVE",
"597 380 OFFCURVE",
"590 383 CURVE",
"590 686 LINE",
"610 690 OFFCURVE",
"641 692 OFFCURVE",
"677 692 CURVE SMOOTH",
"814 692 OFFCURVE",
"890 637 OFFCURVE",
"890 538 CURVE SMOOTH",
"890 435 OFFCURVE",
"790 378 OFFCURVE",
"611 378 CURVE SMOOTH"
);
}
);
width = 1438;
},
{
anchors = (
{
name = bottom;
position = "{373, 0}";
},
{
name = top;
position = "{333, 708}";
}
);
layerId = "A5088515-37FF-452F-BD44-18A7A5EF88F0";
paths = (
{
closed = 1;
nodes = (
"640 -15 OFFCURVE",
"651 -11 OFFCURVE",
"660 -4 CURVE",
"660 6 LINE",
"652 2 OFFCURVE",
"644 0 OFFCURVE",
"637 0 CURVE SMOOTH",
"606 0 OFFCURVE",
"574 45 OFFCURVE",
"510 180 CURVE SMOOTH",
"462 283 OFFCURVE",
"423 332 OFFCURVE",
"378 345 CURVE",
"378 350 LINE",
"504 370 OFFCURVE",
"574 435 OFFCURVE",
"574 532 CURVE SMOOTH",
"574 645 OFFCURVE",
"495 708 OFFCURVE",
"355 708 CURVE SMOOTH",
"80 708 LINE",
"80 698 LINE",
"150 683 LINE",
"150 25 LINE",
"80 10 LINE",
"80 0 LINE",
"235 0 LINE",
"235 10 LINE",
"165 25 LINE",
"165 343 LINE",
"324 343 LINE",
"390 343 OFFCURVE",
"443 291 OFFCURVE",
"498 171 CURVE SMOOTH",
"563 32 OFFCURVE",
"596 -15 OFFCURVE",
"630 -15 CURVE SMOOTH"
);
},
{
closed = 1;
nodes = (
"228 359 OFFCURVE",
"193 361 OFFCURVE",
"165 365 CURVE",
"165 683 LINE",
"210 690 OFFCURVE",
"272 693 OFFCURVE",
"355 693 CURVE SMOOTH",
"486 693 OFFCURVE",
"559 635 OFFCURVE",
"559 532 CURVE SMOOTH",
"559 426 OFFCURVE",
"462 359 OFFCURVE",
"307 359 CURVE SMOOTH"
);
}
);
width = 665;
},
{
anchors = (
{
name = bottom;
position = "{547, 0}";
},
{
name = top;
position = "{497, 708}";
}
);
layerId = "35A90D60-3AD4-435C-9F8B-D1CA483F6F66";
paths = (
{
closed = 1;
nodes = (
"973 -15 OFFCURVE",
"990 -13 OFFCURVE",
"1009 -4 CURVE",
"1009 6 LINE",
"996 2 OFFCURVE",
"984 0 OFFCURVE",
"972 0 CURVE SMOOTH",
"914 0 OFFCURVE",
"861 45 OFFCURVE",
"761 180 CURVE SMOOTH",
"684 287 OFFCURVE",
"627 333 OFFCURVE",
"557 347 CURVE",
"557 352 LINE",
"743 364 OFFCURVE",
"873 441 OFFCURVE",
"873 537 CURVE SMOOTH",
"873 651 OFFCURVE",
"758 708 OFFCURVE",
"525 708 CURVE SMOOTH",
"100 708 LINE",
"100 698 LINE",
"209 683 LINE",
"209 25 LINE",
"100 10 LINE",
"100 0 LINE",
"334 0 LINE",
"334 10 LINE",
"224 25 LINE",
"224 343 LINE",
"487 343 LINE",
"584 343 OFFCURVE",
"656 295 OFFCURVE",
"748 171 CURVE SMOOTH",
"852 32 OFFCURVE",
"904 -15 OFFCURVE",
"957 -15 CURVE SMOOTH"
);
},
{
closed = 1;
nodes = (
"343 359 OFFCURVE",
"268 361 OFFCURVE",
"224 365 CURVE",
"224 683 LINE",
"300 690 OFFCURVE",
"400 693 OFFCURVE",
"525 693 CURVE SMOOTH",
"748 693 OFFCURVE",
"858 641 OFFCURVE",
"858 537 CURVE SMOOTH",
"858 437 OFFCURVE",
"678 359 OFFCURVE",
"449 359 CURVE SMOOTH"
);
}
);
width = 1034;
}
);
leftKerningGroup = HH;
leftMetricsKey = H;
rightKerningGroup = R;
unicode = 0052;
},
{
color = 4;
glyphname = S;
lastChange = "2023-02-19 07:20:30 +0000";
layers = (
{
anchors = (
{
name = bottom;
position = "{333, 0}";
},
{
name = top;
position = "{333, 708}";
}
);
layerId = "2660E96A-9963-4076-AFCB-E451BC6EE103";
paths = (
{
closed = 1;
nodes = (
"466 -15 OFFCURVE",
"650 30 OFFCURVE",
"650 186 CURVE SMOOTH",
"650 262 OFFCURVE",
"596 323 OFFCURVE",
"432 431 CURVE SMOOTH",
"267 541 OFFCURVE",
"212 593 OFFCURVE",
"212 640 CURVE SMOOTH",
"212 683 OFFCURVE",
"250 708 OFFCURVE",
"319 708 CURVE SMOOTH",
"382 708 OFFCURVE",
"433 654 OFFCURVE",
"508 502 CURVE SMOOTH",
"553 411 LINE",
"573 411 LINE",
"623 660 LINE",
"566 695 OFFCURVE",
"461 723 OFFCURVE",
"342 723 CURVE",
"154 723 OFFCURVE",
"30 627 OFFCURVE",
"30 498 CURVE SMOOTH",
"30 430 OFFCURVE",
"90 364 OFFCURVE",
"271 235 CURVE SMOOTH",
"388 152 OFFCURVE",
"427 107 OFFCURVE",
"427 55 CURVE SMOOTH",
"427 21 OFFCURVE",
"402 0 OFFCURVE",
"358 0 CURVE",
"297 0 OFFCURVE",
"233 43 OFFCURVE",
"176 139 CURVE SMOOTH",
"81 300 LINE",
"61 300 LINE",
"41 41 LINE",
"116 7 OFFCURVE",
"234 -15 OFFCURVE",
"332 -15 CURVE"
);
}
);
width = 665;
},
{
anchors = (
{
name = bottom;
position = "{598, 0}";
},
{
name = top;
position = "{598, 708}";
}
);
layerId = "DF54607F-DD82-41E6-B2E3-81CA6D0E5C47";
paths = (
{
closed = 1;
nodes = (
"839 -15 OFFCURVE",
"1180 30 OFFCURVE",
"1180 186 CURVE SMOOTH",
"1180 279 OFFCURVE",
"1062 351 OFFCURVE",
"707 472 CURVE SMOOTH",
"453 557 OFFCURVE",
"368 599 OFFCURVE",
"368 640 CURVE SMOOTH",
"368 685 OFFCURVE",
"434 708 OFFCURVE",
"566 708 CURVE SMOOTH",
"665 708 OFFCURVE",
"809 637 OFFCURVE",
"962 503 CURVE SMOOTH",
"1067 411 LINE",
"1077 411 LINE",
"1140 660 LINE",
"1034 695 OFFCURVE",
"829 723 OFFCURVE",
"609 723 CURVE",
"260 723 OFFCURVE",
"30 627 OFFCURVE",
"30 498 CURVE SMOOTH",
"30 410 OFFCURVE",
"130 342 OFFCURVE",
"431 227 CURVE SMOOTH",
"682 130 OFFCURVE",
"766 87 OFFCURVE",
"766 55 CURVE SMOOTH",
"766 15 OFFCURVE",
"731 0 OFFCURVE",
"638 0 CURVE",
"508 0 OFFCURVE",
"388 54 OFFCURVE",
"268 149 CURVE SMOOTH",
"77 300 LINE",
"67 300 LINE",
"50 41 LINE",
"190 7 OFFCURVE",
"408 -15 OFFCURVE",
"590 -15 CURVE"
);
}
);
width = 1195;
},
{
anchors = (
{
name = bottom;
position = "{361, 0}";
},
{
name = top;
position = "{341, 708}";
}
);
layerId = "A5088515-37FF-452F-BD44-18A7A5EF88F0";
paths = (
{
closed = 1;
nodes = (
"503 -15 OFFCURVE",
"598 53 OFFCURVE",
"598 167 CURVE",
"598 273 OFFCURVE",
"534 325 OFFCURVE",
"342 377 CURVE SMOOTH",
"164 423 OFFCURVE",
"105 469 OFFCURVE",
"105 561 CURVE",
"105 653 OFFCURVE",
"189 708 OFFCURVE",
"331 708 CURVE SMOOTH",
"483 708 OFFCURVE",
"563 652 OFFCURVE",
"559 539 CURVE SMOOTH",
"556 451 LINE",
"566 451 LINE",
"586 630 LINE",
"528 683 OFFCURVE",
"438 723 OFFCURVE",
"331 723 CURVE SMOOTH",
"180 723 OFFCURVE",
"90 663 OFFCURVE",
"90 561 CURVE",
"90 460 OFFCURVE",
"153 410 OFFCURVE",
"340 360 CURVE SMOOTH",
"522 310 OFFCURVE",
"583 262 OFFCURVE",
"583 167 CURVE",
"583 62 OFFCURVE",
"494 0 OFFCURVE",
"343 0 CURVE SMOOTH",
"191 0 OFFCURVE",
"89 63 OFFCURVE",
"94 164 CURVE SMOOTH",
"100 280 LINE",
"90 280 LINE",
"70 81 LINE",
"155 20 OFFCURVE",
"253 -15 OFFCURVE",
"343 -15 CURVE SMOOTH"
);
}
);
width = 668;
},
{
anchors = (
{
name = bottom;
position = "{534, 0}";
},
{
name = top;
position = "{534, 708}";
}
);
layerId = "35A90D60-3AD4-435C-9F8B-D1CA483F6F66";
paths = (
{
closed = 1;
nodes = (
"811 -15 OFFCURVE",
"968 53 OFFCURVE",
"968 167 CURVE",
"968 266 OFFCURVE",
"862 318 OFFCURVE",
"545 374 CURVE SMOOTH",
"240 426 OFFCURVE",
"138 473 OFFCURVE",
"138 562 CURVE",
"138 654 OFFCURVE",
"288 708 OFFCURVE",
"524 708 CURVE SMOOTH",
"778 708 OFFCURVE",
"934 653 OFFCURVE",
"918 557 CURVE SMOOTH",
"900 451 LINE",
"915 451 LINE",
"948 630 LINE",
"835 692 OFFCURVE",
"695 723 OFFCURVE",
"524 723 CURVE SMOOTH",
"272 723 OFFCURVE",
"123 663 OFFCURVE",
"123 561 CURVE",
"123 463 OFFCURVE",
"228 413 OFFCURVE",
"544 359 CURVE SMOOTH",
"851 305 OFFCURVE",
"953 257 OFFCURVE",
"953 167 CURVE",
"953 62 OFFCURVE",
"795 0 OFFCURVE",
"544 0 CURVE SMOOTH",
"285 0 OFFCURVE",
"109 62 OFFCURVE",
"122 159 CURVE SMOOTH",
"138 280 LINE",
"123 280 LINE",
"90 81 LINE",
"244 14 OFFCURVE",
"383 -15 OFFCURVE",
"544 -15 CURVE SMOOTH"
);
}
);
width = 1058;
}
);
leftKerningGroup = SS;
rightKerningGroup = S;
unicode = 0053;
},
{
color = 6;
glyphname = Germandbls;
lastChange = "2023-02-19 07:03:36 +0000";
layers = (
{
layerId = "DF54607F-DD82-41E6-B2E3-81CA6D0E5C47";
paths = (
{
closed = 1;
nodes = (
"1498 -15 OFFCURVE",
"1718 66 OFFCURVE",
"1718 194 CURVE SMOOTH",
"1718 309 OFFCURVE",
"1548 391 OFFCURVE",
"1204 391 CURVE",
"1619 698 LINE",
"1619 708 LINE",
"70 708 LINE",
"70 20 LINE",
"20 10 LINE",
"20 0 LINE",
"640 0 LINE",
"640 10 LINE",
"590 20 LINE",
"590 698 LINE",
"1139 698 LINE",
"717 384 LINE",
"717 375 LINE",
"1038 375 OFFCURVE",
"1218 307 OFFCURVE",
"1218 186 CURVE SMOOTH",
"1218 97 OFFCURVE",
"1138 3 OFFCURVE",
"971 3 CURVE SMOOTH",
"876 3 OFFCURVE",
"834 17 OFFCURVE",
"834 31 CURVE SMOOTH",
"834 61 OFFCURVE",
"1077 60 OFFCURVE",
"1077 150 CURVE SMOOTH",
"1077 193 OFFCURVE",
"1011 247 OFFCURVE",
"849 247 CURVE SMOOTH",
"696 247 OFFCURVE",
"616 199 OFFCURVE",
"616 139 CURVE SMOOTH",
"616 63 OFFCURVE",
"738 -15 OFFCURVE",
"1148 -15 CURVE SMOOTH"
);
}
);
width = 1748;
},
{
layerId = "A5088515-37FF-452F-BD44-18A7A5EF88F0";
paths = (
{
closed = 1;
nodes = (
"563 -15 OFFCURVE",
"655 66 OFFCURVE",
"655 185 CURVE SMOOTH",
"655 310 OFFCURVE",
"556 387 OFFCURVE",
"383 387 CURVE",
"600 692 LINE",
"600 708 LINE",
"150 708 LINE",
"150 25 LINE",
"80 10 LINE",
"80 0 LINE",
"235 0 LINE",
"235 10 LINE",
"165 25 LINE",
"165 693 LINE",
"583 693 LINE",
"368 388 LINE",
"368 373 LINE",
"542 373 OFFCURVE",
"640 306 OFFCURVE",
"640 185 CURVE SMOOTH",
"640 75 OFFCURVE",
"553 0 OFFCURVE",
"433 0 CURVE SMOOTH",
"304 0 OFFCURVE",
"234 75 OFFCURVE",
"234 101 CURVE SMOOTH",
"234 133 OFFCURVE",
"323 139 OFFCURVE",
"323 181 CURVE SMOOTH",
"323 212 OFFCURVE",
"297 228 OFFCURVE",
"268 228 CURVE SMOOTH",
"236 228 OFFCURVE",
"201 205 OFFCURVE",
"201 158 CURVE SMOOTH",
"201 89 OFFCURVE",
"269 -15 OFFCURVE",
"433 -15 CURVE SMOOTH"
);
}
);
width = 715;
},
{
layerId = "2660E96A-9963-4076-AFCB-E451BC6EE103";
paths = (
{
closed = 1;
nodes = (
"760 -15 OFFCURVE",
"873 71 OFFCURVE",
"873 194 CURVE SMOOTH",
"873 306 OFFCURVE",
"762 394 OFFCURVE",
"620 394 CURVE",
"820 698 LINE",
"820 708 LINE",
"70 708 LINE",
"70 20 LINE",
"20 10 LINE",
"20 0 LINE",
"365 0 LINE",
"365 10 LINE",
"315 20 LINE",
"315 698 LINE",
"586 698 LINE",
"381 384 LINE",
"381 375 LINE",
"543 375 OFFCURVE",
"633 303 OFFCURVE",
"633 174 CURVE SMOOTH",
"633 87 OFFCURVE",
"596 3 OFFCURVE",
"509 3 CURVE SMOOTH",
"460 3 OFFCURVE",
"443 17 OFFCURVE",
"443 31 CURVE SMOOTH",
"443 60 OFFCURVE",
"568 60 OFFCURVE",
"568 150 CURVE SMOOTH",
"568 193 OFFCURVE",
"534 247 OFFCURVE",
"451 247 CURVE SMOOTH",
"372 247 OFFCURVE",
"331 199 OFFCURVE",
"331 139 CURVE SMOOTH",
"331 63 OFFCURVE",
"389 -15 OFFCURVE",
"600 -15 CURVE SMOOTH"
);
}
);
width = 903;
},
{
layerId = "35A90D60-3AD4-435C-9F8B-D1CA483F6F66";
paths = (
{
closed = 1;
nodes = (
"900 -15 OFFCURVE",
"1049 66 OFFCURVE",
"1049 185 CURVE SMOOTH",
"1049 312 OFFCURVE",
"880 387 OFFCURVE",
"578 387 CURVE",
"955 692 LINE",
"955 708 LINE",
"209 708 LINE",
"209 25 LINE",
"100 10 LINE",
"100 0 LINE",
"334 0 LINE",
"334 10 LINE",
"224 25 LINE",
"224 693 LINE",
"933 693 LINE",
"557 388 LINE",
"557 373 LINE",
"863 373 OFFCURVE",
"1034 306 OFFCURVE",
"1034 185 CURVE SMOOTH",
"1034 75 OFFCURVE",
"883 0 OFFCURVE",
"658 0 CURVE SMOOTH",
"453 0 OFFCURVE",
"312 75 OFFCURVE",
"312 101 CURVE SMOOTH",
"312 133 OFFCURVE",
"476 137 OFFCURVE",
"476 181 CURVE SMOOTH",
"476 212 OFFCURVE",
"431 228 OFFCURVE",
"381 228 CURVE SMOOTH",
"325 228 OFFCURVE",
"265 205 OFFCURVE",
"265 158 CURVE SMOOTH",
"265 89 OFFCURVE",
"392 -15 OFFCURVE",
"658 -15 CURVE SMOOTH"
);
}
);
width = 1119;
}
);
leftKerningGroup = HH;
leftMetricsKey = H;
rightKerningGroup = B;
rightMetricsKey = B;
unicode = 1E9E;
},
{
color = 4;
glyphname = T;
lastChange = "2023-02-19 07:03:36 +0000";
layers = (
{
anchors = (
{
name = bottom;
position = "{375, 0}";
},
{
name = center;
position = "{375, 354}";
},
{
name = top;
position = "{375, 708}";
}
);
layerId = "2660E96A-9963-4076-AFCB-E451BC6EE103";
paths = (
{
closed = 1;
nodes = (
"547 0 LINE",
"547 10 LINE",
"497 20 LINE",
"497 693 LINE",
"507 693 LINE SMOOTH",
"547 693 OFFCURVE",
"591 643 OFFCURVE",
"629 554 CURVE SMOOTH",
"689 414 LINE",
"709 414 LINE",
"744 708 LINE",
"5 708 LINE",
"40 414 LINE",
"60 414 LINE",
"120 554 LINE SMOOTH",
"157 643 OFFCURVE",
"201 693 OFFCURVE",
"242 693 CURVE SMOOTH",
"252 693 LINE",
"252 20 LINE",
"202 10 LINE",
"202 0 LINE"
);
}
);
width = 749;
},
{
anchors = (
{
name = bottom;
position = "{757, 0}";
},
{
name = center;
position = "{757, 354}";
},
{
name = top;
position = "{757, 708}";
}
);
layerId = "DF54607F-DD82-41E6-B2E3-81CA6D0E5C47";
paths = (
{
closed = 1;
nodes = (
"1123 0 LINE",
"1123 10 LINE",
"1017 20 LINE",
"1017 693 LINE",
"1038 693 LINE SMOOTH",
"1088 693 OFFCURVE",
"1171 643 OFFCURVE",
"1270 553 CURVE SMOOTH",
"1425 414 LINE",
"1435 414 LINE",
"1509 708 LINE",
"5 708 LINE",
"79 414 LINE",
"89 414 LINE",
"243 553 LINE SMOOTH",
"342 643 OFFCURVE",
"426 693 OFFCURVE",
"476 693 CURVE SMOOTH",
"497 693 LINE",
"497 20 LINE",
"391 10 LINE",
"391 0 LINE"
);
}
);
width = 1514;
},
{
anchors = (
{
name = bottom;
position = "{351, 0}";
},
{
name = center;
position = "{351, 354}";
},
{
name = top;
position = "{351, 708}";
}
);
layerId = "A5088515-37FF-452F-BD44-18A7A5EF88F0";
paths = (
{
closed = 1;
nodes = (
"428 0 LINE",
"428 10 LINE",
"358 25 LINE",
"358 693 LINE",
"526 693 LINE SMOOTH",
"593 693 OFFCURVE",
"620 674 OFFCURVE",
"612 583 CURVE SMOOTH",
"602 464 LINE",
"617 464 LINE",
"641 708 LINE",
"60 708 LINE",
"84 464 LINE",
"99 464 LINE",
"90 589 LINE SMOOTH",
"84 675 OFFCURVE",
"110 693 OFFCURVE",
"175 693 CURVE SMOOTH",
"343 693 LINE",
"343 25 LINE",
"273 10 LINE",
"273 0 LINE"
);
}
);
width = 701;
},
{
anchors = (
{
name = bottom;
position = "{541, 0}";
},
{
name = center;
position = "{541, 354}";
},
{
name = top;
position = "{541, 708}";
}
);
layerId = "35A90D60-3AD4-435C-9F8B-D1CA483F6F66";
paths = (
{
closed = 1;
nodes = (
"658 0 LINE",
"658 10 LINE",
"548 25 LINE",
"548 693 LINE",
"861 693 LINE SMOOTH",
"928 693 OFFCURVE",
"956 673 OFFCURVE",
"947 576 CURVE SMOOTH",
"937 464 LINE",
"952 464 LINE",
"976 708 LINE",
"105 708 LINE",
"129 464 LINE",
"144 464 LINE",
"136 578 LINE SMOOTH",
"129 674 OFFCURVE",
"154 693 OFFCURVE",
"220 693 CURVE SMOOTH",
"533 693 LINE",
"533 25 LINE",
"424 10 LINE",
"424 0 LINE"
);
}
);
width = 1081;
}
);
leftKerningGroup = T;
rightKerningGroup = TT;
unicode = 0054;
},
{
color = 4;
glyphname = U;
lastChange = "2023-02-19 07:03:36 +0000";
layers = (
{
anchors = (
{
name = bottom;
position = "{367, 0}";
},
{
name = ogonek;
position = "{436, 10}";
},
{
name = top;
position = "{387, 708}";
},
{
name = topright;
position = "{713, 708}";
}
);
layerId = "2660E96A-9963-4076-AFCB-E451BC6EE103";
paths = (
{
closed = 1;
nodes = (
"565 0 OFFCURVE",
"653 113 OFFCURVE",
"653 315 CURVE SMOOTH",
"653 689 LINE",
"723 698 LINE",
"723 708 LINE",
"418 708 LINE",
"418 698 LINE",
"538 605 OFFCURVE",
"633 424 OFFCURVE",
"633 287 CURVE SMOOTH",
"633 271 LINE",
"633 149 OFFCURVE",
"578 81 OFFCURVE",
"479 81 CURVE SMOOTH",
"375 81 OFFCURVE",
"315 171 OFFCURVE",
"315 332 CURVE",
"315 689 LINE",
"375 698 LINE",
"375 708 LINE",
"20 708 LINE",
"20 698 LINE",
"70 689 LINE",
"70 303 LINE",
"70 108 OFFCURVE",
"181 0 OFFCURVE",
"387 0 CURVE SMOOTH"
);
}
);
width = 733;
},
{
anchors = (
{
name = bottom;
position = "{629, 0}";
},
{
name = ogonek;
position = "{824, 10}";
},
{
name = top;
position = "{659, 708}";
},
{
name = topright;
position = "{1237, 708}";
}
);
layerId = "DF54607F-DD82-41E6-B2E3-81CA6D0E5C47";
paths = (
{
closed = 1;
nodes = (
"1037 0 OFFCURVE",
"1198 113 OFFCURVE",
"1198 293 CURVE SMOOTH",
"1198 689 LINE",
"1247 698 LINE",
"1247 708 LINE",
"725 708 LINE",
"725 698 LINE",
"980 604 OFFCURVE",
"1181 432 OFFCURVE",
"1181 306 CURVE SMOOTH",
"1181 293 LINE",
"1181 160 OFFCURVE",
"1060 81 OFFCURVE",
"854 81 CURVE SMOOTH",
"689 81 OFFCURVE",
"586 174 OFFCURVE",
"586 332 CURVE",
"586 689 LINE",
"623 698 LINE",
"623 708 LINE",
"20 708 LINE",
"20 698 LINE",
"66 689 LINE",
"66 293 LINE",
"66 108 OFFCURVE",
"302 0 OFFCURVE",
"739 0 CURVE SMOOTH"
);
}
);
width = 1257;
},
{
anchors = (
{
name = bottom;
position = "{376, 0}";
},
{
name = ogonek;
position = "{491, 10}";
},
{
name = top;
position = "{376, 708}";
},
{
name = topright;
position = "{720, 708}";
}
);
layerId = "A5088515-37FF-452F-BD44-18A7A5EF88F0";
paths = (
{
closed = 1;
nodes = (
"555 -15 OFFCURVE",
"635 90 OFFCURVE",
"635 304 CURVE SMOOTH",
"635 683 LINE",
"705 698 LINE",
"705 708 LINE",
"510 708 LINE",
"510 698 LINE",
"592 698 OFFCURVE",
"619 664 OFFCURVE",
"619 562 CURVE SMOOTH",
"619 304 LINE SMOOTH",
"619 100 OFFCURVE",
"544 0 OFFCURVE",
"391 0 CURVE SMOOTH",
"219 0 OFFCURVE",
"135 100 OFFCURVE",
"135 304 CURVE SMOOTH",
"135 683 LINE",
"205 698 LINE",
"205 708 LINE",
"50 708 LINE",
"50 698 LINE",
"120 683 LINE",
"120 304 LINE SMOOTH",
"120 90 OFFCURVE",
"209 -15 OFFCURVE",
"391 -15 CURVE SMOOTH"
);
}
);
width = 740;
},
{
anchors = (
{
name = bottom;
position = "{572, 0}";
},
{
name = ogonek;
position = "{742, 10}";
},
{
name = top;
position = "{572, 708}";
},
{
name = topright;
position = "{1104, 708}";
}
);
layerId = "35A90D60-3AD4-435C-9F8B-D1CA483F6F66";
paths = (
{
closed = 1;
nodes = (
"842 -15 OFFCURVE",
"965 90 OFFCURVE",
"965 304 CURVE SMOOTH",
"965 683 LINE",
"1074 698 LINE",
"1074 708 LINE",
"783 708 LINE",
"783 698 LINE",
"908 698 OFFCURVE",
"950 664 OFFCURVE",
"950 562 CURVE SMOOTH",
"950 304 LINE SMOOTH",
"950 100 OFFCURVE",
"832 0 OFFCURVE",
"590 0 CURVE SMOOTH",
"321 0 OFFCURVE",
"189 100 OFFCURVE",
"189 304 CURVE SMOOTH",
"189 683 LINE",
"299 698 LINE",
"299 708 LINE",
"65 708 LINE",
"65 698 LINE",
"174 683 LINE",
"174 304 LINE SMOOTH",
"174 90 OFFCURVE",
"311 -15 OFFCURVE",
"590 -15 CURVE SMOOTH"
);
}
);
width = 1124;
}
);
leftKerningGroup = UU;
rightKerningGroup = U;
unicode = 0055;
},
{
color = 4;
glyphname = V;
lastChange = "2023-02-19 07:03:36 +0000";
layers = (
{
layerId = "2660E96A-9963-4076-AFCB-E451BC6EE103";
paths = (
{
closed = 1;
nodes = (
"481 0 LINE",
"757 688 LINE",
"808 698 LINE",
"808 708 LINE",
"444 708 LINE",
"444 698 LINE",
"540 653 OFFCURVE",
"593 557 OFFCURVE",
"593 431 CURVE SMOOTH",
"593 359 OFFCURVE",
"574 270 OFFCURVE",
"539 182 CURVE",
"537 177 LINE",
"524 177 LINE",
"318 689 LINE",
"390 698 LINE",
"390 708 LINE",
"5 708 LINE",
"5 698 LINE",
"53 688 LINE",
"329 0 LINE"
);
}
);
width = 813;
},
{
layerId = "DF54607F-DD82-41E6-B2E3-81CA6D0E5C47";
paths = (
{
closed = 1;
nodes = (
"737 0 LINE",
"1194 688 LINE",
"1246 698 LINE",
"1246 708 LINE",
"677 708 LINE",
"677 698 LINE",
"802 656 OFFCURVE",
"872 545 OFFCURVE",
"872 388 CURVE SMOOTH",
"872 324 OFFCURVE",
"859 247 OFFCURVE",
"835 173 CURVE",
"833 167 LINE",
"812 167 LINE",
"478 689 LINE",
"548 703 LINE",
"548 708 LINE",
"5 708 LINE",
"5 698 LINE",
"53 688 LINE",
"493 0 LINE"
);
}
);
width = 1251;
},
{
layerId = "A5088515-37FF-452F-BD44-18A7A5EF88F0";
paths = (
{
closed = 1;
nodes = (
"354 0 LINE",
"609 683 LINE",
"679 698 LINE",
"679 708 LINE",
"482 708 LINE",
"482 698 LINE",
"553 698 OFFCURVE",
"577 688 OFFCURVE",
"577 656 CURVE SMOOTH",
"577 644 OFFCURVE",
"573 626 OFFCURVE",
"565 605 CURVE",
"349 28 LINE",
"340 28 LINE",
"95 684 LINE",
"166 698 LINE",
"166 708 LINE",
"10 708 LINE",
"10 698 LINE",
"80 683 LINE",
"336 0 LINE"
);
}
);
width = 689;
},
{
layerId = "35A90D60-3AD4-435C-9F8B-D1CA483F6F66";
paths = (
{
closed = 1;
nodes = (
"539 0 LINE",
"927 683 LINE",
"1034 698 LINE",
"1034 708 LINE",
"742 708 LINE",
"742 698 LINE",
"851 698 OFFCURVE",
"887 687 OFFCURVE",
"887 655 CURVE SMOOTH",
"887 643 OFFCURVE",
"881 625 OFFCURVE",
"869 605 CURVE",
"540 28 LINE",
"525 28 LINE",
"152 684 LINE",
"260 698 LINE",
"260 708 LINE",
"30 708 LINE",
"30 698 LINE",
"137 683 LINE",
"527 0 LINE"
);
}
);
width = 1064;
}
);
leftKerningGroup = VV;
rightKerningGroup = V;
unicode = 0056;
},
{
color = 4;
glyphname = W;
lastChange = "2023-02-19 07:03:36 +0000";
layers = (
{
anchors = (
{
name = bottom;
position = "{617, 0}";
},
{
name = top;
position = "{617, 708}";
}
);
layerId = "2660E96A-9963-4076-AFCB-E451BC6EE103";
paths = (
{
closed = 1;
nodes = (
"481 0 LINE",
"756 684 LINE",
"807 698 LINE",
"807 708 LINE",
"444 708 LINE",
"444 698 LINE",
"538 654 OFFCURVE",
"585 562 OFFCURVE",
"585 420 CURVE SMOOTH",
"585 344 OFFCURVE",
"569 262 OFFCURVE",
"541 187 CURVE",
"537 177 LINE",
"524 177 LINE",
"320 684 LINE",
"390 698 LINE",
"390 708 LINE",
"5 708 LINE",
"5 698 LINE",
"55 683 LINE",
"329 0 LINE"
);
},
{
closed = 1;
nodes = (
"887 0 LINE",
"1160 683 LINE",
"1213 698 LINE",
"1213 708 LINE",
"850 708 LINE",
"850 698 LINE",
"946 653 OFFCURVE",
"999 537 OFFCURVE",
"999 421 CURVE SMOOTH",
"999 355 OFFCURVE",
"981 277 OFFCURVE",
"947 188 CURVE",
"943 177 LINE",
"930 177 LINE",
"733 666 LINE",
"591 360 LINE",
"735 0 LINE"
);
}
);
width = 1218;
},
{
anchors = (
{
name = bottom;
position = "{948, 0}";
},
{
name = top;
position = "{948, 708}";
}
);
layerId = "DF54607F-DD82-41E6-B2E3-81CA6D0E5C47";
paths = (
{
closed = 1;
nodes = (
"737 0 LINE",
"1194 688 LINE",
"1246 698 LINE",
"1246 708 LINE",
"677 708 LINE",
"677 698 LINE",
"802 656 OFFCURVE",
"872 545 OFFCURVE",
"872 391 CURVE SMOOTH",
"872 325 OFFCURVE",
"860 252 OFFCURVE",
"837 179 CURVE",
"833 167 LINE",
"812 167 LINE",
"478 689 LINE",
"548 703 LINE",
"548 708 LINE",
"5 708 LINE",
"5 698 LINE",
"53 688 LINE",
"493 0 LINE"
);
},
{
closed = 1;
nodes = (
"1355 0 LINE",
"1812 688 LINE",
"1864 698 LINE",
"1864 708 LINE",
"1295 708 LINE",
"1295 698 LINE",
"1420 656 OFFCURVE",
"1490 545 OFFCURVE",
"1490 393 CURVE SMOOTH",
"1490 326 OFFCURVE",
"1479 254 OFFCURVE",
"1456 181 CURVE",
"1451 167 LINE",
"1430 167 LINE",
"1108 670 LINE",
"882 358 LINE",
"1111 0 LINE"
);
}
);
width = 1869;
},
{
anchors = (
{
name = bottom;
position = "{575, 0}";
},
{
name = top;
position = "{575, 708}";
}
);
layerId = "A5088515-37FF-452F-BD44-18A7A5EF88F0";
paths = (
{
closed = 1;
nodes = (
"354 0 LINE",
"609 683 LINE",
"679 698 LINE",
"679 708 LINE",
"482 708 LINE",
"482 698 LINE",
"553 698 OFFCURVE",
"577 688 OFFCURVE",
"577 656 CURVE SMOOTH",
"577 643 OFFCURVE",
"573 627 OFFCURVE",
"565 605 CURVE",
"349 28 LINE",
"340 28 LINE",
"95 684 LINE",
"166 698 LINE",
"166 708 LINE",
"10 708 LINE",
"10 698 LINE",
"80 683 LINE",
"336 0 LINE"
);
},
{
closed = 1;
nodes = (
"776 0 LINE",
"1031 683 LINE",
"1101 698 LINE",
"1101 708 LINE",
"904 708 LINE",
"904 698 LINE",
"975 698 OFFCURVE",
"999 688 OFFCURVE",
"999 656 CURVE SMOOTH",
"999 643 OFFCURVE",
"995 626 OFFCURVE",
"987 605 CURVE",
"771 28 LINE",
"762 28 LINE",
"558 573 LINE",
"550 554 LINE",
"758 0 LINE"
);
}
);
width = 1111;
},
{
anchors = (
{
name = bottom;
position = "{881, 0}";
},
{
name = top;
position = "{881, 708}";
}
);
layerId = "35A90D60-3AD4-435C-9F8B-D1CA483F6F66";
paths = (
{
closed = 1;
nodes = (
"539 0 LINE",
"927 683 LINE",
"1034 698 LINE",
"1034 708 LINE",
"742 708 LINE",
"742 698 LINE",
"851 698 OFFCURVE",
"887 687 OFFCURVE",
"887 655 CURVE SMOOTH",
"887 643 OFFCURVE",
"881 625 OFFCURVE",
"869 605 CURVE",
"540 28 LINE",
"525 28 LINE",
"152 684 LINE",
"260 698 LINE",
"260 708 LINE",
"30 708 LINE",
"30 698 LINE",
"137 683 LINE",
"527 0 LINE"
);
},
{
closed = 1;
nodes = (
"1096 0 LINE",
"1484 683 LINE",
"1591 698 LINE",
"1591 708 LINE",
"1299 708 LINE",
"1299 698 LINE",
"1408 698 OFFCURVE",
"1444 688 OFFCURVE",
"1444 656 CURVE SMOOTH",
"1444 644 OFFCURVE",
"1438 626 OFFCURVE",
"1426 605 CURVE",
"1097 28 LINE",
"1082 28 LINE",
"813 501 LINE",
"807 486 LINE",
"1084 0 LINE"
);
}
);
width = 1621;
}
);
leftKerningGroup = VV;
leftMetricsKey = V;
rightKerningGroup = V;
rightMetricsKey = V;
unicode = 0057;
},
{
color = 4;
glyphname = X;
lastChange = "2023-02-19 07:03:36 +0000";
layers = (
{
layerId = "2660E96A-9963-4076-AFCB-E451BC6EE103";
paths = (
{
closed = 1;
nodes = (
"838 0 LINE",
"838 10 LINE",
"771 20 LINE",
"357 689 LINE",
"430 698 LINE",
"430 708 LINE",
"5 708 LINE",
"5 698 LINE",
"72 688 LINE",
"486 20 LINE",
"413 10 LINE",
"413 0 LINE"
);
},
{
closed = 1;
nodes = (
"383 0 LINE",
"383 10 LINE",
"307 29 OFFCURVE",
"259 88 OFFCURVE",
"259 161 CURVE SMOOTH",
"259 199 OFFCURVE",
"270 239 OFFCURVE",
"299 278 CURVE SMOOTH",
"302 282 LINE",
"335 282 LINE",
"309 326 LINE",
"71 20 LINE",
"5 10 LINE",
"5 0 LINE"
);
},
{
closed = 1;
nodes = (
"527 397 LINE",
"789 689 LINE",
"838 698 LINE",
"838 708 LINE",
"477 708 LINE",
"477 698 LINE",
"538 684 OFFCURVE",
"586 619 OFFCURVE",
"586 550 CURVE SMOOTH",
"586 517 OFFCURVE",
"574 479 OFFCURVE",
"541 446 CURVE SMOOTH",
"535 440 LINE",
"501 440 LINE"
);
}
);
width = 843;
},
{
layerId = "DF54607F-DD82-41E6-B2E3-81CA6D0E5C47";
paths = (
{
closed = 1;
nodes = (
"1364 0 LINE",
"1364 10 LINE",
"1297 20 LINE",
"603 689 LINE",
"676 698 LINE",
"676 708 LINE",
"5 708 LINE",
"5 698 LINE",
"72 688 LINE",
"766 20 LINE",
"692 10 LINE",
"692 0 LINE"
);
},
{
closed = 1;
nodes = (
"618 0 LINE",
"618 10 LINE",
"510 46 OFFCURVE",
"443 114 OFFCURVE",
"443 188 CURVE SMOOTH",
"443 217 OFFCURVE",
"455 246 OFFCURVE",
"479 278 CURVE SMOOTH",
"482 282 LINE",
"505 282 LINE",
"478 313 LINE",
"96 20 LINE",
"30 10 LINE",
"30 0 LINE"
);
},
{
closed = 1;
nodes = (
"878 410 LINE",
"1298 689 LINE",
"1347 698 LINE",
"1347 708 LINE",
"775 708 LINE",
"775 698 LINE",
"856 677 OFFCURVE",
"919 605 OFFCURVE",
"919 534 CURVE SMOOTH",
"919 505 OFFCURVE",
"907 474 OFFCURVE",
"879 446 CURVE SMOOTH",
"873 440 LINE",
"849 440 LINE"
);
}
);
width = 1369;
},
{
layerId = "A5088515-37FF-452F-BD44-18A7A5EF88F0";
paths = (
{
closed = 1;
nodes = (
"660 0 LINE",
"660 10 LINE",
"590 25 LINE",
"109 684 LINE",
"179 698 LINE",
"179 708 LINE",
"25 708 LINE",
"25 698 LINE",
"95 683 LINE",
"574 25 LINE",
"504 10 LINE",
"504 0 LINE"
);
},
{
closed = 1;
nodes = (
"238 0 LINE",
"238 10 LINE",
"163 10 OFFCURVE",
"133 20 OFFCURVE",
"133 44 CURVE SMOOTH",
"133 57 OFFCURVE",
"142 74 OFFCURVE",
"164 105 CURVE SMOOTH",
"325 324 LINE",
"359 324 LINE",
"335 358 LINE",
"90 24 LINE",
"20 10 LINE",
"20 0 LINE"
);
},
{
closed = 1;
nodes = (
"348 353 LINE",
"591 684 LINE",
"661 698 LINE",
"661 708 LINE",
"449 708 LINE",
"449 698 LINE",
"526 698 OFFCURVE",
"554 689 OFFCURVE",
"554 667 CURVE SMOOTH",
"554 657 OFFCURVE",
"545 641 OFFCURVE",
"517 602 CURVE SMOOTH",
"351 378 LINE",
"329 378 LINE"
);
}
);
width = 681;
},
{
layerId = "35A90D60-3AD4-435C-9F8B-D1CA483F6F66";
paths = (
{
closed = 1;
nodes = (
"978 0 LINE",
"978 10 LINE",
"870 25 LINE",
"171 684 LINE",
"279 698 LINE",
"279 708 LINE",
"44 708 LINE",
"44 698 LINE",
"152 683 LINE",
"848 25 LINE",
"739 10 LINE",
"739 0 LINE"
);
},
{
closed = 1;
nodes = (
"375 0 LINE",
"375 10 LINE",
"258 10 OFFCURVE",
"212 20 OFFCURVE",
"212 44 CURVE SMOOTH",
"212 59 OFFCURVE",
"224 74 OFFCURVE",
"260 105 CURVE SMOOTH",
"509 324 LINE",
"535 324 LINE",
"513 345 LINE",
"148 24 LINE",
"40 10 LINE",
"40 0 LINE"
);
},
{
closed = 1;
nodes = (
"528 344 LINE",
"915 684 LINE",
"1023 698 LINE",
"1023 708 LINE",
"698 708 LINE",
"698 698 LINE",
"817 698 OFFCURVE",
"860 689 OFFCURVE",
"860 667 CURVE SMOOTH",
"860 657 OFFCURVE",
"846 641 OFFCURVE",
"802 602 CURVE SMOOTH",
"534 367 LINE",
"504 367 LINE"
);
}
);
width = 1063;
}
);
leftKerningGroup = X;
rightKerningGroup = XX;
unicode = 0058;
},
{
color = 4;
glyphname = Y;
lastChange = "2023-02-19 07:03:36 +0000";
layers = (
{
anchors = (
{
name = bottom;
position = "{411, 0}";
},
{
name = top;
position = "{411, 708}";
},
{
name = topleft;
position = "{20, 708}";
}
);
layerId = "2660E96A-9963-4076-AFCB-E451BC6EE103";
paths = (
{
closed = 1;
nodes = (
"566 0 LINE",
"566 10 LINE",
"516 25 LINE",
"516 319 LINE",
"709 688 LINE",
"757 698 LINE",
"757 708 LINE",
"473 708 LINE",
"473 698 LINE",
"544 652 OFFCURVE",
"579 596 OFFCURVE",
"579 529 CURVE SMOOTH",
"579 489 OFFCURVE",
"560 429 OFFCURVE",
"523 364 CURVE SMOOTH",
"519 357 LINE",
"499 357 LINE",
"326 689 LINE",
"408 698 LINE",
"408 708 LINE",
"5 708 LINE",
"5 698 LINE",
"53 688 LINE",
"271 272 LINE",
"271 25 LINE",
"221 10 LINE",
"221 0 LINE"
);
}
);
width = 762;
},
{
anchors = (
{
name = bottom;
position = "{773, 0}";
},
{
name = top;
position = "{773, 708}";
},
{
name = topleft;
position = "{20, 708}";
}
);
layerId = "DF54607F-DD82-41E6-B2E3-81CA6D0E5C47";
paths = (
{
closed = 1;
nodes = (
"1057 0 LINE",
"1057 10 LINE",
"1007 25 LINE",
"1007 320 LINE",
"1392 688 LINE",
"1440 698 LINE",
"1440 708 LINE",
"923 708 LINE",
"923 698 LINE",
"1011 651 OFFCURVE",
"1055 585 OFFCURVE",
"1055 500 CURVE SMOOTH",
"1055 463 OFFCURVE",
"1043 408 OFFCURVE",
"1010 355 CURVE SMOOTH",
"1005 347 LINE",
"993 347 LINE",
"635 689 LINE",
"719 698 LINE",
"719 708 LINE",
"5 708 LINE",
"5 698 LINE",
"53 688 LINE",
"487 273 LINE",
"487 25 LINE",
"437 10 LINE",
"437 0 LINE"
);
}
);
width = 1445;
},
{
anchors = (
{
name = bottom;
position = "{315, 0}";
},
{
name = top;
position = "{315, 708}";
},
{
name = topleft;
position = "{20, 708}";
}
);
layerId = "A5088515-37FF-452F-BD44-18A7A5EF88F0";
paths = (
{
closed = 1;
nodes = (
"392 0 LINE",
"392 10 LINE",
"322 25 LINE",
"322 303 LINE",
"549 683 LINE",
"616 698 LINE",
"616 708 LINE",
"425 708 LINE",
"425 698 LINE",
"492 698 OFFCURVE",
"514 689 OFFCURVE",
"514 662 CURVE SMOOTH",
"514 655 OFFCURVE",
"511 646 OFFCURVE",
"506 637 CURVE SMOOTH",
"323 331 LINE",
"306 331 LINE",
"95 684 LINE",
"165 698 LINE",
"165 708 LINE",
"10 708 LINE",
"10 698 LINE",
"80 683 LINE",
"307 303 LINE",
"307 25 LINE",
"237 10 LINE",
"237 0 LINE"
);
}
);
width = 626;
},
{
anchors = (
{
name = bottom;
position = "{506, 0}";
},
{
name = top;
position = "{506, 708}";
},
{
name = topleft;
position = "{20, 708}";
}
);
layerId = "35A90D60-3AD4-435C-9F8B-D1CA483F6F66";
paths = (
{
closed = 1;
nodes = (
"624 0 LINE",
"624 10 LINE",
"513 25 LINE",
"513 305 LINE",
"869 683 LINE",
"975 698 LINE",
"975 708 LINE",
"680 708 LINE",
"680 698 LINE",
"786 698 OFFCURVE",
"821 689 OFFCURVE",
"821 663 CURVE SMOOTH",
"821 656 OFFCURVE",
"816 646 OFFCURVE",
"808 637 CURVE SMOOTH",
"519 331 LINE",
"490 331 LINE",
"157 684 LINE",
"267 698 LINE",
"267 708 LINE",
"30 708 LINE",
"30 698 LINE",
"140 683 LINE",
"498 303 LINE",
"498 25 LINE",
"387 10 LINE",
"387 0 LINE"
);
}
);
width = 1005;
}
);
leftKerningGroup = VV;
leftMetricsKey = V;
rightKerningGroup = V;
rightMetricsKey = V;
unicode = 0059;
},
{
color = 4;
glyphname = Z;
lastChange = "2023-02-19 07:03:36 +0000";
layers = (
{
anchors = (
{
name = bottom;
position = "{361, 0}";
},
{
name = center;
position = "{361, 354}";
},
{
name = top;
position = "{361, 708}";
}
);
layerId = "2660E96A-9963-4076-AFCB-E451BC6EE103";
paths = (
{
closed = 1;
nodes = (
"664 0 LINE",
"629 304 LINE",
"609 304 LINE",
"561 193 LINE SMOOTH",
"510 75 OFFCURVE",
"452 16 OFFCURVE",
"389 16 CURVE",
"283 16 LINE",
"682 708 LINE",
"48 708 LINE",
"83 403 LINE",
"103 403 LINE",
"165 537 LINE SMOOTH",
"213 640 OFFCURVE",
"266 692 OFFCURVE",
"323 692 CURVE",
"419 692 LINE",
"20 0 LINE"
);
}
);
width = 702;
},
{
anchors = (
{
name = bottom;
position = "{659, 0}";
},
{
name = center;
position = "{659, 354}";
},
{
name = top;
position = "{659, 708}";
}
);
layerId = "DF54607F-DD82-41E6-B2E3-81CA6D0E5C47";
paths = (
{
closed = 1;
nodes = (
"1318 0 LINE",
"1226 304 LINE",
"1216 304 LINE",
"1102 188 LINE SMOOTH",
"975 59 OFFCURVE",
"864 16 OFFCURVE",
"658 16 CURVE",
"609 16 LINE",
"1300 708 LINE",
"50 708 LINE",
"112 403 LINE",
"122 403 LINE",
"267 519 LINE SMOOTH",
"411 634 OFFCURVE",
"538 692 OFFCURVE",
"650 692 CURVE",
"691 692 LINE",
"20 0 LINE"
);
}
);
width = 1338;
},
{
anchors = (
{
name = bottom;
position = "{338, 0}";
},
{
name = center;
position = "{338, 354}";
},
{
name = top;
position = "{338, 708}";
}
);
layerId = "A5088515-37FF-452F-BD44-18A7A5EF88F0";
paths = (
{
closed = 1;
nodes = (
"602 0 LINE",
"572 260 LINE",
"562 260 LINE",
"568 168 LINE SMOOTH",
"576 39 OFFCURVE",
"558 15 OFFCURVE",
"520 15 CURVE SMOOTH",
"81 15 LINE",
"616 708 LINE",
"80 708 LINE",
"106 464 LINE",
"116 464 LINE",
"114 570 LINE SMOOTH",
"112 671 OFFCURVE",
"125 693 OFFCURVE",
"161 693 CURVE SMOOTH",
"584 693 LINE",
"50 0 LINE"
);
}
);
width = 666;
},
{
anchors = (
{
name = bottom;
position = "{543, 0}";
},
{
name = center;
position = "{543, 354}";
},
{
name = top;
position = "{543, 708}";
}
);
layerId = "35A90D60-3AD4-435C-9F8B-D1CA483F6F66";
paths = (
{
closed = 1;
nodes = (
"962 0 LINE",
"932 260 LINE",
"922 260 LINE",
"928 159 LINE SMOOTH",
"935 37 OFFCURVE",
"918 15 OFFCURVE",
"880 15 CURVE SMOOTH",
"119 15 LINE",
"985 708 LINE",
"118 708 LINE",
"144 464 LINE",
"154 464 LINE",
"151 564 LINE SMOOTH",
"148 667 OFFCURVE",
"160 693 OFFCURVE",
"189 693 CURVE SMOOTH",
"944 693 LINE",
"80 0 LINE"
);
}
);
width = 1065;
}
);
leftKerningGroup = ZZ;
rightKerningGroup = Z;
unicode = 005A;
},
{
color = 4;
glyphname = a;
lastChange = "2023-02-19 07:03:36 +0000";
layers = (
{
anchors = (
{
name = bottom;
position = "{324, 0}";
},
{
name = ogonek;
position = "{607, 10}";
},
{
name = top;
position = "{312, 500}";
}
);
layerId = "2660E96A-9963-4076-AFCB-E451BC6EE103";
paths = (
{
closed = 1;
nodes = (
"174 515 OFFCURVE",
"33 439 OFFCURVE",
"33 364 CURVE SMOOTH",
"33 306 OFFCURVE",
"89 275 OFFCURVE",
"166 275 CURVE SMOOTH",
"245 275 OFFCURVE",
"302 306 OFFCURVE",
"302 364 CURVE SMOOTH",
"302 397 OFFCURVE",
"278 421 OFFCURVE",
"229 437 CURVE SMOOTH",
"180 453 OFFCURVE",
"164 461 OFFCURVE",
"164 469 CURVE SMOOTH",
"164 477 OFFCURVE",
"197 494 OFFCURVE",
"246 494 CURVE SMOOTH",
"342 494 OFFCURVE",
"356 453 OFFCURVE",
"356 279 CURVE",
"139 279 OFFCURVE",
"10 213 OFFCURVE",
"10 101 CURVE SMOOTH",
"10 33 OFFCURVE",
"66 -15 OFFCURVE",
"144 -15 CURVE SMOOTH",
"226 -15 OFFCURVE",
"302 50 OFFCURVE",
"349 160 CURVE",
"356 154 LINE",
"356 146 OFFCURVE",
"356 143 OFFCURVE",
"356 140 CURVE SMOOTH",
"356 28 OFFCURVE",
"420 -15 OFFCURVE",
"516 -15 CURVE SMOOTH",
"562 -15 OFFCURVE",
"615 -1 OFFCURVE",
"643 20 CURVE",
"643 30 LINE",
"624 19 OFFCURVE",
"611 14 OFFCURVE",
"603 14 CURVE SMOOTH",
"594 14 OFFCURVE",
"591 22 OFFCURVE",
"591 32 CURVE SMOOTH",
"591 325 LINE SMOOTH",
"591 453 OFFCURVE",
"512 515 OFFCURVE",
"331 515 CURVE SMOOTH"
);
},
{
closed = 1;
nodes = (
"356 198 LINE",
"320 100 OFFCURVE",
"281 65 OFFCURVE",
"254 65 CURVE SMOOTH",
"234 65 OFFCURVE",
"224 83 OFFCURVE",
"224 119 CURVE SMOOTH",
"224 179 OFFCURVE",
"260 269 OFFCURVE",
"356 269 CURVE"
);
}
);
width = 648;
},
{
anchors = (
{
name = bottom;
position = "{628, 0}";
},
{
name = ogonek;
position = "{1194, 10}";
},
{
name = top;
position = "{628, 500}";
}
);
layerId = "DF54607F-DD82-41E6-B2E3-81CA6D0E5C47";
paths = (
{
closed = 1;
nodes = (
"287 515 OFFCURVE",
"30 455 OFFCURVE",
"30 370 CURVE SMOOTH",
"30 316 OFFCURVE",
"131 282 OFFCURVE",
"293 282 CURVE SMOOTH",
"489 282 OFFCURVE",
"594 322 OFFCURVE",
"594 391 CURVE SMOOTH",
"594 420 OFFCURVE",
"576 444 OFFCURVE",
"539 462 CURVE SMOOTH",
"507 477 OFFCURVE",
"496 484 OFFCURVE",
"496 490 CURVE SMOOTH",
"496 500 OFFCURVE",
"514 505 OFFCURVE",
"549 505 CURVE SMOOTH",
"657 505 OFFCURVE",
"678 440 OFFCURVE",
"678 279 CURVE",
"240 279 OFFCURVE",
"10 224 OFFCURVE",
"10 111 CURVE SMOOTH",
"10 32 OFFCURVE",
"111 -15 OFFCURVE",
"281 -15 CURVE SMOOTH",
"522 -15 OFFCURVE",
"611 29 OFFCURVE",
"671 166 CURVE",
"678 159 LINE",
"678 146 OFFCURVE",
"678 143 OFFCURVE",
"678 140 CURVE SMOOTH",
"678 36 OFFCURVE",
"786 -15 OFFCURVE",
"1007 -15 CURVE SMOOTH",
"1105 -15 OFFCURVE",
"1206 -1 OFFCURVE",
"1250 20 CURVE",
"1250 30 LINE",
"1230 23 OFFCURVE",
"1217 20 OFFCURVE",
"1209 20 CURVE SMOOTH",
"1201 20 OFFCURVE",
"1198 25 OFFCURVE",
"1198 35 CURVE SMOOTH",
"1198 295 LINE SMOOTH",
"1198 471 OFFCURVE",
"1101 515 OFFCURVE",
"653 515 CURVE SMOOTH"
);
},
{
closed = 1;
nodes = (
"678 208 LINE",
"650 124 OFFCURVE",
"604 66 OFFCURVE",
"574 66 CURVE SMOOTH",
"549 66 OFFCURVE",
"536 91 OFFCURVE",
"536 124 CURVE SMOOTH",
"536 184 OFFCURVE",
"582 269 OFFCURVE",
"678 269 CURVE"
);
}
);
width = 1255;
},
{
anchors = (
{
name = bottom;
position = "{296, 0}";
},
{
name = ogonek;
position = "{572, 10}";
},
{
name = top;
position = "{296, 500}";
}
);
layerId = "A5088515-37FF-452F-BD44-18A7A5EF88F0";
paths = (
{
closed = 1;
nodes = (
"195 515 OFFCURVE",
"93 454 OFFCURVE",
"93 398 CURVE SMOOTH",
"93 370 OFFCURVE",
"119 357 OFFCURVE",
"145 357 CURVE SMOOTH",
"171 357 OFFCURVE",
"197 370 OFFCURVE",
"197 395 CURVE SMOOTH",
"197 410 OFFCURVE",
"189 421 OFFCURVE",
"172 430 CURVE SMOOTH",
"151 440 OFFCURVE",
"144 445 OFFCURVE",
"144 451 CURVE SMOOTH",
"144 470 OFFCURVE",
"209 500 OFFCURVE",
"302 500 CURVE SMOOTH",
"427 500 OFFCURVE",
"477 425 OFFCURVE",
"477 262 CURVE",
"203 262 OFFCURVE",
"70 204 OFFCURVE",
"70 91 CURVE SMOOTH",
"70 15 OFFCURVE",
"131 -15 OFFCURVE",
"203 -15 CURVE SMOOTH",
"297 -15 OFFCURVE",
"416 40 OFFCURVE",
"467 136 CURVE",
"477 130 LINE",
"477 113 OFFCURVE",
"477 109 OFFCURVE",
"477 43 CURVE SMOOTH",
"477 4 OFFCURVE",
"490 -15 OFFCURVE",
"519 -15 CURVE SMOOTH",
"545 -15 OFFCURVE",
"574 -2 OFFCURVE",
"596 20 CURVE",
"596 31 LINE",
"573 13 OFFCURVE",
"545 0 OFFCURVE",
"523 0 CURVE SMOOTH",
"505 0 OFFCURVE",
"491 10 OFFCURVE",
"491 37 CURVE SMOOTH",
"491 262 LINE SMOOTH",
"491 436 OFFCURVE",
"437 515 OFFCURVE",
"302 515 CURVE SMOOTH"
);
},
{
closed = 1;
nodes = (
"477 183 LINE",
"433 63 OFFCURVE",
"302 0 OFFCURVE",
"203 0 CURVE SMOOTH",
"136 0 OFFCURVE",
"84 25 OFFCURVE",
"84 91 CURVE SMOOTH",
"84 196 OFFCURVE",
"214 248 OFFCURVE",
"477 248 CURVE"
);
}
);
width = 626;
},
{
anchors = (
{
name = bottom;
position = "{476, 0}";
},
{
name = ogonek;
position = "{913, 10}";
},
{
name = top;
position = "{446, 500}";
}
);
layerId = "35A90D60-3AD4-435C-9F8B-D1CA483F6F66";
paths = (
{
closed = 1;
nodes = (
"292 515 OFFCURVE",
"129 454 OFFCURVE",
"129 398 CURVE SMOOTH",
"129 370 OFFCURVE",
"172 357 OFFCURVE",
"215 357 CURVE SMOOTH",
"258 357 OFFCURVE",
"302 370 OFFCURVE",
"302 395 CURVE SMOOTH",
"302 411 OFFCURVE",
"288 422 OFFCURVE",
"259 430 CURVE SMOOTH",
"225 439 OFFCURVE",
"213 444 OFFCURVE",
"213 451 CURVE SMOOTH",
"213 470 OFFCURVE",
"321 500 OFFCURVE",
"476 500 CURVE SMOOTH",
"684 500 OFFCURVE",
"767 425 OFFCURVE",
"767 262 CURVE",
"311 262 OFFCURVE",
"90 206 OFFCURVE",
"90 91 CURVE SMOOTH",
"90 15 OFFCURVE",
"188 -15 OFFCURVE",
"311 -15 CURVE SMOOTH",
"468 -15 OFFCURVE",
"658 37 OFFCURVE",
"755 143 CURVE",
"767 135 LINE",
"767 118 OFFCURVE",
"767 109 OFFCURVE",
"767 43 CURVE SMOOTH",
"767 4 OFFCURVE",
"787 -15 OFFCURVE",
"828 -15 CURVE SMOOTH",
"871 -15 OFFCURVE",
"919 -2 OFFCURVE",
"956 20 CURVE",
"956 31 LINE",
"917 13 OFFCURVE",
"869 0 OFFCURVE",
"833 0 CURVE SMOOTH",
"803 0 OFFCURVE",
"781 9 OFFCURVE",
"781 37 CURVE SMOOTH",
"781 262 LINE SMOOTH",
"781 436 OFFCURVE",
"701 515 OFFCURVE",
"476 515 CURVE SMOOTH"
);
},
{
closed = 1;
nodes = (
"767 183 LINE",
"694 63 OFFCURVE",
"476 0 OFFCURVE",
"311 0 CURVE SMOOTH",
"200 0 OFFCURVE",
"104 25 OFFCURVE",
"104 91 CURVE SMOOTH",
"104 196 OFFCURVE",
"324 248 OFFCURVE",
"767 248 CURVE"
);
}
);
width = 996;
}
);
leftKerningGroup = a;
rightKerningGroup = a;
unicode = 0061;
},
{
color = 4;
glyphname = ae;
lastChange = "2023-02-19 07:03:36 +0000";
layers = (
{
layerId = "2660E96A-9963-4076-AFCB-E451BC6EE103";
paths = (
{
closed = 1;
nodes = (
"226 -15 OFFCURVE",
"305 61 OFFCURVE",
"352 171 CURVE",
"364 171 LINE",
"390 63 OFFCURVE",
"477 -15 OFFCURVE",
"629 -15 CURVE SMOOTH",
"703 -15 OFFCURVE",
"824 -1 OFFCURVE",
"895 148 CURVE",
"881 157 LINE",
"854 93 OFFCURVE",
"784 53 OFFCURVE",
"735 53 CURVE SMOOTH",
"631 53 OFFCURVE",
"591 178 OFFCURVE",
"591 264 CURVE",
"591 266 LINE",
"913 266 LINE",
"913 393 OFFCURVE",
"833 515 OFFCURVE",
"647 515 CURVE SMOOTH",
"594 515 OFFCURVE",
"536 505 OFFCURVE",
"485 477 CURVE",
"451 501 OFFCURVE",
"401 515 OFFCURVE",
"331 515 CURVE SMOOTH",
"174 515 OFFCURVE",
"33 439 OFFCURVE",
"33 364 CURVE SMOOTH",
"33 306 OFFCURVE",
"89 275 OFFCURVE",
"166 275 CURVE SMOOTH",
"245 275 OFFCURVE",
"302 306 OFFCURVE",
"302 364 CURVE SMOOTH",
"302 397 OFFCURVE",
"278 421 OFFCURVE",
"229 437 CURVE SMOOTH",
"180 453 OFFCURVE",
"164 461 OFFCURVE",
"164 469 CURVE SMOOTH",
"164 477 OFFCURVE",
"197 494 OFFCURVE",
"246 494 CURVE SMOOTH",
"342 494 OFFCURVE",
"356 453 OFFCURVE",
"356 279 CURVE",
"139 279 OFFCURVE",
"10 213 OFFCURVE",
"10 101 CURVE SMOOTH",
"10 33 OFFCURVE",
"66 -15 OFFCURVE",
"144 -15 CURVE SMOOTH"
);
},
{
closed = 1;
nodes = (
"234 65 OFFCURVE",
"224 83 OFFCURVE",
"224 119 CURVE SMOOTH",
"224 179 OFFCURVE",
"260 269 OFFCURVE",
"356 269 CURVE",
"356 198 LINE",
"320 100 OFFCURVE",
"281 65 OFFCURVE",
"254 65 CURVE SMOOTH"
);
},
{
closed = 1;
nodes = (
"591 448 OFFCURVE",
"606 505 OFFCURVE",
"646 505 CURVE SMOOTH",
"693 505 OFFCURVE",
"696 436 OFFCURVE",
"696 296 CURVE",
"591 276 LINE"
);
}
);
width = 933;
},
{
layerId = "DF54607F-DD82-41E6-B2E3-81CA6D0E5C47";
paths = (
{
closed = 1;
nodes = (
"502 -15 OFFCURVE",
"611 16 OFFCURVE",
"677 179 CURVE",
"689 179 LINE",
"737 56 OFFCURVE",
"935 -15 OFFCURVE",
"1240 -15 CURVE SMOOTH",
"1573 -15 OFFCURVE",
"1747 46 OFFCURVE",
"1846 148 CURVE",
"1832 157 LINE",
"1741 59 OFFCURVE",
"1553 30 OFFCURVE",
"1398 75 CURVE SMOOTH",
"1301 104 OFFCURVE",
"1202 181 OFFCURVE",
"1202 263 CURVE",
"1202 266 LINE",
"1854 266 LINE",
"1854 423 OFFCURVE",
"1660 515 OFFCURVE",
"1298 515 CURVE SMOOTH",
"1166 515 OFFCURVE",
"1048 502 OFFCURVE",
"951 476 CURVE",
"899 501 OFFCURVE",
"810 515 OFFCURVE",
"653 515 CURVE SMOOTH",
"287 515 OFFCURVE",
"30 455 OFFCURVE",
"30 370 CURVE SMOOTH",
"30 316 OFFCURVE",
"131 282 OFFCURVE",
"293 282 CURVE SMOOTH",
"489 282 OFFCURVE",
"594 322 OFFCURVE",
"594 391 CURVE SMOOTH",
"594 420 OFFCURVE",
"576 444 OFFCURVE",
"539 462 CURVE SMOOTH",
"507 477 OFFCURVE",
"496 484 OFFCURVE",
"496 490 CURVE SMOOTH",
"496 500 OFFCURVE",
"512 505 OFFCURVE",
"549 505 CURVE SMOOTH",
"657 505 OFFCURVE",
"678 440 OFFCURVE",
"678 279 CURVE",
"240 279 OFFCURVE",
"10 224 OFFCURVE",
"10 111 CURVE SMOOTH",
"10 32 OFFCURVE",
"111 -15 OFFCURVE",
"281 -15 CURVE SMOOTH"
);
},
{
closed = 1;
nodes = (
"549 66 OFFCURVE",
"536 91 OFFCURVE",
"536 124 CURVE SMOOTH",
"536 184 OFFCURVE",
"582 269 OFFCURVE",
"678 269 CURVE",
"678 208 LINE",
"650 124 OFFCURVE",
"604 66 OFFCURVE",
"574 66 CURVE SMOOTH"
);
},
{
closed = 1;
nodes = (
"1202 451 OFFCURVE",
"1227 505 OFFCURVE",
"1267 505 CURVE SMOOTH",
"1324 505 OFFCURVE",
"1327 436 OFFCURVE",
"1327 296 CURVE",
"1202 277 LINE"
);
}
);
width = 1879;
},
{
layerId = "A5088515-37FF-452F-BD44-18A7A5EF88F0";
paths = (
{
closed = 1;
nodes = (
"302 -15 OFFCURVE",
"430 46 OFFCURVE",
"475 153 CURVE",
"491 153 LINE",
"522 51 OFFCURVE",
"606 -15 OFFCURVE",
"714 -15 CURVE SMOOTH",
"827 -15 OFFCURVE",
"905 31 OFFCURVE",
"952 125 CURVE",
"945 135 LINE",
"897 44 OFFCURVE",
"821 0 OFFCURVE",
"714 0 CURVE SMOOTH {name = \"❌\";}",
"583 0 OFFCURVE",
"491 102 OFFCURVE",
"491 248 CURVE",
"491 276 LINE",
"939 276 LINE",
"939 426 OFFCURVE",
"859 515 OFFCURVE",
"722 515 CURVE SMOOTH",
"605 515 OFFCURVE",
"517 442 OFFCURVE",
"488 332 CURVE",
"474 457 OFFCURVE",
"417 515 OFFCURVE",
"302 515 CURVE SMOOTH",
"195 515 OFFCURVE",
"93 454 OFFCURVE",
"93 398 CURVE SMOOTH",
"93 370 OFFCURVE",
"119 357 OFFCURVE",
"145 357 CURVE SMOOTH",
"171 357 OFFCURVE",
"197 370 OFFCURVE",
"197 395 CURVE SMOOTH",
"197 409 OFFCURVE",
"189 421 OFFCURVE",
"172 430 CURVE SMOOTH",
"151 441 OFFCURVE",
"144 446 OFFCURVE",
"144 451 CURVE SMOOTH",
"144 470 OFFCURVE",
"209 500 OFFCURVE",
"302 500 CURVE SMOOTH",
"427 500 OFFCURVE",
"477 425 OFFCURVE",
"477 262 CURVE",
"201 262 OFFCURVE",
"70 206 OFFCURVE",
"70 91 CURVE SMOOTH",
"70 15 OFFCURVE",
"129 -15 OFFCURVE",
"203 -15 CURVE SMOOTH"
);
},
{
closed = 1;
nodes = (
"136 0 OFFCURVE",
"84 25 OFFCURVE",
"84 91 CURVE SMOOTH",
"84 196 OFFCURVE",
"213 248 OFFCURVE",
"477 248 CURVE",
"477 183 LINE",
"433 63 OFFCURVE",
"302 0 OFFCURVE",
"203 0 CURVE SMOOTH"
);
},
{
closed = 1;
nodes = (
"508 414 OFFCURVE",
"599 500 OFFCURVE",
"722 500 CURVE SMOOTH",
"847 500 OFFCURVE",
"925 421 OFFCURVE",
"925 290 CURVE",
"493 286 LINE"
);
}
);
width = 1017;
},
{
layerId = "35A90D60-3AD4-435C-9F8B-D1CA483F6F66";
paths = (
{
closed = 1;
nodes = (
"477 -15 OFFCURVE",
"680 43 OFFCURVE",
"770 161 CURVE",
"786 161 LINE",
"835 55 OFFCURVE",
"976 -15 OFFCURVE",
"1169 -15 CURVE SMOOTH",
"1365 -15 OFFCURVE",
"1498 33 OFFCURVE",
"1580 127 CURVE",
"1570 135 LINE",
"1486 44 OFFCURVE",
"1354 0 OFFCURVE",
"1169 0 CURVE SMOOTH {name = \"❌\";}",
"941 0 OFFCURVE",
"783 102 OFFCURVE",
"783 248 CURVE",
"783 276 LINE",
"1559 276 LINE",
"1559 426 OFFCURVE",
"1420 515 OFFCURVE",
"1183 515 CURVE SMOOTH",
"970 515 OFFCURVE",
"819 435 OFFCURVE",
"778 316 CURVE",
"762 452 OFFCURVE",
"676 515 OFFCURVE",
"476 515 CURVE SMOOTH",
"292 515 OFFCURVE",
"129 454 OFFCURVE",
"129 398 CURVE SMOOTH",
"129 370 OFFCURVE",
"172 357 OFFCURVE",
"215 357 CURVE SMOOTH",
"258 357 OFFCURVE",
"302 370 OFFCURVE",
"302 395 CURVE SMOOTH",
"302 410 OFFCURVE",
"288 422 OFFCURVE",
"259 430 CURVE SMOOTH",
"225 439 OFFCURVE",
"213 445 OFFCURVE",
"213 451 CURVE SMOOTH",
"213 470 OFFCURVE",
"321 500 OFFCURVE",
"476 500 CURVE SMOOTH",
"684 500 OFFCURVE",
"767 425 OFFCURVE",
"767 262 CURVE",
"308 262 OFFCURVE",
"90 206 OFFCURVE",
"90 91 CURVE SMOOTH",
"90 15 OFFCURVE",
"188 -15 OFFCURVE",
"311 -15 CURVE SMOOTH"
);
},
{
closed = 1;
nodes = (
"200 0 OFFCURVE",
"104 25 OFFCURVE",
"104 91 CURVE SMOOTH",
"104 196 OFFCURVE",
"328 248 OFFCURVE",
"767 248 CURVE",
"767 183 LINE",
"694 63 OFFCURVE",
"476 0 OFFCURVE",
"311 0 CURVE SMOOTH"
);
},
{
closed = 1;
nodes = (
"811 414 OFFCURVE",
"969 500 OFFCURVE",
"1183 500 CURVE SMOOTH",
"1399 500 OFFCURVE",
"1545 422 OFFCURVE",
"1545 290 CURVE",
"785 286 LINE"
);
}
);
width = 1645;
}
);
leftKerningGroup = a;
leftMetricsKey = a;
rightKerningGroup = o;
rightMetricsKey = e;
unicode = 00E6;
},
{
color = 4;
glyphname = b;
lastChange = "2023-02-19 07:03:36 +0000";
layers = (
{
layerId = "2660E96A-9963-4076-AFCB-E451BC6EE103";
paths = (
{
closed = 1;
nodes = (
"72 -15 LINE",
"148 90 LINE",
"158 90 LINE",
"190 45 OFFCURVE",
"244 -15 OFFCURVE",
"364 -15 CURVE SMOOTH",
"508 -15 OFFCURVE",
"656 56 OFFCURVE",
"656 276 CURVE SMOOTH",
"656 394 OFFCURVE",
"610 515 OFFCURVE",
"486 515 CURVE SMOOTH",
"417 515 OFFCURVE",
"357 487 OFFCURVE",
"305 344 CURVE",
"297 352 LINE",
"297 745 LINE",
"12 705 LINE",
"12 694 LINE",
"62 694 LINE",
"62 -15 LINE"
);
},
{
closed = 1;
nodes = (
"328 0 OFFCURVE",
"297 25 OFFCURVE",
"297 170 CURVE SMOOTH",
"297 289 LINE",
"319 363 OFFCURVE",
"348 430 OFFCURVE",
"377 430 CURVE SMOOTH",
"411 430 OFFCURVE",
"416 376 OFFCURVE",
"416 241 CURVE SMOOTH",
"416 108 OFFCURVE",
"402 0 OFFCURVE",
"354 0 CURVE SMOOTH"
);
}
);
width = 676;
},
{
layerId = "DF54607F-DD82-41E6-B2E3-81CA6D0E5C47";
paths = (
{
closed = 1;
nodes = (
"72 -15 LINE",
"223 90 LINE",
"233 90 LINE",
"333 28 OFFCURVE",
"528 -15 OFFCURVE",
"690 -15 CURVE SMOOTH",
"1034 -15 OFFCURVE",
"1237 93 OFFCURVE",
"1237 276 CURVE SMOOTH",
"1237 416 OFFCURVE",
"1098 515 OFFCURVE",
"902 515 CURVE SMOOTH",
"760 515 OFFCURVE",
"655 459 OFFCURVE",
"590 344 CURVE",
"582 352 LINE",
"582 745 LINE",
"12 705 LINE",
"12 694 LINE",
"62 694 LINE",
"62 -15 LINE"
);
},
{
closed = 1;
nodes = (
"598 0 OFFCURVE",
"582 63 OFFCURVE",
"582 170 CURVE SMOOTH",
"582 300 LINE",
"619 378 OFFCURVE",
"643 408 OFFCURVE",
"670 408 CURVE SMOOTH",
"701 408 OFFCURVE",
"712 362 OFFCURVE",
"712 241 CURVE SMOOTH",
"712 69 OFFCURVE",
"691 0 OFFCURVE",
"640 0 CURVE SMOOTH"
);
}
);
width = 1262;
},
{
layerId = "A5088515-37FF-452F-BD44-18A7A5EF88F0";
paths = (
{
closed = 1;
nodes = (
"140 -15 LINE",
"144 90 LINE",
"154 90 LINE",
"203 19 OFFCURVE",
"279 -15 OFFCURVE",
"345 -15 CURVE SMOOTH",
"483 -15 OFFCURVE",
"564 85 OFFCURVE",
"564 255 CURVE SMOOTH",
"564 418 OFFCURVE",
"489 515 OFFCURVE",
"363 515 CURVE SMOOTH",
"243 515 OFFCURVE",
"173 399 OFFCURVE",
"152 354 CURVE",
"144 362 LINE",
"144 745 LINE",
"60 715 LINE",
"60 704 LINE",
"130 704 LINE",
"130 -15 LINE"
);
},
{
closed = 1;
nodes = (
"264 0 OFFCURVE",
"144 71 OFFCURVE",
"144 179 CURVE SMOOTH",
"144 293 LINE",
"182 424 OFFCURVE",
"273 500 OFFCURVE",
"363 500 CURVE SMOOTH",
"483 500 OFFCURVE",
"550 408 OFFCURVE",
"550 255 CURVE SMOOTH",
"550 95 OFFCURVE",
"471 0 OFFCURVE",
"345 0 CURVE SMOOTH"
);
}
);
width = 629;
},
{
layerId = "35A90D60-3AD4-435C-9F8B-D1CA483F6F66";
paths = (
{
closed = 1;
nodes = (
"200 -15 LINE",
"204 102 LINE",
"213 107 LINE",
"299 18 OFFCURVE",
"446 -15 OFFCURVE",
"564 -15 CURVE SMOOTH",
"794 -15 OFFCURVE",
"956 97 OFFCURVE",
"956 255 CURVE SMOOTH",
"956 407 OFFCURVE",
"807 515 OFFCURVE",
"596 515 CURVE SMOOTH",
"382 515 OFFCURVE",
"256 399 OFFCURVE",
"219 346 CURVE",
"204 355 LINE",
"204 745 LINE",
"70 715 LINE",
"70 704 LINE",
"190 704 LINE",
"190 -15 LINE"
);
},
{
closed = 1;
nodes = (
"402 0 OFFCURVE",
"204 75 OFFCURVE",
"204 183 CURVE SMOOTH",
"204 293 LINE",
"272 424 OFFCURVE",
"434 500 OFFCURVE",
"596 500 CURVE SMOOTH",
"799 500 OFFCURVE",
"942 398 OFFCURVE",
"942 255 CURVE SMOOTH",
"942 106 OFFCURVE",
"785 0 OFFCURVE",
"564 0 CURVE SMOOTH"
);
}
);
width = 1021;
}
);
leftKerningGroup = ll;
leftMetricsKey = n;
rightKerningGroup = o;
rightMetricsKey = o;
unicode = 0062;
},
{
color = 4;
glyphname = c;
lastChange = "2023-02-19 07:03:36 +0000";
layers = (
{
anchors = (
{
name = bottom;
position = "{308, 0}";
},
{
name = top;
position = "{308, 500}";
}
);
layerId = "2660E96A-9963-4076-AFCB-E451BC6EE103";
paths = (
{
closed = 1;
nodes = (
"378 -15 OFFCURVE",
"494 -7 OFFCURVE",
"573 148 CURVE",
"559 157 LINE",
"532 93 OFFCURVE",
"461 53 OFFCURVE",
"412 53 CURVE SMOOTH",
"314 53 OFFCURVE",
"256 139 OFFCURVE",
"256 285 CURVE SMOOTH",
"256 396 OFFCURVE",
"305 505 OFFCURVE",
"389 505 CURVE SMOOTH",
"420 505 OFFCURVE",
"445 495 OFFCURVE",
"445 483 CURVE SMOOTH",
"445 474 OFFCURVE",
"423 465 OFFCURVE",
"383 456 CURVE SMOOTH",
"336 446 OFFCURVE",
"307 415 OFFCURVE",
"307 374 CURVE SMOOTH",
"307 316 OFFCURVE",
"364 285 OFFCURVE",
"443 285 CURVE SMOOTH",
"520 285 OFFCURVE",
"576 316 OFFCURVE",
"576 374 CURVE SMOOTH",
"576 469 OFFCURVE",
"465 515 OFFCURVE",
"358 515 CURVE SMOOTH",
"147 515 OFFCURVE",
"20 413 OFFCURVE",
"20 240 CURVE SMOOTH",
"20 91 OFFCURVE",
"134 -15 OFFCURVE",
"294 -15 CURVE SMOOTH"
);
}
);
width = 596;
},
{
anchors = (
{
name = bottom;
position = "{623, 0}";
},
{
name = top;
position = "{623, 500}";
}
);
layerId = "DF54607F-DD82-41E6-B2E3-81CA6D0E5C47";
paths = (
{
closed = 1;
nodes = (
"920 -15 OFFCURVE",
"1094 46 OFFCURVE",
"1193 148 CURVE",
"1179 157 LINE",
"1116 89 OFFCURVE",
"1006 54 OFFCURVE",
"893 54 CURVE SMOOTH",
"634 54 OFFCURVE",
"550 187 OFFCURVE",
"550 308 CURVE SMOOTH",
"550 424 OFFCURVE",
"608 505 OFFCURVE",
"691 505 CURVE SMOOTH",
"715 505 OFFCURVE",
"734 500 OFFCURVE",
"734 492 CURVE SMOOTH",
"734 486 OFFCURVE",
"718 475 OFFCURVE",
"688 461 CURVE SMOOTH",
"655 445 OFFCURVE",
"636 420 OFFCURVE",
"636 391 CURVE SMOOTH",
"636 322 OFFCURVE",
"741 282 OFFCURVE",
"937 282 CURVE SMOOTH",
"1091 282 OFFCURVE",
"1200 323 OFFCURVE",
"1200 380 CURVE SMOOTH",
"1200 465 OFFCURVE",
"959 515 OFFCURVE",
"645 515 CURVE SMOOTH",
"280 515 OFFCURVE",
"25 413 OFFCURVE",
"25 240 CURVE SMOOTH",
"25 80 OFFCURVE",
"234 -15 OFFCURVE",
"587 -15 CURVE SMOOTH"
);
}
);
width = 1225;
},
{
anchors = (
{
name = bottom;
position = "{310, 0}";
},
{
name = top;
position = "{310, 500}";
}
);
layerId = "A5088515-37FF-452F-BD44-18A7A5EF88F0";
paths = (
{
closed = 1;
nodes = (
"415 -15 OFFCURVE",
"493 31 OFFCURVE",
"540 125 CURVE",
"533 135 LINE",
"485 44 OFFCURVE",
"409 0 OFFCURVE",
"302 0 CURVE SMOOTH {name = \"❌\";}",
"171 0 OFFCURVE",
"79 102 OFFCURVE",
"79 248 CURVE SMOOTH",
"79 396 OFFCURVE",
"175 500 OFFCURVE",
"310 500 CURVE SMOOTH",
"403 500 OFFCURVE",
"458 470 OFFCURVE",
"458 453 CURVE SMOOTH",
"458 447 OFFCURVE",
"451 441 OFFCURVE",
"437 433 CURVE SMOOTH",
"416 423 OFFCURVE",
"405 410 OFFCURVE",
"405 395 CURVE SMOOTH",
"405 370 OFFCURVE",
"431 357 OFFCURVE",
"457 357 CURVE SMOOTH",
"483 357 OFFCURVE",
"509 370 OFFCURVE",
"509 398 CURVE SMOOTH",
"509 467 OFFCURVE",
"414 515 OFFCURVE",
"310 515 CURVE SMOOTH",
"166 515 OFFCURVE",
"65 404 OFFCURVE",
"65 248 CURVE SMOOTH",
"65 94 OFFCURVE",
"163 -15 OFFCURVE",
"302 -15 CURVE SMOOTH"
);
}
);
width = 605;
},
{
anchors = (
{
name = bottom;
position = "{487, 0}";
},
{
name = top;
position = "{487, 500}";
}
);
layerId = "35A90D60-3AD4-435C-9F8B-D1CA483F6F66";
paths = (
{
closed = 1;
nodes = (
"673 -15 OFFCURVE",
"806 33 OFFCURVE",
"888 127 CURVE",
"878 135 LINE",
"794 44 OFFCURVE",
"662 0 OFFCURVE",
"477 0 CURVE SMOOTH {name = \"❌\";}",
"249 0 OFFCURVE",
"79 102 OFFCURVE",
"79 248 CURVE SMOOTH",
"79 396 OFFCURVE",
"256 500 OFFCURVE",
"491 500 CURVE SMOOTH",
"652 500 OFFCURVE",
"757 470 OFFCURVE",
"757 453 CURVE SMOOTH",
"757 448 OFFCURVE",
"740 440 OFFCURVE",
"709 431 CURVE SMOOTH",
"675 422 OFFCURVE",
"656 409 OFFCURVE",
"656 395 CURVE SMOOTH",
"656 370 OFFCURVE",
"701 357 OFFCURVE",
"746 357 CURVE SMOOTH",
"791 357 OFFCURVE",
"836 370 OFFCURVE",
"836 398 CURVE SMOOTH",
"836 467 OFFCURVE",
"671 515 OFFCURVE",
"491 515 CURVE SMOOTH",
"240 515 OFFCURVE",
"65 404 OFFCURVE",
"65 248 CURVE SMOOTH",
"65 94 OFFCURVE",
"235 -15 OFFCURVE",
"477 -15 CURVE SMOOTH"
);
}
);
width = 953;
}
);
leftKerningGroup = oo;
leftMetricsKey = o;
rightKerningGroup = o;
rightMetricsKey = o;
unicode = 0063;
},
{
color = 4;
glyphname = d;
lastChange = "2023-02-19 07:03:36 +0000";
layers = (
{
anchors = (
{
name = bottom;
position = "{347, 0}";
},
{
name = center;
position = "{347, 250}";
},
{
name = top;
position = "{347, 926}";
},
{
name = topright;
position = "{773, 723}";
}
);
layerId = "2660E96A-9963-4076-AFCB-E451BC6EE103";
paths = (
{
closed = 1;
nodes = (
"348 705 LINE",
"348 694 LINE",
"398 694 LINE",
"398 435 LINE",
"388 452 OFFCURVE",
"346 515 OFFCURVE",
"235 515 CURVE SMOOTH",
"122 515 OFFCURVE",
"20 438 OFFCURVE",
"20 230 CURVE SMOOTH",
"20 92 OFFCURVE",
"96 -15 OFFCURVE",
"217 -15 CURVE SMOOTH",
"319 -15 OFFCURVE",
"371 99 OFFCURVE",
"390 156 CURVE",
"398 148 LINE",
"398 -15 LINE",
"683 25 LINE",
"683 36 LINE",
"633 36 LINE",
"633 745 LINE"
);
},
{
closed = 1;
nodes = (
"362 467 OFFCURVE",
"398 429 OFFCURVE",
"398 341 CURVE SMOOTH",
"398 209 LINE",
"365 105 OFFCURVE",
"338 60 OFFCURVE",
"308 60 CURVE SMOOTH",
"276 60 OFFCURVE",
"260 111 OFFCURVE",
"260 260 CURVE SMOOTH",
"260 378 OFFCURVE",
"281 467 OFFCURVE",
"332 467 CURVE SMOOTH"
);
}
);
width = 693;
},
{
anchors = (
{
name = bottom;
position = "{634, 0}";
},
{
name = center;
position = "{634, 250}";
},
{
name = top;
position = "{634, 926}";
},
{
name = topright;
position = "{1508, 723}";
}
);
layerId = "DF54607F-DD82-41E6-B2E3-81CA6D0E5C47";
paths = (
{
closed = 1;
nodes = (
"638 705 LINE",
"638 694 LINE",
"688 694 LINE",
"688 425 LINE",
"658 478 OFFCURVE",
"537 515 OFFCURVE",
"395 515 CURVE SMOOTH",
"178 515 OFFCURVE",
"25 397 OFFCURVE",
"25 230 CURVE SMOOTH",
"25 76 OFFCURVE",
"148 -15 OFFCURVE",
"357 -15 CURVE SMOOTH",
"525 -15 OFFCURVE",
"644 49 OFFCURVE",
"680 156 CURVE",
"688 148 LINE",
"688 -15 LINE",
"1258 25 LINE",
"1258 36 LINE",
"1208 36 LINE",
"1208 745 LINE"
);
},
{
closed = 1;
nodes = (
"652 465 OFFCURVE",
"688 429 OFFCURVE",
"688 341 CURVE SMOOTH",
"688 209 LINE",
"662 126 OFFCURVE",
"629 80 OFFCURVE",
"598 80 CURVE SMOOTH",
"566 80 OFFCURVE",
"550 111 OFFCURVE",
"550 260 CURVE SMOOTH",
"550 378 OFFCURVE",
"571 465 OFFCURVE",
"622 465 CURVE SMOOTH"
);
}
);
width = 1268;
},
{
anchors = (
{
name = bottom;
position = "{310, 0}";
},
{
name = center;
position = "{310, 250}";
},
{
name = top;
position = "{310, 926}";
},
{
name = topright;
position = "{599, 723}";
}
);
layerId = "A5088515-37FF-452F-BD44-18A7A5EF88F0";
paths = (
{
closed = 1;
nodes = (
"415 705 LINE",
"415 694 LINE",
"485 694 LINE",
"485 389 LINE",
"454 468 OFFCURVE",
"369 515 OFFCURVE",
"294 515 CURVE SMOOTH",
"160 515 OFFCURVE",
"65 404 OFFCURVE",
"65 249 CURVE SMOOTH",
"65 94 OFFCURVE",
"150 -15 OFFCURVE",
"271 -15 CURVE SMOOTH",
"367 -15 OFFCURVE",
"437 49 OFFCURVE",
"477 146 CURVE",
"485 138 LINE",
"485 -15 LINE",
"569 25 LINE",
"569 35 LINE",
"499 35 LINE",
"499 745 LINE"
);
},
{
closed = 1;
nodes = (
"415 500 OFFCURVE",
"485 391 OFFCURVE",
"485 310 CURVE SMOOTH",
"485 220 LINE",
"458 117 OFFCURVE",
"390 0 OFFCURVE",
"271 0 CURVE SMOOTH",
"155 0 OFFCURVE",
"80 104 OFFCURVE",
"80 249 CURVE SMOOTH",
"80 395 OFFCURVE",
"171 500 OFFCURVE",
"294 500 CURVE SMOOTH {name = \"❌\";}"
);
}
);
width = 619;
},
{
anchors = (
{
name = bottom;
position = "{521, 0}";
},
{
name = center;
position = "{521, 250}";
},
{
name = top;
position = "{521, 926}";
},
{
name = topright;
position = "{982, 723}";
}
);
layerId = "35A90D60-3AD4-435C-9F8B-D1CA483F6F66";
paths = (
{
closed = 1;
nodes = (
"718 715 LINE",
"718 704 LINE",
"838 704 LINE",
"838 369 LINE",
"783 462 OFFCURVE",
"630 515 OFFCURVE",
"460 515 CURVE SMOOTH",
"224 515 OFFCURVE",
"65 416 OFFCURVE",
"65 249 CURVE SMOOTH",
"65 83 OFFCURVE",
"224 -15 OFFCURVE",
"430 -15 CURVE SMOOTH",
"633 -15 OFFCURVE",
"759 72 OFFCURVE",
"827 167 CURVE",
"838 161 LINE",
"838 -15 LINE",
"972 16 LINE",
"972 26 LINE",
"852 26 LINE",
"852 745 LINE"
);
},
{
closed = 1;
nodes = (
"713 500 OFFCURVE",
"838 391 OFFCURVE",
"838 310 CURVE SMOOTH",
"838 220 LINE",
"790 117 OFFCURVE",
"668 0 OFFCURVE",
"430 0 CURVE SMOOTH",
"233 0 OFFCURVE",
"79 93 OFFCURVE",
"79 249 CURVE SMOOTH",
"79 406 OFFCURVE",
"233 500 OFFCURVE",
"460 500 CURVE SMOOTH {name = \"❌\";}"
);
}
);
width = 1042;
}
);
leftKerningGroup = oo;
leftMetricsKey = o;
rightKerningGroup = l;
rightMetricsKey = l;
unicode = 0064;
},
{
color = 4;
glyphname = eth;
lastChange = "2023-02-19 07:03:36 +0000";
layers = (
{
layerId = "2660E96A-9963-4076-AFCB-E451BC6EE103";
paths = (
{
closed = 1;
nodes = (
"510 -15 OFFCURVE",
"610 111 OFFCURVE",
"610 288 CURVE SMOOTH",
"610 509 OFFCURVE",
"417 710 OFFCURVE",
"172 745 CURVE",
"162 733 LINE",
"249 666 OFFCURVE",
"308 594 OFFCURVE",
"338 517 CURVE",
"336 515 LINE",
"329 515 OFFCURVE",
"322 515 OFFCURVE",
"316 515 CURVE SMOOTH",
"133 515 OFFCURVE",
"20 400 OFFCURVE",
"20 246 CURVE SMOOTH",
"20 111 OFFCURVE",
"113 -15 OFFCURVE",
"316 -15 CURVE SMOOTH"
);
},
{
closed = 1;
nodes = (
"265 -5 OFFCURVE",
"260 122 OFFCURVE",
"260 246 CURVE SMOOTH",
"260 379 OFFCURVE",
"267 505 OFFCURVE",
"316 505 CURVE SMOOTH",
"367 505 OFFCURVE",
"370 379 OFFCURVE",
"370 246 CURVE SMOOTH",
"370 120 OFFCURVE",
"361 -5 OFFCURVE",
"316 -5 CURVE SMOOTH"
);
},
{
closed = 1;
nodes = (
"434 711 LINE",
"429 721 LINE",
"211 576 LINE",
"220 568 LINE"
);
}
);
width = 630;
},
{
layerId = "DF54607F-DD82-41E6-B2E3-81CA6D0E5C47";
paths = (
{
closed = 1;
nodes = (
"1096 -15 OFFCURVE",
"1314 111 OFFCURVE",
"1314 288 CURVE SMOOTH",
"1314 498 OFFCURVE",
"893 699 OFFCURVE",
"357 745 CURVE",
"335 733 LINE",
"481 694 OFFCURVE",
"651 599 OFFCURVE",
"720 517 CURVE",
"719 515 LINE",
"705 515 OFFCURVE",
"685 515 OFFCURVE",
"672 515 CURVE SMOOTH",
"272 515 OFFCURVE",
"25 400 OFFCURVE",
"25 246 CURVE SMOOTH",
"25 111 OFFCURVE",
"228 -15 OFFCURVE",
"672 -15 CURVE SMOOTH"
);
},
{
closed = 1;
nodes = (
"560 -5 OFFCURVE",
"549 122 OFFCURVE",
"549 246 CURVE SMOOTH",
"549 379 OFFCURVE",
"565 505 OFFCURVE",
"672 505 CURVE SMOOTH",
"783 505 OFFCURVE",
"790 379 OFFCURVE",
"790 246 CURVE SMOOTH",
"790 120 OFFCURVE",
"770 -5 OFFCURVE",
"672 -5 CURVE SMOOTH"
);
},
{
closed = 1;
nodes = (
"778 711 LINE",
"773 721 LINE",
"555 576 LINE",
"564 568 LINE"
);
}
);
width = 1339;
},
{
layerId = "A5088515-37FF-452F-BD44-18A7A5EF88F0";
paths = (
{
closed = 1;
nodes = (
"415 -15 OFFCURVE",
"495 82 OFFCURVE",
"495 246 CURVE SMOOTH",
"495 479 OFFCURVE",
"372 658 OFFCURVE",
"154 745 CURVE",
"146 735 LINE",
"278 684 OFFCURVE",
"390 583 OFFCURVE",
"435 463 CURVE",
"428 459 LINE",
"388 496 OFFCURVE",
"338 515 OFFCURVE",
"279 515 CURVE SMOOTH",
"144 515 OFFCURVE",
"65 415 OFFCURVE",
"65 246 CURVE SMOOTH",
"65 82 OFFCURVE",
"144 -15 OFFCURVE",
"279 -15 CURVE SMOOTH"
);
},
{
closed = 1;
nodes = (
"153 0 OFFCURVE",
"79 91 OFFCURVE",
"79 246 CURVE SMOOTH",
"79 406 OFFCURVE",
"153 500 OFFCURVE",
"279 500 CURVE SMOOTH",
"406 500 OFFCURVE",
"481 406 OFFCURVE",
"481 246 CURVE SMOOTH",
"481 91 OFFCURVE",
"406 0 OFFCURVE",
"279 0 CURVE SMOOTH"
);
},
{
closed = 1;
nodes = (
"375 714 LINE",
"370 724 LINE",
"211 618 LINE",
"220 610 LINE"
);
}
);
width = 560;
},
{
layerId = "35A90D60-3AD4-435C-9F8B-D1CA483F6F66";
paths = (
{
closed = 1;
nodes = (
"700 -15 OFFCURVE",
"845 82 OFFCURVE",
"845 246 CURVE SMOOTH",
"845 475 OFFCURVE",
"606 668 OFFCURVE",
"226 745 CURVE",
"212 735 LINE",
"463 681 OFFCURVE",
"645 592 OFFCURVE",
"754 453 CURVE",
"742 445 LINE",
"661 497 OFFCURVE",
"557 515 OFFCURVE",
"453 515 CURVE SMOOTH",
"208 515 OFFCURVE",
"65 415 OFFCURVE",
"65 246 CURVE SMOOTH",
"65 82 OFFCURVE",
"208 -15 OFFCURVE",
"453 -15 CURVE SMOOTH"
);
},
{
closed = 1;
nodes = (
"225 0 OFFCURVE",
"79 91 OFFCURVE",
"79 246 CURVE SMOOTH",
"79 406 OFFCURVE",
"225 500 OFFCURVE",
"453 500 CURVE SMOOTH",
"684 500 OFFCURVE",
"831 406 OFFCURVE",
"831 246 CURVE SMOOTH",
"831 91 OFFCURVE",
"684 0 OFFCURVE",
"453 0 CURVE SMOOTH"
);
},
{
closed = 1;
nodes = (
"548 714 LINE",
"543 724 LINE",
"384 618 LINE",
"393 610 LINE"
);
}
);
width = 910;
}
);
leftKerningGroup = oo;
leftMetricsKey = o;
rightKerningGroup = o;
rightMetricsKey = o;
unicode = 00F0;
},
{
color = 5;
glyphname = dcroat;
lastChange = "2023-02-19 07:03:36 +0000";
layers = (
{
components = (
{
name = d;
}
);
layerId = "DF54607F-DD82-41E6-B2E3-81CA6D0E5C47";
paths = (
{
closed = 1;
nodes = (
"588 593 LINE",
"1258 593 LINE",
"1258 608 LINE",
"588 608 LINE"
);
}
);
width = 1268;
},
{
components = (
{
name = d;
}
);
layerId = "A5088515-37FF-452F-BD44-18A7A5EF88F0";
paths = (
{
closed = 1;
nodes = (
"365 593 LINE",
"579 593 LINE",
"579 608 LINE",
"365 608 LINE"
);
}
);
width = 619;
},
{
components = (
{
name = d;
}
);
layerId = "2660E96A-9963-4076-AFCB-E451BC6EE103";
paths = (
{
closed = 1;
nodes = (
"298 593 LINE",
"683 593 LINE",
"683 608 LINE",
"298 608 LINE"
);
}
);
width = 693;
},
{
components = (
{
name = d;
}
);
layerId = "35A90D60-3AD4-435C-9F8B-D1CA483F6F66";
paths = (
{
closed = 1;
nodes = (
"678 593 LINE",
"972 593 LINE",
"972 608 LINE",
"678 608 LINE"
);
}
);
width = 1042;
}
);
leftKerningGroup = oo;
rightKerningGroup = l;
unicode = 0111;
},
{
color = 4;
glyphname = e;
lastChange = "2023-02-19 07:03:36 +0000";
layers = (
{
anchors = (
{
name = bottom;
position = "{311, 0}";
},
{
name = ogonek;
position = "{410, 10}";
},
{
name = top;
position = "{311, 500}";
}
);
layerId = "2660E96A-9963-4076-AFCB-E451BC6EE103";
paths = (
{
closed = 1;
nodes = (
"144 515 OFFCURVE",
"20 413 OFFCURVE",
"20 240 CURVE SMOOTH",
"20 119 OFFCURVE",
"113 -15 OFFCURVE",
"297 -15 CURVE SMOOTH",
"371 -15 OFFCURVE",
"492 -1 OFFCURVE",
"563 148 CURVE",
"549 157 LINE",
"522 93 OFFCURVE",
"452 53 OFFCURVE",
"403 53 CURVE SMOOTH",
"299 53 OFFCURVE",
"259 178 OFFCURVE",
"259 276 CURVE SMOOTH",
"259 451 OFFCURVE",
"274 505 OFFCURVE",
"314 505 CURVE SMOOTH",
"362 505 OFFCURVE",
"364 431 OFFCURVE",
"364 296 CURVE",
"255 276 LINE",
"255 266 LINE",
"581 266 LINE",
"581 393 OFFCURVE",
"501 515 OFFCURVE",
"315 515 CURVE SMOOTH"
);
}
);
width = 601;
},
{
anchors = (
{
name = bottom;
position = "{614, 0}";
},
{
name = ogonek;
position = "{857, 10}";
},
{
name = top;
position = "{614, 500}";
}
);
layerId = "DF54607F-DD82-41E6-B2E3-81CA6D0E5C47";
paths = (
{
closed = 1;
nodes = (
"280 515 OFFCURVE",
"25 413 OFFCURVE",
"25 240 CURVE SMOOTH",
"25 80 OFFCURVE",
"234 -15 OFFCURVE",
"587 -15 CURVE SMOOTH",
"920 -15 OFFCURVE",
"1094 46 OFFCURVE",
"1193 148 CURVE",
"1179 157 LINE",
"1088 59 OFFCURVE",
"900 30 OFFCURVE",
"745 75 CURVE SMOOTH",
"627 110 OFFCURVE",
"549 196 OFFCURVE",
"549 276 CURVE SMOOTH",
"549 451 OFFCURVE",
"574 505 OFFCURVE",
"614 505 CURVE SMOOTH",
"673 505 OFFCURVE",
"674 430 OFFCURVE",
"674 296 CURVE",
"545 276 LINE",
"545 266 LINE",
"1201 266 LINE",
"1201 423 OFFCURVE",
"1007 515 OFFCURVE",
"645 515 CURVE SMOOTH"
);
}
);
width = 1226;
},
{
anchors = (
{
name = bottom;
position = "{298, 0}";
},
{
name = ogonek;
position = "{408, 10}";
},
{
name = top;
position = "{298, 500}";
}
);
layerId = "A5088515-37FF-452F-BD44-18A7A5EF88F0";
paths = (
{
closed = 1;
nodes = (
"166 515 OFFCURVE",
"65 404 OFFCURVE",
"65 248 CURVE SMOOTH",
"65 94 OFFCURVE",
"163 -15 OFFCURVE",
"302 -15 CURVE SMOOTH",
"415 -15 OFFCURVE",
"493 31 OFFCURVE",
"540 125 CURVE",
"533 135 LINE",
"485 44 OFFCURVE",
"409 0 OFFCURVE",
"302 0 CURVE SMOOTH {name = \"❌\";}",
"171 0 OFFCURVE",
"79 102 OFFCURVE",
"79 248 CURVE SMOOTH",
"79 396 OFFCURVE",
"175 500 OFFCURVE",
"310 500 CURVE SMOOTH",
"437 500 OFFCURVE",
"513 419 OFFCURVE",
"513 290 CURVE",
"79 286 LINE",
"79 276 LINE",
"527 276 LINE",
"527 426 OFFCURVE",
"447 515 OFFCURVE",
"310 515 CURVE SMOOTH"
);
}
);
width = 605;
},
{
anchors = (
{
name = bottom;
position = "{461, 0}";
},
{
name = ogonek;
position = "{647, 10}";
},
{
name = top;
position = "{461, 500}";
}
);
layerId = "35A90D60-3AD4-435C-9F8B-D1CA483F6F66";
paths = (
{
closed = 1;
nodes = (
"230 515 OFFCURVE",
"65 404 OFFCURVE",
"65 248 CURVE SMOOTH",
"65 94 OFFCURVE",
"225 -15 OFFCURVE",
"467 -15 CURVE SMOOTH",
"663 -15 OFFCURVE",
"796 33 OFFCURVE",
"878 127 CURVE",
"868 135 LINE",
"784 44 OFFCURVE",
"652 0 OFFCURVE",
"467 0 CURVE SMOOTH {name = \"❌\";}",
"239 0 OFFCURVE",
"79 102 OFFCURVE",
"79 248 CURVE SMOOTH",
"79 396 OFFCURVE",
"246 500 OFFCURVE",
"481 500 CURVE SMOOTH",
"703 500 OFFCURVE",
"843 419 OFFCURVE",
"843 290 CURVE",
"79 286 LINE",
"79 276 LINE",
"857 276 LINE",
"857 426 OFFCURVE",
"718 515 OFFCURVE",
"481 515 CURVE SMOOTH"
);
}
);
width = 943;
}
);
leftKerningGroup = oo;
leftMetricsKey = o;
rightKerningGroup = o;
rightMetricsKey = o;
unicode = 0065;
},
{
color = 4;
glyphname = f;
lastChange = "2023-02-19 07:09:07 +0000";
layers = (
{
layerId = "2660E96A-9963-4076-AFCB-E451BC6EE103";
paths = (
{
closed = 1;
nodes = (
"345 0 LINE",
"345 10 LINE",
"295 20 LINE",
"295 485 LINE",
"385 485 LINE",
"385 500 LINE",
"295 500 LINE",
"280 570 OFFCURVE",
"268 645 OFFCURVE",
"268 671 CURVE SMOOTH",
"268 711 OFFCURVE",
"283 735 OFFCURVE",
"333 735 CURVE SMOOTH",
"362 735 OFFCURVE",
"374 733 OFFCURVE",
"374 726 CURVE SMOOTH",
"374 703 OFFCURVE",
"297 682 OFFCURVE",
"297 624 CURVE SMOOTH",
"297 566 OFFCURVE",
"354 535 OFFCURVE",
"433 535 CURVE SMOOTH",
"510 535 OFFCURVE",
"566 566 OFFCURVE",
"566 624 CURVE SMOOTH",
"566 703 OFFCURVE",
"462 745 OFFCURVE",
"330 745 CURVE SMOOTH",
"194 745 OFFCURVE",
"110 709 OFFCURVE",
"79 637 CURVE SMOOTH",
"63 600 OFFCURVE",
"60 544 OFFCURVE",
"60 500 CURVE",
"10 490 LINE",
"10 480 LINE",
"60 480 LINE",
"60 20 LINE",
"10 10 LINE",
"10 0 LINE"
);
}
);
width = 416;
},
{
layerId = "DF54607F-DD82-41E6-B2E3-81CA6D0E5C47";
paths = (
{
closed = 1;
nodes = (
"630 0 LINE",
"630 10 LINE",
"580 20 LINE",
"580 485 LINE",
"670 485 LINE",
"670 500 LINE",
"580 500 LINE",
"565 567 OFFCURVE",
"554 642 OFFCURVE",
"554 670 CURVE SMOOTH",
"554 710 OFFCURVE",
"569 734 OFFCURVE",
"618 734 CURVE SMOOTH",
"637 734 OFFCURVE",
"642 730 OFFCURVE",
"642 722 CURVE SMOOTH",
"642 702 OFFCURVE",
"574 664 OFFCURVE",
"574 631 CURVE SMOOTH",
"574 562 OFFCURVE",
"679 538 OFFCURVE",
"875 538 CURVE SMOOTH",
"1029 538 OFFCURVE",
"1138 563 OFFCURVE",
"1138 620 CURVE SMOOTH",
"1138 705 OFFCURVE",
"897 745 OFFCURVE",
"615 745 CURVE SMOOTH",
"343 745 OFFCURVE",
"207 718 OFFCURVE",
"122 649 CURVE SMOOTH",
"81 616 OFFCURVE",
"60 552 OFFCURVE",
"60 500 CURVE",
"10 490 LINE",
"10 480 LINE",
"60 480 LINE",
"60 20 LINE",
"10 10 LINE",
"10 0 LINE"
);
}
);
width = 738;
},
{
layerId = "A5088515-37FF-452F-BD44-18A7A5EF88F0";
paths = (
{
closed = 1;
nodes = (
"224 0 LINE",
"224 10 LINE",
"144 20 LINE",
"144 480 LINE",
"279 480 LINE",
"279 490 LINE",
"144 500 LINE",
"139 540 OFFCURVE",
"136 589 OFFCURVE",
"136 637 CURVE SMOOTH",
"136 704 OFFCURVE",
"162 734 OFFCURVE",
"221 734 CURVE SMOOTH",
"246 734 OFFCURVE",
"254 731 OFFCURVE",
"254 725 CURVE SMOOTH",
"254 709 OFFCURVE",
"218 695 OFFCURVE",
"218 661 CURVE SMOOTH",
"218 636 OFFCURVE",
"244 623 OFFCURVE",
"270 623 CURVE SMOOTH",
"296 623 OFFCURVE",
"322 636 OFFCURVE",
"322 664 CURVE SMOOTH",
"322 713 OFFCURVE",
"279 745 OFFCURVE",
"221 745 CURVE SMOOTH",
"152 745 OFFCURVE",
"122 712 OFFCURVE",
"122 637 CURVE SMOOTH",
"122 604 OFFCURVE",
"125 555 OFFCURVE",
"130 500 CURVE",
"60 490 LINE",
"60 480 LINE",
"130 480 LINE",
"130 20 LINE",
"60 10 LINE",
"60 0 LINE"
);
}
);
width = 342;
},
{
layerId = "35A90D60-3AD4-435C-9F8B-D1CA483F6F66";
paths = (
{
closed = 1;
nodes = (
"445 0 LINE",
"445 10 LINE",
"258 20 LINE",
"258 480 LINE",
"524 480 LINE",
"524 490 LINE",
"258 500 LINE",
"241 570 OFFCURVE",
"232 619 OFFCURVE",
"232 649 CURVE SMOOTH",
"232 708 OFFCURVE",
"294 734 OFFCURVE",
"437 734 CURVE SMOOTH",
"497 734 OFFCURVE",
"515 731 OFFCURVE",
"515 725 CURVE SMOOTH",
"515 714 OFFCURVE",
"441 691 OFFCURVE",
"441 661 CURVE SMOOTH",
"441 636 OFFCURVE",
"492 623 OFFCURVE",
"553 623 CURVE SMOOTH",
"623 623 OFFCURVE",
"664 638 OFFCURVE",
"664 664 CURVE SMOOTH",
"664 713 OFFCURVE",
"574 745 OFFCURVE",
"437 745 CURVE SMOOTH",
"285 745 OFFCURVE",
"218 716 OFFCURVE",
"218 649 CURVE SMOOTH",
"218 622 OFFCURVE",
"227 573 OFFCURVE",
"244 500 CURVE",
"95 490 LINE",
"95 480 LINE",
"244 480 LINE",
"244 20 LINE",
"80 10 LINE",
"80 0 LINE"
);
}
);
width = 604;
}
);
leftKerningGroup = f;
leftMetricsKey = l;
rightKerningGroup = f;
unicode = 0066;
},
{
color = 4;
glyphname = g;
lastChange = "2023-02-19 07:03:36 +0000";
layers = (
{
anchors = (
{
name = bottom;
position = "{318, -215}";
},
{
name = top;
position = "{318, 500}";
}
);
layerId = "2660E96A-9963-4076-AFCB-E451BC6EE103";
paths = (
{
closed = 1;
nodes = (
"477 -215 OFFCURVE",
"614 -171 OFFCURVE",
"614 -45 CURVE SMOOTH",
"614 62 OFFCURVE",
"470 122 OFFCURVE",
"212 122 CURVE",
"202 132 LINE",
"236 155 LINE",
"227 161 LINE",
"91 66 LINE",
"91 51 LINE",
"291 51 OFFCURVE",
"378 12 OFFCURVE",
"378 -76 CURVE SMOOTH",
"378 -148 OFFCURVE",
"315 -201 OFFCURVE",
"225 -201 CURVE SMOOTH",
"170 -201 OFFCURVE",
"126 -188 OFFCURVE",
"126 -172 CURVE SMOOTH",
"126 -151 OFFCURVE",
"257 -157 OFFCURVE",
"257 -50 CURVE SMOOTH",
"257 -1 OFFCURVE",
"214 36 OFFCURVE",
"140 36 CURVE SMOOTH",
"69 36 OFFCURVE",
"20 -12 OFFCURVE",
"20 -77 CURVE SMOOTH",
"20 -144 OFFCURVE",
"99 -215 OFFCURVE",
"265 -215 CURVE SMOOTH"
);
},
{
closed = 1;
nodes = (
"538 145 OFFCURVE",
"614 232 OFFCURVE",
"614 318 CURVE SMOOTH",
"614 442 OFFCURVE",
"450 515 OFFCURVE",
"317 515 CURVE SMOOTH",
"152 515 OFFCURVE",
"20 433 OFFCURVE",
"20 318 CURVE SMOOTH",
"20 191 OFFCURVE",
"159 145 OFFCURVE",
"312 145 CURVE SMOOTH"
);
},
{
closed = 1;
nodes = (
"270 155 OFFCURVE",
"260 208 OFFCURVE",
"260 298 CURVE",
"260 405 OFFCURVE",
"269 505 OFFCURVE",
"317 505 CURVE",
"368 505 OFFCURVE",
"374 405 OFFCURVE",
"374 298 CURVE",
"374 206 OFFCURVE",
"364 155 OFFCURVE",
"317 155 CURVE"
);
},
{
closed = 1;
nodes = (
"387 515 LINE",
"598 515 LINE",
"535 656 LINE",
"515 615 OFFCURVE",
"404 509 OFFCURVE",
"320 509 CURVE",
"387 495 LINE"
);
}
);
width = 644;
},
{
anchors = (
{
name = bottom;
position = "{637, -215}";
},
{
name = top;
position = "{637, 500}";
}
);
layerId = "DF54607F-DD82-41E6-B2E3-81CA6D0E5C47";
paths = (
{
closed = 1;
nodes = (
"974 -215 OFFCURVE",
"1223 -152 OFFCURVE",
"1223 -45 CURVE SMOOTH",
"1223 58 OFFCURVE",
"956 122 OFFCURVE",
"530 122 CURVE",
"520 132 LINE",
"554 155 LINE",
"545 161 LINE",
"409 66 LINE",
"409 51 LINE",
"609 51 OFFCURVE",
"696 12 OFFCURVE",
"696 -76 CURVE SMOOTH",
"696 -148 OFFCURVE",
"629 -205 OFFCURVE",
"539 -205 CURVE SMOOTH",
"509 -205 OFFCURVE",
"486 -199 OFFCURVE",
"486 -192 CURVE SMOOTH",
"486 -175 OFFCURVE",
"584 -153 OFFCURVE",
"584 -91 CURVE SMOOTH",
"584 -22 OFFCURVE",
"479 18 OFFCURVE",
"283 18 CURVE SMOOTH",
"129 18 OFFCURVE",
"20 -23 OFFCURVE",
"20 -80 CURVE SMOOTH",
"20 -165 OFFCURVE",
"218 -215 OFFCURVE",
"553 -215 CURVE SMOOTH"
);
},
{
closed = 1;
nodes = (
"974 145 OFFCURVE",
"1216 216 OFFCURVE",
"1216 318 CURVE SMOOTH",
"1216 434 OFFCURVE",
"976 515 OFFCURVE",
"635 515 CURVE SMOOTH",
"294 515 OFFCURVE",
"54 434 OFFCURVE",
"54 318 CURVE SMOOTH",
"54 216 OFFCURVE",
"292 145 OFFCURVE",
"630 145 CURVE SMOOTH"
);
},
{
closed = 1;
nodes = (
"602 155 OFFCURVE",
"578 214 OFFCURVE",
"578 298 CURVE",
"578 419 OFFCURVE",
"602 505 OFFCURVE",
"635 505 CURVE",
"668 505 OFFCURVE",
"692 419 OFFCURVE",
"692 298 CURVE",
"692 214 OFFCURVE",
"668 155 OFFCURVE",
"635 155 CURVE"
);
},
{
closed = 1;
nodes = (
"815 515 LINE",
"1156 515 LINE",
"1093 656 LINE",
"1073 615 OFFCURVE",
"832 509 OFFCURVE",
"638 509 CURVE",
"815 495 LINE"
);
}
);
width = 1253;
},
{
anchors = (
{
name = bottom;
position = "{266, -215}";
},
{
name = top;
position = "{266, 500}";
}
);
layerId = "A5088515-37FF-452F-BD44-18A7A5EF88F0";
paths = (
{
closed = 1;
nodes = (
"399 -215 OFFCURVE",
"490 -157 OFFCURVE",
"490 -65 CURVE SMOOTH",
"490 43 OFFCURVE",
"396 79 OFFCURVE",
"112 79 CURVE",
"112 87 LINE",
"214 178 LINE",
"202 188 LINE",
"81 80 LINE",
"81 65 LINE",
"377 65 OFFCURVE",
"476 33 OFFCURVE",
"476 -65 CURVE SMOOTH",
"476 -148 OFFCURVE",
"390 -200 OFFCURVE",
"254 -200 CURVE SMOOTH",
"165 -200 OFFCURVE",
"86 -173 OFFCURVE",
"86 -151 CURVE SMOOTH",
"86 -134 OFFCURVE",
"139 -131 OFFCURVE",
"139 -95 CURVE SMOOTH",
"139 -70 OFFCURVE",
"113 -57 OFFCURVE",
"87 -57 CURVE SMOOTH",
"61 -57 OFFCURVE",
"35 -70 OFFCURVE",
"35 -98 CURVE SMOOTH",
"35 -157 OFFCURVE",
"150 -215 OFFCURVE",
"254 -215 CURVE SMOOTH"
);
},
{
closed = 1;
nodes = (
"392 172 OFFCURVE",
"480 238 OFFCURVE",
"480 332 CURVE",
"480 439 OFFCURVE",
"393 515 OFFCURVE",
"266 515 CURVE",
"139 515 OFFCURVE",
"50 439 OFFCURVE",
"50 332 CURVE",
"50 238 OFFCURVE",
"139 172 OFFCURVE",
"266 172 CURVE"
);
},
{
closed = 1;
nodes = (
"147 187 OFFCURVE",
"64 247 OFFCURVE",
"64 332 CURVE SMOOTH",
"64 431 OFFCURVE",
"147 500 OFFCURVE",
"266 500 CURVE",
"383 500 OFFCURVE",
"466 431 OFFCURVE",
"466 332 CURVE SMOOTH",
"466 247 OFFCURVE",
"383 187 OFFCURVE",
"266 187 CURVE"
);
},
{
closed = 1;
nodes = (
"357 503 LINE",
"495 503 LINE",
"495 518 LINE",
"433 516 OFFCURVE",
"370 514 OFFCURVE",
"308 512 CURVE",
"357 490 LINE"
);
}
);
width = 560;
},
{
anchors = (
{
name = bottom;
position = "{492, -215}";
},
{
name = top;
position = "{492, 500}";
}
);
layerId = "35A90D60-3AD4-435C-9F8B-D1CA483F6F66";
paths = (
{
closed = 1;
nodes = (
"726 -215 OFFCURVE",
"886 -157 OFFCURVE",
"886 -65 CURVE SMOOTH",
"886 43 OFFCURVE",
"712 79 OFFCURVE",
"203 79 CURVE",
"203 87 LINE",
"390 183 LINE",
"372 188 LINE",
"166 82 LINE",
"166 65 LINE",
"696 65 OFFCURVE",
"872 33 OFFCURVE",
"872 -65 CURVE SMOOTH",
"872 -148 OFFCURVE",
"717 -200 OFFCURVE",
"471 -200 CURVE SMOOTH",
"310 -200 OFFCURVE",
"175 -173 OFFCURVE",
"175 -151 CURVE SMOOTH",
"175 -133 OFFCURVE",
"268 -133 OFFCURVE",
"268 -95 CURVE SMOOTH",
"268 -70 OFFCURVE",
"222 -57 OFFCURVE",
"177 -57 CURVE SMOOTH",
"131 -57 OFFCURVE",
"85 -70 OFFCURVE",
"85 -98 CURVE SMOOTH",
"85 -157 OFFCURVE",
"287 -215 OFFCURVE",
"471 -215 CURVE SMOOTH"
);
},
{
closed = 1;
nodes = (
"713 172 OFFCURVE",
"869 238 OFFCURVE",
"869 332 CURVE",
"869 439 OFFCURVE",
"714 515 OFFCURVE",
"492 515 CURVE",
"268 515 OFFCURVE",
"111 439 OFFCURVE",
"111 332 CURVE",
"111 238 OFFCURVE",
"268 172 OFFCURVE",
"492 172 CURVE"
);
},
{
closed = 1;
nodes = (
"277 187 OFFCURVE",
"125 247 OFFCURVE",
"125 332 CURVE SMOOTH",
"125 431 OFFCURVE",
"277 500 OFFCURVE",
"492 500 CURVE",
"705 500 OFFCURVE",
"855 431 OFFCURVE",
"855 332 CURVE SMOOTH",
"855 247 OFFCURVE",
"705 187 OFFCURVE",
"492 187 CURVE"
);
},
{
closed = 1;
nodes = (
"648 503 LINE",
"895 503 LINE",
"895 518 LINE",
"783 515 OFFCURVE",
"671 513 OFFCURVE",
"559 510 CURVE",
"648 490 LINE"
);
}
);
width = 990;
}
);
leftKerningGroup = g;
rightKerningGroup = gg;
unicode = 0067;
},
{
color = 4;
glyphname = h;
lastChange = "2023-02-19 07:03:36 +0000";
layers = (
{
layerId = "2660E96A-9963-4076-AFCB-E451BC6EE103";
paths = (
{
closed = 1;
nodes = (
"640 20 LINE",
"640 340 LINE SMOOTH",
"640 434 OFFCURVE",
"610 515 OFFCURVE",
"487 515 CURVE SMOOTH",
"387 515 OFFCURVE",
"337 440 OFFCURVE",
"303 344 CURVE",
"295 352 LINE",
"295 745 LINE",
"10 705 LINE",
"10 694 LINE",
"60 694 LINE",
"60 20 LINE",
"10 10 LINE",
"10 0 LINE",
"335 0 LINE",
"335 10 LINE",
"295 20 LINE",
"295 290 LINE",
"300 311 OFFCURVE",
"338 440 OFFCURVE",
"375 440 CURVE SMOOTH",
"391 440 OFFCURVE",
"405 416 OFFCURVE",
"405 375 CURVE SMOOTH",
"405 20 LINE",
"365 10 LINE",
"365 0 LINE",
"690 0 LINE",
"690 10 LINE"
);
}
);
width = 700;
},
{
layerId = "DF54607F-DD82-41E6-B2E3-81CA6D0E5C47";
paths = (
{
closed = 1;
nodes = (
"1230 20 LINE",
"1230 340 LINE SMOOTH",
"1230 469 OFFCURVE",
"1090 515 OFFCURVE",
"939 515 CURVE SMOOTH",
"769 515 OFFCURVE",
"654 458 OFFCURVE",
"588 344 CURVE",
"580 352 LINE",
"580 745 LINE",
"10 705 LINE",
"10 694 LINE",
"60 694 LINE",
"60 20 LINE",
"10 10 LINE",
"10 0 LINE",
"630 0 LINE",
"630 10 LINE",
"580 20 LINE",
"580 310 LINE",
"609 368 OFFCURVE",
"652 416 OFFCURVE",
"680 416 CURVE SMOOTH",
"698 416 OFFCURVE",
"710 399 OFFCURVE",
"710 355 CURVE SMOOTH",
"710 20 LINE",
"670 10 LINE",
"670 0 LINE",
"1280 0 LINE",
"1280 10 LINE"
);
}
);
width = 1290;
},
{
layerId = "A5088515-37FF-452F-BD44-18A7A5EF88F0";
paths = (
{
closed = 1;
nodes = (
"539 20 LINE",
"539 338 LINE SMOOTH",
"539 457 OFFCURVE",
"494 515 OFFCURVE",
"403 515 CURVE SMOOTH",
"314 515 OFFCURVE",
"224 454 OFFCURVE",
"152 344 CURVE",
"144 350 LINE",
"144 745 LINE",
"60 715 LINE",
"60 704 LINE",
"130 704 LINE",
"130 20 LINE",
"70 10 LINE",
"70 0 LINE",
"204 0 LINE",
"204 10 LINE",
"144 20 LINE",
"144 300 LINE",
"200 417 OFFCURVE",
"307 500 OFFCURVE",
"403 500 CURVE SMOOTH",
"485 500 OFFCURVE",
"525 447 OFFCURVE",
"525 338 CURVE SMOOTH",
"525 20 LINE",
"465 10 LINE",
"465 0 LINE",
"599 0 LINE",
"599 10 LINE"
);
}
);
width = 639;
},
{
layerId = "35A90D60-3AD4-435C-9F8B-D1CA483F6F66";
paths = (
{
closed = 1;
nodes = (
"895 20 LINE",
"895 338 LINE SMOOTH",
"895 457 OFFCURVE",
"822 515 OFFCURVE",
"648 515 CURVE SMOOTH",
"507 515 OFFCURVE",
"355 447 OFFCURVE",
"228 334 CURVE",
"214 341 LINE",
"214 745 LINE",
"80 715 LINE",
"80 704 LINE",
"200 704 LINE",
"200 20 LINE",
"90 10 LINE",
"90 0 LINE",
"324 0 LINE",
"324 10 LINE",
"214 20 LINE",
"214 300 LINE",
"317 404 OFFCURVE",
"475 500 OFFCURVE",
"648 500 CURVE SMOOTH",
"805 500 OFFCURVE",
"881 447 OFFCURVE",
"881 338 CURVE SMOOTH",
"881 20 LINE",
"771 10 LINE",
"771 0 LINE",
"1005 0 LINE",
"1005 10 LINE"
);
}
);
width = 1055;
}
);
leftKerningGroup = ll;
leftMetricsKey = l;
rightKerningGroup = n;
rightMetricsKey = n;
unicode = 0068;
},
{
color = 5;
glyphname = hbar;
lastChange = "2023-02-19 07:03:36 +0000";
layers = (
{
components = (
{
name = h;
}
);
layerId = "DF54607F-DD82-41E6-B2E3-81CA6D0E5C47";
paths = (
{
closed = 1;
nodes = (
"10 593 LINE",
"680 593 LINE",
"680 608 LINE",
"10 608 LINE"
);
}
);
width = 1290;
},
{
components = (
{
name = h;
}
);
layerId = "A5088515-37FF-452F-BD44-18A7A5EF88F0";
paths = (
{
closed = 1;
nodes = (
"50 593 LINE",
"264 593 LINE",
"264 608 LINE",
"50 608 LINE"
);
}
);
width = 639;
},
{
components = (
{
name = h;
}
);
layerId = "2660E96A-9963-4076-AFCB-E451BC6EE103";
paths = (
{
closed = 1;
nodes = (
"10 593 LINE",
"395 593 LINE",
"395 608 LINE",
"10 608 LINE"
);
}
);
width = 700;
},
{
components = (
{
name = h;
}
);
layerId = "35A90D60-3AD4-435C-9F8B-D1CA483F6F66";
paths = (
{
closed = 1;
nodes = (
"80 593 LINE",
"374 593 LINE",
"374 608 LINE",
"80 608 LINE"
);
}
);
width = 1055;
}
);
leftKerningGroup = ll;
rightKerningGroup = n;
unicode = 0127;
},
{
color = 4;
glyphname = i;
lastChange = "2023-02-19 07:03:36 +0000";
layers = (
{
anchors = (
{
name = ogonek;
position = "{341, 10}";
}
);
layerId = "2660E96A-9963-4076-AFCB-E451BC6EE103";
paths = (
{
closed = 1;
nodes = (
"345 0 LINE",
"345 10 LINE",
"295 20 LINE",
"295 515 LINE",
"10 475 LINE",
"10 464 LINE",
"60 464 LINE",
"60 20 LINE",
"10 10 LINE",
"10 0 LINE"
);
},
{
closed = 1;
nodes = (
"250 529 OFFCURVE",
"303 571 OFFCURVE",
"303 626 CURVE SMOOTH",
"303 683 OFFCURVE",
"250 723 OFFCURVE",
"175 723 CURVE SMOOTH",
"99 723 OFFCURVE",
"48 683 OFFCURVE",
"48 626 CURVE SMOOTH",
"48 571 OFFCURVE",
"99 529 OFFCURVE",
"175 529 CURVE SMOOTH"
);
}
);
width = 355;
},
{
anchors = (
{
name = ogonek;
position = "{626, 10}";
}
);
layerId = "DF54607F-DD82-41E6-B2E3-81CA6D0E5C47";
paths = (
{
closed = 1;
nodes = (
"630 0 LINE",
"630 10 LINE",
"580 20 LINE",
"580 515 LINE",
"10 475 LINE",
"10 464 LINE",
"60 464 LINE",
"60 20 LINE",
"10 10 LINE",
"10 0 LINE"
);
},
{
closed = 1;
nodes = (
"485 529 OFFCURVE",
"585 565 OFFCURVE",
"585 626 CURVE SMOOTH",
"585 687 OFFCURVE",
"485 723 OFFCURVE",
"316 723 CURVE SMOOTH",
"149 723 OFFCURVE",
"50 687 OFFCURVE",
"50 626 CURVE SMOOTH",
"50 565 OFFCURVE",
"149 529 OFFCURVE",
"316 529 CURVE SMOOTH"
);
}
);
width = 640;
},
{
anchors = (
{
name = ogonek;
position = "{200, 10}";
}
);
layerId = "A5088515-37FF-452F-BD44-18A7A5EF88F0";
paths = (
{
closed = 1;
nodes = (
"204 0 LINE",
"204 10 LINE",
"144 20 LINE",
"144 515 LINE",
"60 485 LINE",
"60 474 LINE",
"130 474 LINE",
"130 20 LINE",
"70 10 LINE",
"70 0 LINE"
);
},
{
closed = 1;
nodes = (
"156 576 OFFCURVE",
"178 593 OFFCURVE",
"178 618 CURVE SMOOTH",
"178 645 OFFCURVE",
"156 661 OFFCURVE",
"129 661 CURVE SMOOTH",
"101 661 OFFCURVE",
"78 645 OFFCURVE",
"78 618 CURVE SMOOTH",
"78 593 OFFCURVE",
"101 576 OFFCURVE",
"129 576 CURVE SMOOTH"
);
}
);
width = 274;
},
{
anchors = (
{
name = ogonek;
position = "{315, 10}";
}
);
layerId = "35A90D60-3AD4-435C-9F8B-D1CA483F6F66";
paths = (
{
closed = 1;
nodes = (
"324 0 LINE",
"324 10 LINE",
"214 20 LINE",
"214 515 LINE",
"80 485 LINE",
"80 474 LINE",
"200 474 LINE",
"200 20 LINE",
"90 10 LINE",
"90 0 LINE"
);
},
{
closed = 1;
nodes = (
"229 576 OFFCURVE",
"258 593 OFFCURVE",
"258 618 CURVE SMOOTH",
"258 645 OFFCURVE",
"229 661 OFFCURVE",
"194 661 CURVE SMOOTH",
"158 661 OFFCURVE",
"128 645 OFFCURVE",
"128 618 CURVE SMOOTH",
"128 593 OFFCURVE",
"158 576 OFFCURVE",
"194 576 CURVE SMOOTH"
);
}
);
width = 404;
}
);
leftKerningGroup = ii;
leftMetricsKey = l;
rightKerningGroup = i;
unicode = 0069;
},
{
color = 4;
glyphname = dotlessi;
lastChange = "2023-02-19 07:03:36 +0000";
layers = (
{
anchors = (
{
name = bottom;
position = "{168, 0}";
},
{
name = ogonek;
position = "{341, 10}";
},
{
name = top;
position = "{168, 500}";
}
);
layerId = "2660E96A-9963-4076-AFCB-E451BC6EE103";
paths = (
{
closed = 1;
nodes = (
"345 0 LINE",
"345 10 LINE",
"295 20 LINE",
"295 515 LINE",
"10 475 LINE",
"10 464 LINE",
"60 464 LINE",
"60 20 LINE",
"10 10 LINE",
"10 0 LINE"
);
}
);
width = 355;
},
{
anchors = (
{
name = bottom;
position = "{320, 0}";
},
{
name = ogonek;
position = "{626, 10}";
},
{
name = top;
position = "{320, 500}";
}
);
layerId = "DF54607F-DD82-41E6-B2E3-81CA6D0E5C47";
paths = (
{
closed = 1;
nodes = (
"630 0 LINE",
"630 10 LINE",
"580 20 LINE",
"580 515 LINE",
"10 475 LINE",
"10 464 LINE",
"60 464 LINE",
"60 20 LINE",
"10 10 LINE",
"10 0 LINE"
);
}
);
width = 640;
},
{
anchors = (
{
name = bottom;
position = "{127, 0}";
},
{
name = ogonek;
position = "{200, 10}";
},
{
name = top;
position = "{127, 500}";
}
);
layerId = "A5088515-37FF-452F-BD44-18A7A5EF88F0";
paths = (
{
closed = 1;
nodes = (
"204 0 LINE",
"204 10 LINE",
"144 20 LINE",
"144 515 LINE",
"60 485 LINE",
"60 474 LINE",
"130 474 LINE",
"130 20 LINE",
"70 10 LINE",
"70 0 LINE"
);
}
);
width = 254;
},
{
anchors = (
{
name = bottom;
position = "{182, 0}";
},
{
name = ogonek;
position = "{314, 10}";
},
{
name = top;
position = "{182, 500}";
}
);
layerId = "35A90D60-3AD4-435C-9F8B-D1CA483F6F66";
paths = (
{
closed = 1;
nodes = (
"324 0 LINE",
"324 10 LINE",
"214 20 LINE",
"214 515 LINE",
"80 485 LINE",
"80 474 LINE",
"200 474 LINE",
"200 20 LINE",
"90 10 LINE",
"90 0 LINE"
);
}
);
width = 394;
}
);
leftKerningGroup = nn;
leftMetricsKey = i;
rightKerningGroup = n;
rightMetricsKey = l;
unicode = 0131;
},
{
color = 4;
glyphname = j;
lastChange = "2023-02-19 07:08:54 +0000";
layers = (
{
layerId = "2660E96A-9963-4076-AFCB-E451BC6EE103";
paths = (
{
closed = 1;
nodes = (
"167 -215 OFFCURVE",
"250 -179 OFFCURVE",
"281 -107 CURVE SMOOTH",
"294 -76 OFFCURVE",
"300 -44 OFFCURVE",
"300 0 CURVE SMOOTH",
"300 515 LINE",
"15 475 LINE",
"15 464 LINE",
"65 464 LINE",
"65 0 LINE",
"85 -74 OFFCURVE",
"92 -109 OFFCURVE",
"92 -141 CURVE SMOOTH",
"92 -181 OFFCURVE",
"77 -205 OFFCURVE",
"27 -205 CURVE SMOOTH",
"-2 -205 OFFCURVE",
"-14 -203 OFFCURVE",
"-14 -196 CURVE SMOOTH",
"-14 -173 OFFCURVE",
"63 -152 OFFCURVE",
"63 -94 CURVE SMOOTH",
"63 -36 OFFCURVE",
"6 -18 OFFCURVE",
"-73 -18 CURVE SMOOTH",
"-150 -18 OFFCURVE",
"-206 -36 OFFCURVE",
"-206 -94 CURVE SMOOTH",
"-206 -173 OFFCURVE",
"-102 -215 OFFCURVE",
"30 -215 CURVE SMOOTH"
);
},
{
closed = 1;
nodes = (
"257 529 OFFCURVE",
"310 571 OFFCURVE",
"310 626 CURVE SMOOTH",
"310 683 OFFCURVE",
"257 723 OFFCURVE",
"182 723 CURVE SMOOTH",
"106 723 OFFCURVE",
"55 683 OFFCURVE",
"55 626 CURVE SMOOTH",
"55 571 OFFCURVE",
"106 529 OFFCURVE",
"182 529 CURVE SMOOTH"
);
}
);
width = 355;
},
{
layerId = "DF54607F-DD82-41E6-B2E3-81CA6D0E5C47";
paths = (
{
closed = 1;
nodes = (
"291 -215 OFFCURVE",
"441 -186 OFFCURVE",
"523 -119 CURVE SMOOTH",
"563 -87 OFFCURVE",
"585 -44 OFFCURVE",
"585 0 CURVE SMOOTH",
"585 515 LINE",
"15 475 LINE",
"15 464 LINE",
"65 464 LINE",
"65 0 LINE",
"82 -67 OFFCURVE",
"91 -117 OFFCURVE",
"91 -140 CURVE SMOOTH",
"91 -180 OFFCURVE",
"76 -204 OFFCURVE",
"27 -204 CURVE SMOOTH",
"8 -204 OFFCURVE",
"3 -200 OFFCURVE",
"3 -192 CURVE SMOOTH",
"3 -172 OFFCURVE",
"71 -134 OFFCURVE",
"71 -101 CURVE SMOOTH",
"71 -32 OFFCURVE",
"-34 -18 OFFCURVE",
"-230 -18 CURVE SMOOTH",
"-384 -18 OFFCURVE",
"-493 -33 OFFCURVE",
"-493 -90 CURVE SMOOTH",
"-493 -175 OFFCURVE",
"-252 -215 OFFCURVE",
"30 -215 CURVE SMOOTH"
);
},
{
closed = 1;
nodes = (
"479 529 OFFCURVE",
"590 571 OFFCURVE",
"590 626 CURVE SMOOTH",
"590 683 OFFCURVE",
"479 723 OFFCURVE",
"321 723 CURVE SMOOTH",
"162 723 OFFCURVE",
"55 683 OFFCURVE",
"55 626 CURVE SMOOTH",
"55 571 OFFCURVE",
"162 529 OFFCURVE",
"321 529 CURVE SMOOTH"
);
}
);
width = 635;
},
{
layerId = "A5088515-37FF-452F-BD44-18A7A5EF88F0";
paths = (
{
closed = 1;
nodes = (
"165 -215 OFFCURVE",
"195 -182 OFFCURVE",
"195 -107 CURVE SMOOTH",
"195 -76 OFFCURVE",
"193 -49 OFFCURVE",
"187 0 CURVE",
"187 515 LINE",
"103 485 LINE",
"103 474 LINE",
"173 474 LINE",
"173 0 LINE",
"179 -40 OFFCURVE",
"181 -67 OFFCURVE",
"181 -107 CURVE SMOOTH",
"181 -174 OFFCURVE",
"155 -204 OFFCURVE",
"96 -204 CURVE SMOOTH",
"71 -204 OFFCURVE",
"63 -201 OFFCURVE",
"63 -195 CURVE SMOOTH",
"63 -179 OFFCURVE",
"99 -165 OFFCURVE",
"99 -131 CURVE SMOOTH",
"99 -106 OFFCURVE",
"73 -93 OFFCURVE",
"47 -93 CURVE SMOOTH",
"21 -93 OFFCURVE",
"-5 -106 OFFCURVE",
"-5 -134 CURVE SMOOTH",
"-5 -183 OFFCURVE",
"38 -215 OFFCURVE",
"96 -215 CURVE SMOOTH"
);
},
{
closed = 1;
nodes = (
"199 576 OFFCURVE",
"221 593 OFFCURVE",
"221 618 CURVE SMOOTH",
"221 645 OFFCURVE",
"199 661 OFFCURVE",
"172 661 CURVE SMOOTH",
"144 661 OFFCURVE",
"121 645 OFFCURVE",
"121 618 CURVE SMOOTH",
"121 593 OFFCURVE",
"144 576 OFFCURVE",
"172 576 CURVE SMOOTH"
);
}
);
width = 311;
},
{
layerId = "35A90D60-3AD4-435C-9F8B-D1CA483F6F66";
paths = (
{
closed = 1;
nodes = (
"183 -215 OFFCURVE",
"250 -186 OFFCURVE",
"250 -119 CURVE SMOOTH",
"250 -90 OFFCURVE",
"244 -60 OFFCURVE",
"224 0 CURVE",
"224 515 LINE",
"90 485 LINE",
"90 474 LINE",
"210 474 LINE",
"210 0 LINE",
"230 -57 OFFCURVE",
"236 -87 OFFCURVE",
"236 -119 CURVE SMOOTH",
"236 -178 OFFCURVE",
"174 -204 OFFCURVE",
"31 -204 CURVE SMOOTH",
"-29 -204 OFFCURVE",
"-47 -201 OFFCURVE",
"-47 -195 CURVE SMOOTH",
"-47 -184 OFFCURVE",
"27 -161 OFFCURVE",
"27 -131 CURVE SMOOTH",
"27 -106 OFFCURVE",
"-24 -93 OFFCURVE",
"-85 -93 CURVE SMOOTH",
"-155 -93 OFFCURVE",
"-196 -108 OFFCURVE",
"-196 -134 CURVE SMOOTH",
"-196 -183 OFFCURVE",
"-106 -215 OFFCURVE",
"31 -215 CURVE SMOOTH"
);
},
{
closed = 1;
nodes = (
"239 576 OFFCURVE",
"268 593 OFFCURVE",
"268 618 CURVE SMOOTH",
"268 645 OFFCURVE",
"239 661 OFFCURVE",
"204 661 CURVE SMOOTH",
"168 661 OFFCURVE",
"138 645 OFFCURVE",
"138 618 CURVE SMOOTH",
"138 593 OFFCURVE",
"168 576 OFFCURVE",
"204 576 CURVE SMOOTH"
);
}
);
width = 358;
}
);
leftKerningGroup = ii;
rightKerningGroup = j;
unicode = 006A;
},
{
color = 5;
glyphname = jdotless;
lastChange = "2023-02-19 07:03:36 +0000";
layers = (
{
layerId = "DF54607F-DD82-41E6-B2E3-81CA6D0E5C47";
paths = (
{
closed = 1;
nodes = (
"302 -215 OFFCURVE",
"438 -188 OFFCURVE",
"523 -119 CURVE SMOOTH",
"564 -86 OFFCURVE",
"585 -44 OFFCURVE",
"585 10 CURVE SMOOTH",
"585 515 LINE",
"15 475 LINE",
"15 464 LINE",
"65 464 LINE",
"65 20 LINE",
"76 -44 OFFCURVE",
"91 -100 OFFCURVE",
"91 -140 CURVE SMOOTH",
"91 -180 OFFCURVE",
"76 -204 OFFCURVE",
"27 -204 CURVE SMOOTH",
"8 -204 OFFCURVE",
"3 -200 OFFCURVE",
"3 -192 CURVE SMOOTH",
"3 -182 OFFCURVE",
"18 -169 OFFCURVE",
"35 -154 CURVE SMOOTH",
"52 -137 OFFCURVE",
"71 -119 OFFCURVE",
"71 -101 CURVE SMOOTH",
"71 -32 OFFCURVE",
"-34 -18 OFFCURVE",
"-230 -18 CURVE SMOOTH",
"-384 -18 OFFCURVE",
"-493 -33 OFFCURVE",
"-493 -90 CURVE SMOOTH",
"-493 -175 OFFCURVE",
"-252 -215 OFFCURVE",
"30 -215 CURVE SMOOTH"
);
}
);
width = 635;
},
{
layerId = "A5088515-37FF-452F-BD44-18A7A5EF88F0";
paths = (
{
closed = 1;
nodes = (
"165 -215 OFFCURVE",
"195 -182 OFFCURVE",
"195 -107 CURVE SMOOTH",
"195 -72 OFFCURVE",
"190 -41 OFFCURVE",
"187 0 CURVE",
"187 515 LINE",
"103 485 LINE",
"103 474 LINE",
"173 474 LINE",
"173 0 LINE",
"177 -40 OFFCURVE",
"181 -73 OFFCURVE",
"181 -107 CURVE SMOOTH",
"181 -174 OFFCURVE",
"155 -204 OFFCURVE",
"96 -204 CURVE SMOOTH",
"71 -204 OFFCURVE",
"63 -201 OFFCURVE",
"63 -195 CURVE SMOOTH",
"63 -190 OFFCURVE",
"71 -182 OFFCURVE",
"80 -171 CURVE SMOOTH",
"89 -160 OFFCURVE",
"99 -146 OFFCURVE",
"99 -131 CURVE SMOOTH",
"99 -106 OFFCURVE",
"73 -93 OFFCURVE",
"47 -93 CURVE SMOOTH",
"21 -93 OFFCURVE",
"-5 -106 OFFCURVE",
"-5 -134 CURVE SMOOTH",
"-5 -183 OFFCURVE",
"38 -215 OFFCURVE",
"96 -215 CURVE SMOOTH"
);
}
);
width = 311;
},
{
layerId = "2660E96A-9963-4076-AFCB-E451BC6EE103";
paths = (
{
closed = 1;
nodes = (
"166 -215 OFFCURVE",
"250 -179 OFFCURVE",
"281 -107 CURVE SMOOTH",
"297 -70 OFFCURVE",
"300 -26 OFFCURVE",
"300 10 CURVE SMOOTH",
"300 515 LINE",
"15 475 LINE",
"15 464 LINE",
"65 464 LINE",
"65 10 LINE",
"76 -44 OFFCURVE",
"92 -101 OFFCURVE",
"92 -141 CURVE SMOOTH",
"92 -181 OFFCURVE",
"77 -205 OFFCURVE",
"27 -205 CURVE SMOOTH",
"-2 -205 OFFCURVE",
"-14 -203 OFFCURVE",
"-14 -196 CURVE SMOOTH",
"-14 -185 OFFCURVE",
"5 -174 OFFCURVE",
"24 -159 CURVE SMOOTH",
"43 -143 OFFCURVE",
"63 -123 OFFCURVE",
"63 -94 CURVE SMOOTH",
"63 -36 OFFCURVE",
"6 -15 OFFCURVE",
"-73 -15 CURVE SMOOTH",
"-150 -15 OFFCURVE",
"-206 -36 OFFCURVE",
"-206 -94 CURVE SMOOTH",
"-206 -173 OFFCURVE",
"-102 -215 OFFCURVE",
"30 -215 CURVE SMOOTH"
);
}
);
width = 355;
},
{
layerId = "35A90D60-3AD4-435C-9F8B-D1CA483F6F66";
paths = (
{
closed = 1;
nodes = (
"183 -215 OFFCURVE",
"250 -186 OFFCURVE",
"250 -119 CURVE SMOOTH",
"250 -82 OFFCURVE",
"233 -46 OFFCURVE",
"224 0 CURVE",
"224 515 LINE",
"90 485 LINE",
"90 474 LINE",
"210 474 LINE",
"210 0 LINE",
"219 -44 OFFCURVE",
"236 -81 OFFCURVE",
"236 -119 CURVE SMOOTH",
"236 -178 OFFCURVE",
"174 -204 OFFCURVE",
"31 -204 CURVE SMOOTH",
"-29 -204 OFFCURVE",
"-47 -201 OFFCURVE",
"-47 -195 CURVE SMOOTH",
"-46 -189 OFFCURVE",
"-28 -181 OFFCURVE",
"-9 -170 CURVE SMOOTH",
"9 -159 OFFCURVE",
"27 -146 OFFCURVE",
"27 -131 CURVE SMOOTH",
"27 -106 OFFCURVE",
"-24 -93 OFFCURVE",
"-85 -93 CURVE SMOOTH",
"-155 -93 OFFCURVE",
"-196 -108 OFFCURVE",
"-196 -134 CURVE SMOOTH",
"-196 -183 OFFCURVE",
"-106 -215 OFFCURVE",
"31 -215 CURVE SMOOTH"
);
}
);
width = 358;
}
);
leftKerningGroup = ii;
rightKerningGroup = j;
unicode = 0237;
},
{
color = 4;
glyphname = k;
lastChange = "2023-02-19 07:19:40 +0000";
layers = (
{
anchors = (
{
name = bottom;
position = "{366, 0}";
},
{
name = top;
position = "{336, 926}";
}
);
layerId = "2660E96A-9963-4076-AFCB-E451BC6EE103";
paths = (
{
closed = 1;
nodes = (
"295 745 LINE",
"10 705 LINE",
"10 694 LINE",
"60 694 LINE",
"60 20 LINE",
"10 10 LINE",
"10 0 LINE",
"345 0 LINE",
"345 10 LINE",
"295 20 LINE"
);
},
{
closed = 1;
nodes = (
"312 270 LINE",
"323 226 OFFCURVE",
"335 188 OFFCURVE",
"348 138 CURVE SMOOTH",
"373 43 OFFCURVE",
"437 -15 OFFCURVE",
"533 -15 CURVE SMOOTH",
"584 -15 OFFCURVE",
"620 -6 OFFCURVE",
"659 15 CURVE",
"659 25 LINE",
"654 25 OFFCURVE",
"649 27 OFFCURVE",
"644 32 CURVE SMOOTH",
"624 52 OFFCURVE",
"601 111 OFFCURVE",
"587 167 CURVE SMOOTH",
"575 213 OFFCURVE",
"564 260 OFFCURVE",
"552 305 CURVE",
"423 305 LINE",
"423 317 LINE",
"472 343 OFFCURVE",
"512 366 OFFCURVE",
"542 389 CURVE SMOOTH",
"587 423 OFFCURVE",
"610 457 OFFCURVE",
"610 502 CURVE SMOOTH",
"610 569 OFFCURVE",
"552 616 OFFCURVE",
"470 616 CURVE SMOOTH",
"400 616 OFFCURVE",
"350 581 OFFCURVE",
"350 531 CURVE SMOOTH",
"350 428 OFFCURVE",
"544 442 OFFCURVE",
"544 413 CURVE SMOOTH",
"544 399 OFFCURVE",
"501 371 OFFCURVE",
"433 339 CURVE SMOOTH",
"375 312 OFFCURVE",
"329 295 OFFCURVE",
"285 287 CURVE",
"285 270 LINE"
);
}
);
width = 671;
},
{
anchors = (
{
name = bottom;
position = "{654, 0}";
},
{
name = top;
position = "{614, 926}";
}
);
layerId = "DF54607F-DD82-41E6-B2E3-81CA6D0E5C47";
paths = (
{
closed = 1;
nodes = (
"580 745 LINE",
"10 705 LINE",
"10 694 LINE",
"60 694 LINE",
"60 20 LINE",
"10 10 LINE",
"10 0 LINE",
"630 0 LINE",
"630 10 LINE",
"580 20 LINE"
);
},
{
closed = 1;
nodes = (
"597 270 LINE",
"609 226 OFFCURVE",
"621 182 OFFCURVE",
"633 138 CURVE SMOOTH",
"666 17 OFFCURVE",
"796 -15 OFFCURVE",
"942 -15 CURVE SMOOTH",
"1050 -15 OFFCURVE",
"1158 3 OFFCURVE",
"1213 15 CURVE",
"1213 25 LINE",
"1208 25 OFFCURVE",
"1201 28 OFFCURVE",
"1197 33 CURVE SMOOTH",
"1178 56 OFFCURVE",
"1155 112 OFFCURVE",
"1141 167 CURVE SMOOTH",
"1129 213 OFFCURVE",
"1118 260 OFFCURVE",
"1106 305 CURVE",
"764 305 LINE",
"764 317 LINE",
"868 343 OFFCURVE",
"951 366 OFFCURVE",
"1014 387 CURVE SMOOTH",
"1149 432 OFFCURVE",
"1216 474 OFFCURVE",
"1216 512 CURVE SMOOTH",
"1216 570 OFFCURVE",
"1090 616 OFFCURVE",
"930 616 CURVE SMOOTH",
"775 616 OFFCURVE",
"654 579 OFFCURVE",
"654 531 CURVE SMOOTH",
"654 439 OFFCURVE",
"1048 445 OFFCURVE",
"1048 419 CURVE SMOOTH",
"1048 407 OFFCURVE",
"938 375 OFFCURVE",
"819 345 CURVE SMOOTH",
"731 322 OFFCURVE",
"639 301 OFFCURVE",
"570 287 CURVE",
"570 270 LINE"
);
}
);
width = 1227;
},
{
anchors = (
{
name = bottom;
position = "{274, 0}";
},
{
name = top;
position = "{250, 926}";
}
);
layerId = "A5088515-37FF-452F-BD44-18A7A5EF88F0";
paths = (
{
closed = 1;
nodes = (
"144 745 LINE",
"60 715 LINE",
"60 704 LINE",
"130 704 LINE",
"130 20 LINE",
"70 10 LINE",
"70 0 LINE",
"204 0 LINE",
"204 10 LINE",
"144 20 LINE"
);
},
{
closed = 1;
nodes = (
"220 278 LINE",
"251 221 OFFCURVE",
"279 172 OFFCURVE",
"305 130 CURVE SMOOTH",
"374 21 OFFCURVE",
"406 -15 OFFCURVE",
"434 -15 CURVE SMOOTH",
"443 -15 OFFCURVE",
"450 -12 OFFCURVE",
"459 -4 CURVE",
"459 10 LINE",
"452 3 OFFCURVE",
"446 0 OFFCURVE",
"437 0 CURVE SMOOTH {name = \"❌\";}",
"410 0 OFFCURVE",
"379 35 OFFCURVE",
"314 139 CURVE SMOOTH",
"297 165 OFFCURVE",
"269 214 OFFCURVE",
"231 287 CURVE",
"208 287 LINE",
"208 297 LINE",
"265 328 OFFCURVE",
"305 352 OFFCURVE",
"328 368 CURVE SMOOTH",
"378 404 OFFCURVE",
"403 436 OFFCURVE",
"403 466 CURVE SMOOTH",
"403 495 OFFCURVE",
"377 515 OFFCURVE",
"344 515 CURVE SMOOTH",
"308 515 OFFCURVE",
"280 493 OFFCURVE",
"280 466 CURVE SMOOTH",
"280 420 OFFCURVE",
"346 417 OFFCURVE",
"346 402 CURVE SMOOTH",
"346 392 OFFCURVE",
"327 378 OFFCURVE",
"271 345 CURVE SMOOTH",
"224 318 OFFCURVE",
"169 288 OFFCURVE",
"134 288 CURVE",
"134 278 LINE"
);
}
);
width = 499;
},
{
anchors = (
{
name = bottom;
position = "{463, 0}";
},
{
name = top;
position = "{413, 926}";
}
);
layerId = "35A90D60-3AD4-435C-9F8B-D1CA483F6F66";
paths = (
{
closed = 1;
nodes = (
"214 745 LINE",
"80 715 LINE",
"80 704 LINE",
"200 704 LINE",
"200 20 LINE",
"90 10 LINE",
"90 0 LINE",
"324 0 LINE",
"324 10 LINE",
"214 20 LINE"
);
},
{
closed = 1;
nodes = (
"326 278 LINE",
"385 219 OFFCURVE",
"438 170 OFFCURVE",
"486 130 CURVE SMOOTH",
"618 21 OFFCURVE",
"678 -15 OFFCURVE",
"728 -15 CURVE SMOOTH",
"743 -15 OFFCURVE",
"758 -12 OFFCURVE",
"775 -4 CURVE",
"775 10 LINE",
"760 2 OFFCURVE",
"747 0 OFFCURVE",
"734 0 CURVE SMOOTH {name = \"❌\";}",
"680 0 OFFCURVE",
"620 35 OFFCURVE",
"495 141 CURVE SMOOTH",
"434 194 OFFCURVE",
"383 243 OFFCURVE",
"340 287 CURVE",
"298 287 LINE",
"298 290 LINE",
"381 314 OFFCURVE",
"449 336 OFFCURVE",
"503 357 CURVE SMOOTH",
"618 400 OFFCURVE",
"670 435 OFFCURVE",
"670 467 CURVE SMOOTH",
"670 498 OFFCURVE",
"613 515 OFFCURVE",
"556 515 CURVE SMOOTH",
"500 515 OFFCURVE",
"437 497 OFFCURVE",
"437 466 CURVE SMOOTH",
"437 419 OFFCURVE",
"571 419 OFFCURVE",
"571 404 CURVE SMOOTH",
"571 396 OFFCURVE",
"499 366 OFFCURVE",
"403 335 CURVE SMOOTH",
"331 311 OFFCURVE",
"253 288 OFFCURVE",
"209 288 CURVE",
"209 278 LINE"
);
}
);
width = 825;
}
);
leftKerningGroup = ll;
leftMetricsKey = l;
rightKerningGroup = k;
unicode = 006B;
},
{
color = 4;
glyphname = l;
lastChange = "2023-02-19 07:03:36 +0000";
layers = (
{
anchors = (
{
name = bottom;
position = "{178, 0}";
},
{
name = center;
position = "{178, 463}";
},
{
name = top;
position = "{178, 708}";
},
{
name = topright;
position = "{425, 723}";
}
);
layerId = "2660E96A-9963-4076-AFCB-E451BC6EE103";
paths = (
{
closed = 1;
nodes = (
"295 745 LINE",
"10 705 LINE",
"10 694 LINE",
"60 694 LINE",
"60 20 LINE",
"10 10 LINE",
"10 0 LINE",
"345 0 LINE",
"345 10 LINE",
"295 20 LINE"
);
}
);
width = 355;
},
{
anchors = (
{
name = bottom;
position = "{320, 0}";
},
{
name = center;
position = "{320, 463}";
},
{
name = top;
position = "{320, 708}";
},
{
name = topright;
position = "{870, 723}";
}
);
layerId = "DF54607F-DD82-41E6-B2E3-81CA6D0E5C47";
paths = (
{
closed = 1;
nodes = (
"580 745 LINE",
"10 705 LINE",
"10 694 LINE",
"60 694 LINE",
"60 20 LINE",
"10 10 LINE",
"10 0 LINE",
"630 0 LINE",
"630 10 LINE",
"580 20 LINE"
);
}
);
width = 640;
},
{
anchors = (
{
name = bottom;
position = "{126, 0}";
},
{
name = center;
position = "{127, 463}";
},
{
name = top;
position = "{126, 708}";
},
{
name = topright;
position = "{254, 723}";
}
);
layerId = "A5088515-37FF-452F-BD44-18A7A5EF88F0";
paths = (
{
closed = 1;
nodes = (
"144 745 LINE",
"60 715 LINE",
"60 704 LINE",
"130 704 LINE",
"130 20 LINE",
"70 10 LINE",
"70 0 LINE",
"204 0 LINE",
"204 10 LINE",
"144 20 LINE"
);
}
);
width = 254;
},
{
anchors = (
{
name = bottom;
position = "{197, 0}";
},
{
name = center;
position = "{197, 463}";
},
{
name = top;
position = "{197, 708}";
},
{
name = topright;
position = "{334, 723}";
}
);
layerId = "35A90D60-3AD4-435C-9F8B-D1CA483F6F66";
paths = (
{
closed = 1;
nodes = (
"214 745 LINE",
"80 715 LINE",
"80 704 LINE",
"200 704 LINE",
"200 20 LINE",
"90 10 LINE",
"90 0 LINE",
"324 0 LINE",
"324 10 LINE",
"214 20 LINE"
);
}
);
width = 394;
}
);
leftKerningGroup = ll;
rightKerningGroup = l;
unicode = 006C;
},
{
color = 5;
glyphname = lslash;
lastChange = "2023-02-19 07:03:36 +0000";
layers = (
{
components = (
{
name = l;
}
);
layerId = "DF54607F-DD82-41E6-B2E3-81CA6D0E5C47";
paths = (
{
closed = 1;
nodes = (
"625 518 LINE",
"618 529 LINE",
"10 312 LINE",
"16 302 LINE"
);
}
);
width = 640;
},
{
background = {
paths = (
{
closed = 1;
nodes = (
"217 447 LINE",
"210 456 LINE",
"51 336 LINE",
"58 328 LINE"
);
}
);
};
components = (
{
name = l;
}
);
layerId = "A5088515-37FF-452F-BD44-18A7A5EF88F0";
paths = (
{
closed = 1;
nodes = (
"241 446 LINE",
"234 457 LINE",
"40 349 LINE",
"46 339 LINE"
);
}
);
width = 254;
},
{
components = (
{
name = l;
}
);
layerId = "2660E96A-9963-4076-AFCB-E451BC6EE103";
paths = (
{
closed = 1;
nodes = (
"375 518 LINE",
"368 529 LINE",
"-20 312 LINE",
"-14 302 LINE"
);
}
);
width = 355;
},
{
components = (
{
name = l;
}
);
layerId = "35A90D60-3AD4-435C-9F8B-D1CA483F6F66";
paths = (
{
closed = 1;
nodes = (
"330 478 LINE",
"323 489 LINE",
"70 349 LINE",
"76 339 LINE"
);
}
);
width = 394;
}
);
leftKerningGroup = ll;
rightKerningGroup = l;
unicode = 0142;
},
{
color = 4;
glyphname = m;
lastChange = "2023-02-19 07:03:36 +0000";
layers = (
{
layerId = "2660E96A-9963-4076-AFCB-E451BC6EE103";
paths = (
{
closed = 1;
nodes = (
"337 0 LINE",
"337 10 LINE",
"297 25 LINE",
"297 290 LINE",
"302 311 OFFCURVE",
"340 440 OFFCURVE",
"377 440 CURVE SMOOTH",
"393 440 OFFCURVE",
"407 416 OFFCURVE",
"407 375 CURVE SMOOTH",
"407 25 LINE",
"367 10 LINE",
"367 0 LINE",
"682 0 LINE",
"682 10 LINE",
"642 25 LINE",
"642 352 LINE SMOOTH",
"642 454 OFFCURVE",
"593 515 OFFCURVE",
"489 515 CURVE SMOOTH",
"389 515 OFFCURVE",
"339 440 OFFCURVE",
"305 344 CURVE",
"297 352 LINE",
"297 500 LINE",
"12 460 LINE",
"12 449 LINE",
"62 449 LINE",
"62 25 LINE",
"12 10 LINE",
"12 0 LINE"
);
},
{
closed = 1;
nodes = (
"1037 0 LINE",
"1037 10 LINE",
"987 25 LINE",
"987 340 LINE SMOOTH",
"987 434 OFFCURVE",
"957 515 OFFCURVE",
"834 515 CURVE SMOOTH",
"734 515 OFFCURVE",
"684 440 OFFCURVE",
"650 344 CURVE",
"642 352 LINE",
"642 290 LINE",
"647 311 OFFCURVE",
"685 440 OFFCURVE",
"722 440 CURVE SMOOTH",
"738 440 OFFCURVE",
"752 416 OFFCURVE",
"752 375 CURVE SMOOTH",
"752 25 LINE",
"712 10 LINE",
"712 0 LINE"
);
}
);
width = 1047;
},
{
layerId = "DF54607F-DD82-41E6-B2E3-81CA6D0E5C47";
paths = (
{
closed = 1;
nodes = (
"622 0 LINE",
"622 10 LINE",
"582 20 LINE",
"582 310 LINE",
"619 384 OFFCURVE",
"643 416 OFFCURVE",
"662 416 CURVE SMOOTH",
"680 416 OFFCURVE",
"692 399 OFFCURVE",
"692 355 CURVE SMOOTH",
"692 20 LINE",
"652 10 LINE",
"652 0 LINE",
"1252 0 LINE",
"1252 10 LINE",
"1202 20 LINE",
"1202 340 LINE SMOOTH",
"1202 439 OFFCURVE",
"1062 515 OFFCURVE",
"911 515 CURVE SMOOTH",
"736 515 OFFCURVE",
"638 463 OFFCURVE",
"590 344 CURVE",
"582 352 LINE",
"582 515 LINE",
"12 475 LINE",
"12 464 LINE",
"62 464 LINE",
"62 20 LINE",
"12 10 LINE",
"12 0 LINE"
);
},
{
closed = 1;
nodes = (
"1882 0 LINE",
"1882 10 LINE",
"1832 20 LINE",
"1832 340 LINE SMOOTH",
"1832 469 OFFCURVE",
"1692 515 OFFCURVE",
"1541 515 CURVE SMOOTH",
"1371 515 OFFCURVE",
"1256 458 OFFCURVE",
"1210 344 CURVE",
"1196 357 LINE",
"1196 290 LINE",
"1227 371 OFFCURVE",
"1258 416 OFFCURVE",
"1282 416 CURVE SMOOTH",
"1300 416 OFFCURVE",
"1312 399 OFFCURVE",
"1312 355 CURVE SMOOTH",
"1312 20 LINE",
"1272 10 LINE",
"1272 0 LINE"
);
}
);
width = 1892;
},
{
layerId = "A5088515-37FF-452F-BD44-18A7A5EF88F0";
paths = (
{
closed = 1;
nodes = (
"214 0 LINE",
"214 10 LINE",
"144 20 LINE",
"144 300 LINE",
"203 423 OFFCURVE",
"295 500 OFFCURVE",
"383 500 CURVE SMOOTH",
"465 500 OFFCURVE",
"505 447 OFFCURVE",
"505 338 CURVE SMOOTH",
"505 20 LINE",
"435 10 LINE",
"435 0 LINE",
"589 0 LINE",
"589 10 LINE",
"519 20 LINE",
"519 338 LINE SMOOTH",
"519 457 OFFCURVE",
"474 515 OFFCURVE",
"383 515 CURVE SMOOTH",
"301 515 OFFCURVE",
"205 444 OFFCURVE",
"152 344 CURVE",
"144 350 LINE",
"144 515 LINE",
"60 485 LINE",
"60 474 LINE",
"130 474 LINE",
"130 20 LINE",
"70 10 LINE",
"70 0 LINE"
);
},
{
closed = 1;
nodes = (
"963 0 LINE",
"963 10 LINE",
"893 20 LINE",
"893 338 LINE SMOOTH",
"893 457 OFFCURVE",
"848 515 OFFCURVE",
"757 515 CURVE SMOOTH",
"675 515 OFFCURVE",
"579 444 OFFCURVE",
"526 344 CURVE",
"518 350 LINE",
"518 300 LINE",
"577 423 OFFCURVE",
"669 500 OFFCURVE",
"757 500 CURVE SMOOTH",
"839 500 OFFCURVE",
"879 447 OFFCURVE",
"879 338 CURVE SMOOTH",
"879 20 LINE",
"809 10 LINE",
"809 0 LINE"
);
}
);
width = 1003;
},
{
layerId = "35A90D60-3AD4-435C-9F8B-D1CA483F6F66";
paths = (
{
closed = 1;
nodes = (
"324 0 LINE",
"324 10 LINE",
"204 20 LINE",
"204 300 LINE",
"307 404 OFFCURVE",
"465 500 OFFCURVE",
"638 500 CURVE SMOOTH",
"795 500 OFFCURVE",
"871 447 OFFCURVE",
"871 338 CURVE SMOOTH",
"871 20 LINE",
"751 10 LINE",
"751 0 LINE",
"1005 0 LINE",
"1005 10 LINE",
"885 20 LINE",
"885 338 LINE SMOOTH",
"885 457 OFFCURVE",
"812 515 OFFCURVE",
"638 515 CURVE SMOOTH",
"497 515 OFFCURVE",
"345 447 OFFCURVE",
"218 334 CURVE",
"204 341 LINE",
"204 515 LINE",
"70 485 LINE",
"70 474 LINE",
"190 474 LINE",
"190 20 LINE",
"80 10 LINE",
"80 0 LINE"
);
},
{
closed = 1;
nodes = (
"1686 0 LINE",
"1686 10 LINE",
"1566 20 LINE",
"1566 338 LINE SMOOTH",
"1566 457 OFFCURVE",
"1493 515 OFFCURVE",
"1319 515 CURVE SMOOTH",
"1178 515 OFFCURVE",
"1026 447 OFFCURVE",
"899 334 CURVE",
"885 341 LINE",
"885 300 LINE",
"988 404 OFFCURVE",
"1146 500 OFFCURVE",
"1319 500 CURVE SMOOTH",
"1476 500 OFFCURVE",
"1552 447 OFFCURVE",
"1552 338 CURVE SMOOTH",
"1552 20 LINE",
"1432 10 LINE",
"1432 0 LINE"
);
}
);
width = 1736;
}
);
leftKerningGroup = nn;
leftMetricsKey = n;
rightKerningGroup = n;
rightMetricsKey = n;
unicode = 006D;
},
{
color = 4;
glyphname = n;
lastChange = "2023-02-19 07:03:36 +0000";
layers = (
{
anchors = (
{
name = bottom;
position = "{352, 0}";
},
{
name = top;
position = "{352, 500}";
}
);
layerId = "2660E96A-9963-4076-AFCB-E451BC6EE103";
paths = (
{
closed = 1;
nodes = (
"642 20 LINE",
"642 340 LINE SMOOTH",
"642 434 OFFCURVE",
"612 515 OFFCURVE",
"489 515 CURVE SMOOTH",
"389 515 OFFCURVE",
"339 440 OFFCURVE",
"305 344 CURVE",
"297 352 LINE",
"297 515 LINE",
"12 475 LINE",
"12 464 LINE",
"62 464 LINE",
"62 20 LINE",
"12 10 LINE",
"12 0 LINE",
"337 0 LINE",
"337 10 LINE",
"297 20 LINE",
"297 290 LINE",
"302 311 OFFCURVE",
"340 440 OFFCURVE",
"377 440 CURVE SMOOTH",
"393 440 OFFCURVE",
"407 416 OFFCURVE",
"407 375 CURVE SMOOTH",
"407 20 LINE",
"367 10 LINE",
"367 0 LINE",
"692 0 LINE",
"692 10 LINE"
);
}
);
width = 702;
},
{
anchors = (
{
name = bottom;
position = "{646, 0}";
},
{
name = top;
position = "{646, 500}";
}
);
layerId = "DF54607F-DD82-41E6-B2E3-81CA6D0E5C47";
paths = (
{
closed = 1;
nodes = (
"1232 20 LINE",
"1232 340 LINE SMOOTH",
"1232 469 OFFCURVE",
"1092 515 OFFCURVE",
"941 515 CURVE SMOOTH",
"773 515 OFFCURVE",
"656 458 OFFCURVE",
"590 344 CURVE",
"582 352 LINE",
"582 515 LINE",
"12 475 LINE",
"12 464 LINE",
"62 464 LINE",
"62 20 LINE",
"12 10 LINE",
"12 0 LINE",
"622 0 LINE",
"622 10 LINE",
"582 20 LINE",
"582 310 LINE",
"615 375 OFFCURVE",
"653 416 OFFCURVE",
"682 416 CURVE SMOOTH",
"700 416 OFFCURVE",
"712 399 OFFCURVE",
"712 355 CURVE SMOOTH",
"712 20 LINE",
"672 10 LINE",
"672 0 LINE",
"1282 0 LINE",
"1282 10 LINE"
);
}
);
width = 1292;
},
{
anchors = (
{
name = bottom;
position = "{335, 0}";
},
{
name = top;
position = "{335, 500}";
}
);
layerId = "A5088515-37FF-452F-BD44-18A7A5EF88F0";
paths = (
{
closed = 1;
nodes = (
"539 20 LINE",
"539 338 LINE SMOOTH",
"539 457 OFFCURVE",
"494 515 OFFCURVE",
"403 515 CURVE SMOOTH",
"314 515 OFFCURVE",
"224 454 OFFCURVE",
"152 344 CURVE",
"144 350 LINE",
"144 515 LINE",
"60 485 LINE",
"60 474 LINE",
"130 474 LINE",
"130 20 LINE",
"70 10 LINE",
"70 0 LINE",
"214 0 LINE",
"214 10 LINE",
"144 20 LINE",
"144 300 LINE",
"200 417 OFFCURVE",
"306 500 OFFCURVE",
"403 500 CURVE SMOOTH",
"485 500 OFFCURVE",
"525 447 OFFCURVE",
"525 338 CURVE SMOOTH",
"525 20 LINE",
"455 10 LINE",
"455 0 LINE",
"609 0 LINE",
"609 10 LINE"
);
}
);
width = 649;
},
{
anchors = (
{
name = bottom;
position = "{536, 0}";
},
{
name = top;
position = "{536, 500}";
}
);
layerId = "35A90D60-3AD4-435C-9F8B-D1CA483F6F66";
paths = (
{
closed = 1;
nodes = (
"885 20 LINE",
"885 338 LINE SMOOTH",
"885 457 OFFCURVE",
"812 515 OFFCURVE",
"638 515 CURVE SMOOTH",
"499 515 OFFCURVE",
"348 450 OFFCURVE",
"218 334 CURVE",
"204 341 LINE",
"204 515 LINE",
"70 485 LINE",
"70 474 LINE",
"190 474 LINE",
"190 20 LINE",
"80 10 LINE",
"80 0 LINE",
"324 0 LINE",
"324 10 LINE",
"204 20 LINE",
"204 300 LINE",
"331 428 OFFCURVE",
"487 500 OFFCURVE",
"638 500 CURVE SMOOTH",
"795 500 OFFCURVE",
"871 447 OFFCURVE",
"871 338 CURVE SMOOTH",
"871 20 LINE",
"751 10 LINE",
"751 0 LINE",
"1005 0 LINE",
"1005 10 LINE"
);
}
);
width = 1055;
}
);
leftKerningGroup = nn;
rightKerningGroup = n;
unicode = 006E;
},
{
color = 6;
glyphname = eng;
lastChange = "2023-02-19 07:03:36 +0000";
layers = (
{
anchors = (
{
name = bottom;
position = "{646, 0}";
},
{
name = top;
position = "{646, 500}";
}
);
layerId = "DF54607F-DD82-41E6-B2E3-81CA6D0E5C47";
paths = (
{
closed = 1;
nodes = (
"1232 340 LINE SMOOTH",
"1232 469 OFFCURVE",
"1092 515 OFFCURVE",
"941 515 CURVE SMOOTH",
"771 515 OFFCURVE",
"656 458 OFFCURVE",
"590 344 CURVE",
"582 352 LINE",
"582 515 LINE",
"12 475 LINE",
"12 464 LINE",
"62 464 LINE",
"62 20 LINE",
"12 10 LINE",
"12 0 LINE",
"622 0 LINE",
"622 10 LINE",
"582 20 LINE",
"582 310 LINE",
"611 368 OFFCURVE",
"654 416 OFFCURVE",
"682 416 CURVE SMOOTH",
"700 416 OFFCURVE",
"712 399 OFFCURVE",
"712 355 CURVE SMOOTH",
"712 -83 LINE SMOOTH",
"712 -161 OFFCURVE",
"702 -204 OFFCURVE",
"665 -204 CURVE SMOOTH",
"634 -204 OFFCURVE",
"622 -176 OFFCURVE",
"622 -104 CURVE SMOOTH",
"622 -62 OFFCURVE",
"570 -38 OFFCURVE",
"477 -38 CURVE SMOOTH",
"382 -38 OFFCURVE",
"329 -64 OFFCURVE",
"329 -110 CURVE SMOOTH",
"329 -181 OFFCURVE",
"473 -215 OFFCURVE",
"663 -215 CURVE SMOOTH",
"1090 -215 OFFCURVE",
"1232 -172 OFFCURVE",
"1232 -43 CURVE SMOOTH"
);
}
);
width = 1292;
},
{
anchors = (
{
name = bottom;
position = "{335, 0}";
},
{
name = top;
position = "{335, 500}";
}
);
layerId = "A5088515-37FF-452F-BD44-18A7A5EF88F0";
paths = (
{
closed = 1;
nodes = (
"539 338 LINE SMOOTH",
"539 457 OFFCURVE",
"494 515 OFFCURVE",
"403 515 CURVE SMOOTH",
"314 515 OFFCURVE",
"224 454 OFFCURVE",
"152 344 CURVE",
"144 350 LINE",
"144 515 LINE",
"60 485 LINE",
"60 474 LINE",
"130 474 LINE",
"130 20 LINE",
"70 10 LINE",
"70 0 LINE",
"214 0 LINE",
"214 10 LINE",
"144 20 LINE",
"144 300 LINE",
"200 417 OFFCURVE",
"306 500 OFFCURVE",
"403 500 CURVE SMOOTH",
"485 500 OFFCURVE",
"525 447 OFFCURVE",
"525 338 CURVE SMOOTH",
"525 -114 LINE",
"525 -168 OFFCURVE",
"500 -200 OFFCURVE",
"453 -200 CURVE SMOOTH",
"408 -200 OFFCURVE",
"383 -172 OFFCURVE",
"383 -122 CURVE SMOOTH",
"383 -93 OFFCURVE",
"369 -77 OFFCURVE",
"345 -77 CURVE SMOOTH",
"325 -77 OFFCURVE",
"311 -91 OFFCURVE",
"311 -113 CURVE SMOOTH",
"311 -170 OFFCURVE",
"373 -215 OFFCURVE",
"453 -215 CURVE SMOOTH",
"508 -215 OFFCURVE",
"539 -177 OFFCURVE",
"539 -114 CURVE SMOOTH"
);
}
);
width = 649;
},
{
anchors = (
{
name = bottom;
position = "{352, 0}";
},
{
name = top;
position = "{352, 500}";
}
);
layerId = "2660E96A-9963-4076-AFCB-E451BC6EE103";
paths = (
{
closed = 1;
nodes = (
"642 340 LINE SMOOTH",
"642 434 OFFCURVE",
"612 515 OFFCURVE",
"489 515 CURVE SMOOTH",
"389 515 OFFCURVE",
"339 440 OFFCURVE",
"305 344 CURVE",
"297 352 LINE",
"297 515 LINE",
"12 475 LINE",
"12 464 LINE",
"62 464 LINE",
"62 20 LINE",
"12 10 LINE",
"12 0 LINE",
"337 0 LINE",
"337 10 LINE",
"297 20 LINE",
"297 290 LINE",
"302 311 OFFCURVE",
"340 440 OFFCURVE",
"377 440 CURVE SMOOTH",
"393 440 OFFCURVE",
"407 416 OFFCURVE",
"407 375 CURVE SMOOTH",
"407 -83 LINE SMOOTH",
"407 -161 OFFCURVE",
"405 -204 OFFCURVE",
"380 -204 CURVE SMOOTH",
"353 -204 OFFCURVE",
"340 -171 OFFCURVE",
"340 -104 CURVE SMOOTH",
"340 -60 OFFCURVE",
"306 -38 OFFCURVE",
"236 -38 CURVE SMOOTH",
"178 -38 OFFCURVE",
"146 -64 OFFCURVE",
"146 -110 CURVE SMOOTH",
"146 -182 OFFCURVE",
"254 -215 OFFCURVE",
"380 -215 CURVE SMOOTH",
"510 -215 OFFCURVE",
"642 -161 OFFCURVE",
"642 -83 CURVE SMOOTH"
);
}
);
width = 702;
},
{
anchors = (
{
name = bottom;
position = "{536, 0}";
},
{
name = top;
position = "{536, 500}";
}
);
layerId = "35A90D60-3AD4-435C-9F8B-D1CA483F6F66";
paths = (
{
closed = 1;
nodes = (
"885 338 LINE SMOOTH",
"885 457 OFFCURVE",
"812 515 OFFCURVE",
"638 515 CURVE SMOOTH",
"499 515 OFFCURVE",
"348 450 OFFCURVE",
"218 334 CURVE",
"204 341 LINE",
"204 515 LINE",
"70 485 LINE",
"70 474 LINE",
"190 474 LINE",
"190 20 LINE",
"80 10 LINE",
"80 0 LINE",
"324 0 LINE",
"324 10 LINE",
"204 20 LINE",
"204 300 LINE",
"331 428 OFFCURVE",
"487 500 OFFCURVE",
"638 500 CURVE SMOOTH",
"795 500 OFFCURVE",
"871 447 OFFCURVE",
"871 338 CURVE SMOOTH",
"871 -114 LINE SMOOTH",
"871 -167 OFFCURVE",
"824 -200 OFFCURVE",
"750 -200 CURVE SMOOTH",
"686 -200 OFFCURVE",
"654 -175 OFFCURVE",
"654 -125 CURVE SMOOTH",
"654 -91 OFFCURVE",
"622 -77 OFFCURVE",
"597 -77 CURVE SMOOTH",
"571 -77 OFFCURVE",
"548 -93 OFFCURVE",
"548 -118 CURVE SMOOTH",
"548 -175 OFFCURVE",
"631 -215 OFFCURVE",
"749 -215 CURVE SMOOTH",
"833 -215 OFFCURVE",
"885 -176 OFFCURVE",
"885 -114 CURVE SMOOTH"
);
}
);
width = 1055;
}
);
leftKerningGroup = nn;
rightKerningGroup = n;
unicode = 014B;
},
{
color = 4;
glyphname = o;
lastChange = "2023-02-19 07:03:36 +0000";
layers = (
{
anchors = (
{
name = bottom;
position = "{316, 0}";
},
{
name = center;
position = "{316, 250}";
},
{
name = ogonek;
position = "{430, 10}";
},
{
name = top;
position = "{316, 500}";
},
{
name = topright;
position = "{610, 500}";
}
);
layerId = "2660E96A-9963-4076-AFCB-E451BC6EE103";
paths = (
{
closed = 1;
nodes = (
"132 515 OFFCURVE",
"20 400 OFFCURVE",
"20 246 CURVE SMOOTH",
"20 111 OFFCURVE",
"113 -15 OFFCURVE",
"316 -15 CURVE SMOOTH",
"510 -15 OFFCURVE",
"610 111 OFFCURVE",
"610 246 CURVE SMOOTH",
"610 400 OFFCURVE",
"509 515 OFFCURVE",
"316 515 CURVE SMOOTH"
);
},
{
closed = 1;
nodes = (
"367 505 OFFCURVE",
"370 379 OFFCURVE",
"370 246 CURVE SMOOTH",
"370 120 OFFCURVE",
"361 -5 OFFCURVE",
"316 -5 CURVE SMOOTH",
"265 -5 OFFCURVE",
"260 122 OFFCURVE",
"260 246 CURVE SMOOTH",
"260 379 OFFCURVE",
"267 505 OFFCURVE",
"316 505 CURVE SMOOTH"
);
}
);
width = 630;
},
{
anchors = (
{
name = bottom;
position = "{615, 0}";
},
{
name = center;
position = "{615, 250}";
},
{
name = ogonek;
position = "{844, 10}";
},
{
name = top;
position = "{615, 500}";
},
{
name = topright;
position = "{1208, 500}";
}
);
layerId = "DF54607F-DD82-41E6-B2E3-81CA6D0E5C47";
paths = (
{
closed = 1;
nodes = (
"265 515 OFFCURVE",
"25 404 OFFCURVE",
"25 246 CURVE SMOOTH",
"25 93 OFFCURVE",
"265 -15 OFFCURVE",
"615 -15 CURVE SMOOTH",
"964 -15 OFFCURVE",
"1203 93 OFFCURVE",
"1203 246 CURVE SMOOTH",
"1203 404 OFFCURVE",
"964 515 OFFCURVE",
"615 515 CURVE SMOOTH"
);
},
{
closed = 1;
nodes = (
"676 505 OFFCURVE",
"679 379 OFFCURVE",
"679 246 CURVE SMOOTH",
"679 120 OFFCURVE",
"670 -5 OFFCURVE",
"615 -5 CURVE SMOOTH",
"554 -5 OFFCURVE",
"549 122 OFFCURVE",
"549 246 CURVE SMOOTH",
"549 379 OFFCURVE",
"556 505 OFFCURVE",
"615 505 CURVE SMOOTH"
);
}
);
width = 1228;
},
{
anchors = (
{
name = bottom;
position = "{296, 0}";
},
{
name = center;
position = "{296, 250}";
},
{
name = ogonek;
position = "{392, 10}";
},
{
name = top;
position = "{296, 500}";
},
{
name = topright;
position = "{574, 500}";
}
);
layerId = "A5088515-37FF-452F-BD44-18A7A5EF88F0";
paths = (
{
closed = 1;
nodes = (
"151 515 OFFCURVE",
"65 415 OFFCURVE",
"65 246 CURVE",
"65 82 OFFCURVE",
"151 -15 OFFCURVE",
"296 -15 CURVE",
"442 -15 OFFCURVE",
"529 82 OFFCURVE",
"529 246 CURVE",
"529 415 OFFCURVE",
"443 515 OFFCURVE",
"296 515 CURVE"
);
},
{
closed = 1;
nodes = (
"434 500 OFFCURVE",
"515 406 OFFCURVE",
"515 246 CURVE",
"515 91 OFFCURVE",
"434 0 OFFCURVE",
"296 0 CURVE",
"160 0 OFFCURVE",
"79 91 OFFCURVE",
"79 246 CURVE",
"79 406 OFFCURVE",
"160 500 OFFCURVE",
"297 500 CURVE"
);
}
);
width = 594;
},
{
anchors = (
{
name = bottom;
position = "{501, 0}";
},
{
name = center;
position = "{501, 250}";
},
{
name = ogonek;
position = "{677, 10}";
},
{
name = top;
position = "{501, 500}";
},
{
name = topright;
position = "{987, 500}";
}
);
layerId = "35A90D60-3AD4-435C-9F8B-D1CA483F6F66";
paths = (
{
closed = 1;
nodes = (
"238 515 OFFCURVE",
"65 415 OFFCURVE",
"65 246 CURVE",
"65 82 OFFCURVE",
"238 -15 OFFCURVE",
"501 -15 CURVE",
"767 -15 OFFCURVE",
"942 82 OFFCURVE",
"942 246 CURVE",
"944 415 OFFCURVE",
"769 515 OFFCURVE",
"501 515 CURVE"
);
},
{
closed = 1;
nodes = (
"758 500 OFFCURVE",
"926 406 OFFCURVE",
"926 246 CURVE",
"926 91 OFFCURVE",
"757 0 OFFCURVE",
"501 0 CURVE",
"248 0 OFFCURVE",
"81 91 OFFCURVE",
"81 246 CURVE",
"81 406 OFFCURVE",
"249 500 OFFCURVE",
"503 500 CURVE"
);
}
);
width = 1007;
}
);
leftKerningGroup = oo;
rightKerningGroup = o;
unicode = 006F;
},
{
color = 5;
glyphname = oslash;
lastChange = "2023-02-19 07:03:36 +0000";
layers = (
{
components = (
{
name = o;
}
);
layerId = "2660E96A-9963-4076-AFCB-E451BC6EE103";
paths = (
{
closed = 1;
nodes = (
"478 560 LINE",
"144 -60 LINE",
"160 -60 LINE",
"494 560 LINE"
);
}
);
width = 630;
},
{
components = (
{
name = o;
}
);
layerId = "DF54607F-DD82-41E6-B2E3-81CA6D0E5C47";
paths = (
{
closed = 1;
nodes = (
"771 560 LINE",
"437 -60 LINE",
"453 -60 LINE",
"787 560 LINE"
);
}
);
width = 1228;
},
{
components = (
{
name = o;
}
);
layerId = "A5088515-37FF-452F-BD44-18A7A5EF88F0";
paths = (
{
closed = 1;
nodes = (
"453 560 LINE",
"119 -60 LINE",
"135 -60 LINE",
"469 560 LINE"
);
}
);
width = 594;
},
{
components = (
{
name = o;
}
);
layerId = "35A90D60-3AD4-435C-9F8B-D1CA483F6F66";
paths = (
{
closed = 1;
nodes = (
"661 560 LINE",
"327 -60 LINE",
"343 -60 LINE",
"677 560 LINE"
);
}
);
width = 1007;
}
);
leftKerningGroup = oo;
leftMetricsKey = o;
rightKerningGroup = o;
rightMetricsKey = o;
unicode = 00F8;
},
